<?xml version="1.0" encoding="utf-8"?>
<!DOCTYPE svg PUBLIC "-//W3C//DTD SVG 20010904//EN" "http://www.w3.org/TR/2001/REC-SVG-20010904/DTD/svg10.dtd">
<svg version="1.0" xmlns="http://www.w3.org/2000/svg" width="345px" height="326px" viewBox="0 0 345 326" preserveAspectRatio="xMidYMid meet">
 <g fill="#000000">
  <path d="M299.5 300.1 c-0.8 -1.7 -4.8 -8.1 -8.8 -14.3 -10.2 -15.6 -15 -24.5 -13.7 -25.3 0.5 -0.3 2.2 1.5 3.7 4.1 1.6 2.5 6.5 10.3 10.9 17.1 8.1 12.6 8.1 12.6 7.7 -14.8 -0.5 -29.5 0.6 -62.2 3.7 -103.4 4.4 -58.7 4.6 -77.1 1.4 -94.3 -3.4 -18.3 -13.3 -30.3 -28.8 -34.7 -9.1 -2.7 -25.5 -1.6 -36.6 2.2 -13.2 4.7 -31.2 14.2 -52.4 27.7 -7.9 5 -7.9 5 0 6.3 23.7 4 43.5 15.7 51.4 30.5 4.6 8.6 5.3 19.3 1.9 28.3 -4.5 12 -18.5 22.5 -35.9 27.2 -8.9 2.3 -27.1 2.3 -36.5 -0.1 -16.2 -4.1 -30.4 -13.5 -36 -23.7 -2.5 -4.5 -3 -6.5 -3 -12.4 0 -5.8 0.5 -8 3 -13 3.7 -7.4 15.6 -19.6 27.8 -28.4 4.8 -3.5 8.7 -6.5 8.7 -6.8 0 -0.9 -15.8 0.9 -27.6 3.3 -35.9 7.1 -98 34.7 -122.9 54.8 -5 4 -5.7 2.4 -0.9 -2.5 7.9 -8.2 31.5 -21.4 59.9 -33.7 37.8 -16.4 61.3 -23.1 87 -24.8 10 -0.6 10 -0.6 22.9 -8.6 37.8 -23.5 56 -30.9 75.7 -30.9 23.2 -0.1 38.5 11.8 44.4 34.6 4.2 16.4 4.2 32.1 0 92.5 -3.7 52.7 -4.8 82.8 -4 107.5 0.6 21.6 1.2 30.5 1.8 31.1 0.2 0.2 3.2 -3.6 6.8 -8.4 7.9 -10.5 18.9 -23.2 20 -23.2 2.2 0 0.3 3.2 -7.2 12 -4.4 5.2 -10.8 13.4 -14.2 18.3 -3.4 4.8 -6.7 8.7 -7.4 8.7 -0.7 0 -1.9 -1.3 -2.8 -2.9z m-95.2 -146.7 c14.8 -3.8 26.5 -12.2 31.8 -22.9 2.8 -5.8 3.1 -7.1 2.7 -14.2 -0.4 -10.1 -3.2 -15.9 -11.3 -23.8 -10.3 -10.3 -28.7 -17.9 -46.2 -19.2 -8.1 -0.6 -8.1 -0.6 -18.9 7.3 -20.2 14.7 -30.1 26.8 -31.2 38.5 -0.4 4.1 0.1 6 2.8 11.5 5.9 12 21.6 21.3 41.5 24.5 6.8 1.1 21.4 0.2 28.8 -1.7z"/>
 </g>
</svg>