<?xml version="1.0" encoding="utf-8"?>
<!-- Generator: Adobe Illustrator 19.0.0, SVG Export Plug-In . SVG Version: 6.00 Build 0)  -->
<svg version="1.2" baseProfile="tiny" id="Layer_1" xmlns="http://www.w3.org/2000/svg" xmlns:xlink="http://www.w3.org/1999/xlink"
	 x="0px" y="0px" viewBox="75 75 350 350" xml:space="preserve">
<path id="XMLID_573_" fill="#FFFFFF" d="M306.8,130.8c-3.5-2.1-7.2-4-11-5.6l0.2-9.7c5.3,2.2,10.5,4.7,15.4,7.6V123l0,0
	c0.6,0.3,1.1,0.7,1.6,1c0.1,0.1,0.2,0.2,0.4,0.2c3.9,2.4,7.7,5,11.3,7.8c0.7,0.6,1.4,1.2,2.1,1.8c0.1,0,0.1,0.1,0.2,0.1l0.1,0.1
	c0.2,0.1,0.3,0.3,0.5,0.4c0.2,0.2,0.5,0.4,0.7,0.6c0.4,0.3,0.7,0.6,1.1,0.9c0.8,0.7,1.7,1.5,2.5,2.2c2.7,2.5,5.3,5.1,7.8,7.8
	c0.8,0.8,1.5,1.6,2.2,2.5c0.3,0.3,0.6,0.7,0.9,1.1c0.2,0.2,0.4,0.5,0.6,0.7c0.1,0.2,0.3,0.3,0.4,0.5l0.1,0.1
	c0.1,0.1,0.1,0.1,0.2,0.2c0.6,0.7,1.2,1.4,1.8,2.1c3.2,4.1,6.2,8.5,8.9,13l0,0h-0.1c2.9,5,5.5,10.2,7.7,15.6l-9.7,0.2
	c-1.7-3.9-3.6-7.6-5.8-11.2h0.1c-1.9-3.2-4-6.3-6.1-9.2c-0.6-0.8-1.1-1.5-1.7-2.3c-0.1-0.1-0.2-0.2-0.2-0.3c-0.3-0.4-0.7-0.8-1-1.2
	s-0.6-0.7-0.9-1.1l-0.1-0.1c-0.1-0.2-0.3-0.3-0.4-0.5c-0.6-0.7-1.1-1.3-1.7-2l0,0c-3.4-3.9-7.1-7.6-11-11.1l0,0
	c-0.7-0.6-1.3-1.1-2-1.6c-0.2-0.1-0.4-0.3-0.5-0.4c0,0,0,0-0.1-0.1c-0.4-0.3-0.7-0.6-1.1-0.9c-0.4-0.3-0.8-0.7-1.2-1
	c-0.1-0.1-0.2-0.2-0.3-0.3c-0.7-0.6-1.5-1.1-2.3-1.7c-2.5-1.8-5.1-3.6-7.8-5.2c0,0-0.1,0-0.1-0.1
	C307.9,131.4,307.4,131.1,306.8,130.8L306.8,130.8z M176.4,132l8.3,5c3.4-2.5,7-4.8,10.7-6.9V130c0.5-0.3,1.1-0.6,1.6-0.9
	c0.4-0.2,0.7-0.4,1.1-0.6c2.3-1.2,4.6-2.3,6.9-3.4c0.1,0,0.1,0,0.2-0.1c0.7-0.3,1.5-0.7,2.2-1c0.1-0.1,0.3-0.1,0.4-0.2
	c0.1-0.1,0.3-0.1,0.4-0.2c0.5-0.2,1-0.4,1.5-0.6c0.2-0.1,0.4-0.1,0.6-0.2c0.2-0.1,0.5-0.2,0.7-0.3c0.9-0.3,1.8-0.7,2.8-1
	c0.1,0,0.3-0.1,0.4-0.2c0.7-0.2,1.3-0.5,2-0.7c1.6-0.5,3.3-1,4.9-1.5c0.4-0.1,0.8-0.2,1.2-0.3c2.2-0.6,4.3-1.1,6.5-1.5
	c0.2,0,0.3-0.1,0.5-0.1s0.4-0.1,0.6-0.1c0.9-0.2,1.8-0.3,2.7-0.4c0.5-0.1,0.9-0.2,1.4-0.2c0.5-0.1,0.9-0.2,1.4-0.2
	c0.1,0,0.1,0,0.2,0c0.1,0,0.3,0,0.4-0.1c0.4-0.1,0.8-0.1,1.2-0.1c0.5-0.1,1.1-0.1,1.6-0.2c1.1-0.1,2.2-0.2,3.4-0.3
	c0.6,0,1.2-0.1,1.8-0.1c2.2-0.1,4.4-0.2,6.7-0.2c4,0,8,0.2,11.8,0.6l4.7-8.5c-5.4-0.7-10.9-1.2-16.5-1.2c-2.4,0-4.8,0.1-7.2,0.2
	c-0.6,0-1.3,0.1-1.9,0.1c-1.8,0.1-3.6,0.3-5.4,0.5c-0.6,0.1-1.3,0.2-1.9,0.2c0,0,0,0-0.1,0c-0.9,0.1-1.8,0.3-2.7,0.4
	c-0.1,0-0.3,0-0.4,0.1c-0.5,0.1-1,0.2-1.6,0.3c-0.4,0.1-0.8,0.1-1.2,0.2c-0.1,0-0.1,0-0.2,0c-0.3,0.1-0.6,0.1-0.9,0.2
	c-0.8,0.2-1.6,0.4-2.3,0.5c-1.6,0.3-3.2,0.7-4.7,1.1c-0.4,0.1-0.7,0.2-1.1,0.3c-1.6,0.4-3.2,0.9-4.9,1.4c-0.2,0.1-0.4,0.1-0.6,0.2
	c-0.8,0.3-1.7,0.6-2.5,0.8l0,0c-0.4,0.2-0.9,0.3-1.3,0.5c-0.5,0.2-1,0.4-1.5,0.5c-0.1,0-0.3,0.1-0.4,0.1c-0.2,0.1-0.5,0.2-0.7,0.3
	c-0.6,0.2-1.3,0.5-1.9,0.7c-0.4,0.1-0.7,0.3-1.1,0.5c-1,0.4-1.9,0.8-2.8,1.3c-2.4,1.1-4.7,2.2-7,3.4c-0.4,0.2-0.9,0.5-1.3,0.7
	c-0.6,0.3-1.2,0.6-1.7,0.9l0,0v0.1C185.9,125.2,181,128.5,176.4,132z M192.7,323.2c-2.8-1.7-5.4-3.5-8.1-5.4
	c-0.2-0.2-0.4-0.3-0.7-0.5s-0.5-0.4-0.8-0.6s-0.5-0.4-0.8-0.6c-0.1-0.1-0.2-0.2-0.3-0.2c-0.4-0.3-0.9-0.6-1.3-1
	c-0.4-0.3-0.7-0.6-1.1-0.9c-0.9-0.7-1.7-1.5-2.5-2.2c-1.9-1.7-3.8-3.4-5.6-5.3l-0.1-0.1c-1.2-1.2-2.4-2.5-3.6-3.8
	c-0.1-0.1-0.2-0.2-0.3-0.3c-0.5-0.5-1-1.1-1.5-1.6l0,0c-0.7-0.8-1.5-1.7-2.2-2.6c-0.3-0.4-0.6-0.7-0.9-1.1c-0.3-0.4-0.7-0.8-1-1.3
	c-0.1-0.1-0.2-0.2-0.3-0.3c-0.6-0.7-1.2-1.4-1.7-2.2c-0.7-0.9-1.3-1.9-1.9-2.8c-0.2-0.3-0.5-0.7-0.7-1c-0.9-1.3-1.7-2.6-2.5-3.9
	c-0.2-0.3-0.3-0.6-0.5-0.8c-0.8-1.3-1.6-2.6-2.3-3.9l0,0c-1.4-2.6-2.7-5.2-3.9-7.9l-9.7,0.2c1.7,4.1,3.6,8.2,5.7,12.1l0,0l0,0
	c0.8,1.4,1.6,2.8,2.4,4.1c0.2,0.3,0.4,0.7,0.6,1.1c0.9,1.4,1.8,2.8,2.7,4.2c0.3,0.4,0.5,0.8,0.8,1.2c1.4,2,2.8,4,4.4,6
	c0.6,0.7,1.1,1.5,1.7,2.2c0.1,0.1,0.2,0.2,0.3,0.3c0.3,0.4,0.7,0.8,1,1.2c0.3,0.3,0.6,0.7,0.9,1c0.6,0.7,1.2,1.4,1.8,2.1
	c0.1,0.1,0.2,0.2,0.3,0.3c0,0,0,0.1,0.1,0.1l0,0c1.2,1.4,2.5,2.7,3.8,4l0.1,0.1c1.3,1.3,2.5,2.5,3.9,3.8c0.8,0.8,1.7,1.5,2.5,2.2
	c0.3,0.3,0.7,0.6,1,0.9c0.4,0.3,0.8,0.7,1.2,1c0.1,0.1,0.2,0.2,0.3,0.3c0.7,0.6,1.5,1.2,2.2,1.7c0.5,0.4,1,0.7,1.5,1.1
	c0.3,0.2,0.6,0.4,0.9,0.6c3,2.3,6.2,4.4,9.4,6.4l0,0l0,0c5.4,3.2,11,6.1,16.9,8.5l0.2-9.7C200.9,327.7,196.7,325.5,192.7,323.2
	L192.7,323.2z M323,269.2l27.8,0.5c0-0.1,0.1-0.2,0.1-0.3c0.2-0.4,0.4-0.8,0.5-1.2c0.2-0.4,0.3-0.9,0.5-1.3c0.1-0.1,0.1-0.3,0.1-0.4
	c0.4-0.9,0.7-1.8,1-2.8l-40.1-0.7l0,0c-0.1,0-0.3,0.1-0.3,0.2c-0.1,0.1-0.1,0.3,0,0.4l38,63.4c0.2,0.3-0.1,0.6-0.3,0.6
	c-0.1,0-0.1,0-0.2-0.1l-63.4-38c-0.1,0-0.1-0.1-0.2-0.1c-0.2,0-0.4,0.2-0.4,0.4l0.7,40.1c1-0.3,1.9-0.7,2.8-1.1
	c0.1,0,0.2-0.1,0.3-0.1c0.4-0.2,0.9-0.3,1.3-0.5s0.8-0.4,1.2-0.5c0.1,0,0.2-0.1,0.3-0.1l-0.5-27.8l54.7,32.8c1,0.6,2.1,0.9,3.3,0.9
	c2.3,0,4.4-1.2,5.5-3.2s1.1-4.4-0.1-6.4L323,269.2z M178,185.5l-27.8-0.5c-0.1,0.2-0.2,0.4-0.3,0.6c-0.1,0.3-0.3,0.6-0.4,0.9
	c-0.2,0.4-0.3,0.9-0.5,1.3c-0.1,0.2-0.2,0.5-0.3,0.7c-0.3,0.8-0.6,1.6-0.9,2.4l40.1,0.7l0,0c0.1,0,0.3-0.1,0.3-0.2
	c0.1-0.1,0.1-0.3,0-0.4l-38-63.4c-0.1-0.1-0.1-0.3,0-0.4s0.2-0.2,0.3-0.2s0.1,0,0.2,0.1l63.4,38c0.1,0,0.1,0.1,0.2,0.1
	c0.2,0,0.4-0.2,0.4-0.4l-0.7-40.1c-0.9,0.3-1.9,0.7-2.8,1c-0.1,0-0.3,0.1-0.4,0.1c-0.4,0.2-0.9,0.3-1.3,0.5
	c-0.4,0.2-0.8,0.3-1.2,0.5c-0.1,0-0.2,0.1-0.3,0.1l0.5,27.8l-54.7-32.8c-1-0.6-2.1-0.9-3.3-0.9c-2.3,0-4.4,1.2-5.5,3.2
	s-1.1,4.4,0.1,6.4L178,185.5z M390,258.4l-17.6-9.8l0,0c-0.1,0.5-0.2,1.1-0.3,1.6c0,0.1,0,0.1,0,0.2c-0.1,0.4-0.1,0.8-0.2,1.1l0,0
	c-0.2,1.1-0.5,2.2-0.7,3.2l0,0l15.9,8.8c0.1,0,0.1,0.1,0.2,0.2c0,0.1,0,0.2,0,0.2c0,0.1-0.1,0.2-0.2,0.2s-0.1,0.1-0.2,0.1l0,0l0,0
	l-18.1-0.3h-0.1c-0.2,0.5-0.3,1-0.5,1.5s-0.3,1.1-0.5,1.6c-0.1,0.3-0.2,0.6-0.3,0.9c0,0.1-0.1,0.3-0.1,0.4c-0.2,0.5-0.4,1-0.6,1.5
	h0.1l20,0.3l0,0c3,0,5.5-2,6.3-4.8C393.8,262.7,392.5,259.8,390,258.4z M111,196.4l17.6,9.8l0,0c0.1-0.4,0.1-0.9,0.2-1.3
	c0-0.1,0-0.2,0-0.3c0.1-0.4,0.1-0.7,0.2-1.1c0-0.1,0-0.2,0.1-0.3c0.2-1.1,0.5-2.2,0.7-3.2l0,0l-15.9-8.8c-0.2-0.1-0.2-0.3-0.2-0.4
	c0-0.1,0.1-0.1,0.1-0.2c0.1-0.1,0.1-0.1,0.2-0.1l0,0l0,0l18.1,0.3l0,0c0.1-0.4,0.2-0.8,0.4-1.2c0.2-0.7,0.4-1.3,0.7-2
	c0-0.1,0.1-0.3,0.2-0.4c0.1-0.3,0.2-0.6,0.3-0.9c0.2-0.5,0.4-1,0.5-1.5h-0.1l-20-0.3l0,0c-3,0-5.5,2-6.3,4.8
	C107.2,192,108.5,195,111,196.4z M293.1,343.6c-0.5,0.2-1,0.4-1.5,0.6c-0.1,0-0.2,0.1-0.3,0.1c-0.3,0.1-0.6,0.2-1,0.4
	c-0.5,0.2-1.1,0.3-1.6,0.5s-1,0.3-1.6,0.5v0.1l0.3,18.1c0,0.2-0.2,0.4-0.4,0.4c-0.1,0-0.2-0.1-0.3-0.2l-8.8-15.9l0,0l0,0
	c-1.1,0.2-2.1,0.5-3.2,0.7l0,0c-0.4,0.1-0.7,0.1-1.1,0.2c-0.1,0-0.2,0-0.2,0c-0.5,0.1-1,0.2-1.6,0.3l0,0l9.8,17.6
	c1.1,2,3.2,3.3,5.6,3.3c1.7,0,3.4-0.7,4.5-1.9c1.2-1.2,1.8-2.8,1.8-4.6L293.1,343.6L293.1,343.6z M250.5,311.1l13.5,24.3l0,0
	c0.5-0.1,0.9-0.1,1.4-0.2c0.1,0,0.1,0,0.2,0c0.5-0.1,0.9-0.2,1.4-0.2c1.1-0.2,2.2-0.3,3.3-0.5l0,0l-19.5-35
	c-0.1-0.1-0.2-0.2-0.3-0.2s-0.3,0.1-0.3,0.2l-35.9,64.6c-0.1,0.1-0.2,0.2-0.3,0.2c-0.2,0-0.4-0.1-0.4-0.4l1.2-73.9
	c0-0.2-0.2-0.4-0.4-0.4c-0.1,0-0.1,0-0.2,0.1l-34.3,20.6l0,0c0.9,0.7,1.7,1.5,2.6,2.2c0.4,0.3,0.8,0.6,1.1,0.8
	c0.4,0.3,0.9,0.6,1.3,1l0,0l23.8-14.3l-1.1,63.8c0,1.7,0.6,3.3,1.8,4.6c1.2,1.2,2.8,1.9,4.5,1.9c2.3,0,4.4-1.3,5.6-3.3L250.5,311.1z
	 M323,185.5l14.3-23.8l0,0c-0.3-0.4-0.6-0.9-1-1.3c-0.3-0.4-0.6-0.7-0.9-1.1c-0.3-0.3-0.5-0.6-0.8-0.9c-0.1-0.2-0.3-0.3-0.4-0.5
	c-0.3-0.4-0.6-0.8-1-1.2l0,0L312.6,191c-0.1,0.1-0.1,0.3,0,0.4c0.1,0.1,0.2,0.2,0.3,0.2l0,0l73.9-1.2l0,0l0,0c0.1,0,0.2,0,0.2,0.1
	c0.1,0.1,0.1,0.2,0.1,0.3c0,0,0,0,0,0.1s-0.1,0.2-0.2,0.3l-64.6,35.9c-0.3,0.1-0.3,0.5,0,0.7l35,19.5c0.2-1.1,0.4-2.2,0.5-3.3
	c0.1-0.5,0.2-0.9,0.2-1.4c0-0.1,0-0.1,0-0.2c0.1-0.5,0.1-0.9,0.2-1.4l0,0l-24-13.6l55.8-31c2.5-1.4,3.8-4.3,3.1-7.2
	c-0.7-2.8-3.3-4.8-6.2-4.8L323,185.5z M250.5,143.7L237,119.4l0,0c-0.5,0.1-0.9,0.1-1.4,0.2c-0.1,0-0.1,0-0.2,0
	c-0.5,0.1-0.9,0.2-1.4,0.2c-1.1,0.2-2.2,0.3-3.3,0.5l19.5,35c0.1,0.1,0.2,0.2,0.3,0.2s0.3-0.1,0.3-0.2l35.9-64.6
	c0.1-0.1,0.2-0.2,0.3-0.2c0.2,0,0.4,0.1,0.4,0.4l-1.2,73.9c0,0.1,0,0.2,0.1,0.3s0.2,0.1,0.3,0.1l0,0c0.1,0,0.1,0,0.2-0.1l34.3-20.6
	l0,0c-0.4-0.3-0.8-0.7-1.2-1c-0.2-0.1-0.3-0.3-0.5-0.4c-0.3-0.2-0.6-0.5-0.9-0.7c-0.4-0.3-0.7-0.6-1.1-0.9c-0.4-0.3-0.9-0.7-1.3-1
	l0,0l-23.8,14.3l1.1-63.8c0-1.7-0.6-3.3-1.8-4.6c-1.2-1.2-2.8-1.9-4.5-1.9c-2.3,0-4.4,1.3-5.6,3.3L250.5,143.7z M207.9,111.2
	c0.5-0.2,1-0.4,1.5-0.5c0.1,0,0.3-0.1,0.4-0.1c0.3-0.1,0.6-0.2,0.9-0.3c0.5-0.2,1.1-0.4,1.6-0.5c0.5-0.2,1-0.3,1.5-0.5v-0.1
	l-0.3-18.1c0-0.1,0-0.2,0.1-0.3c0.1-0.1,0.2-0.1,0.3-0.1s0.2,0.1,0.3,0.2l8.8,15.9l0,0c1.1-0.2,2.1-0.5,3.2-0.7l0,0
	c0.4-0.1,0.8-0.1,1.2-0.2c0.1,0,0.1,0,0.2,0c0.5-0.1,1-0.2,1.6-0.3l0,0L219.4,88c-1.1-2-3.3-3.3-5.6-3.3c-1.7,0-3.4,0.7-4.5,1.9
	c-1.2,1.2-1.8,2.8-1.8,4.6L207.9,111.2L207.9,111.2z M178,269.2L163.7,293l0,0c0.3,0.4,0.7,0.8,1,1.3c0.3,0.4,0.6,0.7,0.9,1.1
	c0.7,0.9,1.4,1.8,2.1,2.6l0,0l20.6-34.3c0.1-0.1,0.1-0.3,0-0.4s-0.2-0.2-0.3-0.2l0,0l-73.9,1.2l0,0l0,0c-0.1,0-0.2,0-0.2-0.1
	c-0.1-0.1-0.1-0.1-0.1-0.2c0-0.2,0-0.3,0.2-0.4l64.6-35.9c0.3-0.1,0.3-0.5,0-0.7l-35-19.5l0,0c0,0,0,0,0,0.1
	c-0.2,1.1-0.4,2.2-0.5,3.3c-0.1,0.5-0.2,0.9-0.2,1.4c0,0.1,0,0.3-0.1,0.4c-0.1,0.4-0.1,0.8-0.2,1.2l0,0l24.3,13.5l-55.9,31
	c-2.5,1.4-3.8,4.4-3.1,7.2c0.7,2.8,3.3,4.8,6.2,4.8L178,269.2z M168.9,320.4c-0.8-0.7-1.7-1.5-2.5-2.2l-15.6,9.3
	c-0.1,0-0.1,0.1-0.2,0.1c-0.3,0-0.5-0.3-0.3-0.6l9.4-15.6l0,0c-0.2-0.2-0.4-0.5-0.7-0.8c-0.1-0.1-0.2-0.2-0.3-0.4
	c-0.4-0.5-0.8-0.9-1.2-1.4c-0.3-0.3-0.6-0.7-0.9-1c-0.3-0.4-0.7-0.8-1-1.2l-10.3,17.2c-1.2,2-1.2,4.4-0.1,6.4c1.1,2,3.3,3.2,5.5,3.2
	c1.2,0,2.3-0.3,3.3-0.9l17.2-10.3c-0.4-0.3-0.8-0.7-1.2-1C169.6,321,169.3,320.7,168.9,320.4z M332.1,134.3c0.8,0.7,1.6,1.5,2.4,2.3
	l15.6-9.4c0.1,0,0.1-0.1,0.2-0.1l0,0c0.3,0,0.5,0.3,0.3,0.6l-9.4,15.6c0.8,0.8,1.5,1.6,2.3,2.4c0.3,0.3,0.6,0.7,0.9,1.1
	c0.3,0.4,0.7,0.8,1,1.2l10.3-17.3c1.2-2,1.2-4.4,0.1-6.4s-3.3-3.2-5.5-3.2c-1.2,0-2.3,0.3-3.3,0.9l-17.2,10.4c0.4,0.3,0.8,0.7,1.2,1
	C331.4,133.7,331.8,134,332.1,134.3z M290.1,227.4c0,21.9-17.8,39.6-39.6,39.6s-39.6-17.8-39.6-39.6c0-21.9,17.8-39.6,39.6-39.6
	S290.1,205.5,290.1,227.4z M281,227.4c0-16.8-13.7-30.5-30.5-30.5S220,210.5,220,227.4c0,16.8,13.7,30.5,30.5,30.5
	S281,244.2,281,227.4z M137.7,184.2c0,0.1-0.1,0.2-0.1,0.2c0,0.1-0.1,0.3-0.1,0.4c-0.2,0.5-0.4,1-0.5,1.5c-0.2,0.4-0.3,0.9-0.5,1.3
	c-0.1,0.1-0.1,0.3-0.2,0.4c-0.3,0.8-0.6,1.6-0.8,2.4c0,0.1-0.1,0.2-0.1,0.3c-1.1,3.5-2,7.1-2.8,10.7c-0.2,0.9-0.4,1.7-0.6,2.6
	c0,0.2-0.1,0.4-0.1,0.7c0,0.2-0.1,0.4-0.1,0.7c0,0.2-0.1,0.5-0.1,0.7c-0.1,0.5-0.2,1-0.3,1.6c0,0.1,0,0.3-0.1,0.4
	c-0.1,0.9-0.3,1.8-0.4,2.7c0,0.1,0,0.2,0,0.3c-0.1,0.6-0.2,1.3-0.2,1.9c-0.2,1.8-0.4,3.6-0.5,5.4c0,0.6-0.1,1.3-0.1,1.9
	c-0.1,2.4-0.2,4.7-0.2,7.1c0,5.6,0.4,11.1,1.2,16.5l8.5-4.7c-0.4-3.9-0.6-7.8-0.6-11.8c0-2.2,0.1-4.4,0.2-6.6c0-0.6,0.1-1.2,0.1-1.8
	c0.1-1.2,0.2-2.3,0.3-3.5c0.1-0.5,0.1-1,0.1-1.5c0.1-0.4,0.1-0.9,0.2-1.3c0-0.1,0-0.3,0.1-0.4l0,0c0.1-0.5,0.2-1,0.2-1.5
	c0.1-0.5,0.1-0.9,0.2-1.4c0.1-0.8,0.2-1.5,0.4-2.3c0.1-0.3,0.1-0.7,0.2-1c0-0.1,0-0.2,0.1-0.3c0.4-2.2,0.9-4.4,1.5-6.5v-0.1
	c0.5-2,1.1-4,1.7-5.9c0.2-0.8,0.5-1.5,0.8-2.3l0,0c0.4-1.1,0.8-2.1,1.1-3.2c0-0.1,0.1-0.2,0.1-0.3c0.1-0.3,0.2-0.7,0.4-1
	c0.2-0.5,0.4-1,0.6-1.5c0.1-0.1,0.1-0.3,0.2-0.4c0,0,0,0,0-0.1c0.3-0.8,0.7-1.6,1.1-2.4V182c1.4-3.1,2.8-6.1,4.4-9h0.1
	c2.2-4,4.7-7.8,7.4-11.5l-5-8.3c-3.8,4.9-7.2,10-10.2,15.4l0,0h-0.1c-1.8,3.2-3.3,6.4-4.8,9.8c-0.4,0.9-0.8,1.8-1.2,2.7
	c-0.1,0.2-0.2,0.5-0.3,0.7C138.3,182.6,138,183.4,137.7,184.2z M310.1,332.4c5.1-2.9,9.9-6.1,14.5-9.7l-8.3-5
	c-3.4,2.5-6.9,4.8-10.6,6.9v0.1c-0.6,0.3-1.2,0.6-1.7,0.9c-0.4,0.2-0.7,0.4-1.1,0.6c-2.3,1.2-4.6,2.3-6.9,3.4
	c-0.1,0-0.1,0.1-0.2,0.1c-0.7,0.3-1.4,0.7-2.1,1c-0.1,0.1-0.3,0.1-0.4,0.2s-0.3,0.1-0.4,0.2c-0.5,0.2-1,0.4-1.5,0.6
	c-0.2,0.1-0.4,0.1-0.5,0.2c-0.2,0.1-0.5,0.2-0.7,0.3c-0.9,0.3-1.8,0.7-2.7,1c-0.1,0.1-0.3,0.1-0.4,0.2c-0.7,0.2-1.3,0.4-2,0.7
	c-1.6,0.5-3.3,1-4.9,1.5c-0.4,0.1-0.8,0.2-1.2,0.3c-2.2,0.6-4.3,1.1-6.5,1.5c-0.2,0-0.3,0.1-0.5,0.1l0,0c-0.2,0-0.4,0.1-0.6,0.1
	c-0.9,0.2-1.9,0.3-2.8,0.5c-0.5,0.1-0.9,0.2-1.4,0.2c-0.4,0.1-0.9,0.2-1.3,0.2c-0.1,0-0.2,0-0.2,0c-0.1,0-0.3,0-0.4,0.1
	c-0.4,0.1-0.8,0.1-1.2,0.1c-0.6,0.1-1.1,0.1-1.7,0.2c-1.1,0.1-2.2,0.2-3.3,0.3c-0.6,0-1.2,0.1-1.8,0.1c-2.2,0.1-4.4,0.2-6.7,0.2
	c-4,0-7.9-0.2-11.8-0.6l-4.7,8.5c5.4,0.7,10.9,1.2,16.5,1.2c2.4,0,4.8-0.1,7.2-0.2c0.6,0,1.3-0.1,1.9-0.1c1.8-0.1,3.6-0.3,5.4-0.5
	c0.6-0.1,1.3-0.2,1.9-0.2l0,0c0.9-0.1,1.8-0.3,2.7-0.4c0.1,0,0.3,0,0.4-0.1c0.5-0.1,1-0.2,1.6-0.3c0.4-0.1,0.8-0.1,1.2-0.2h0.1
	c0.3-0.1,0.6-0.1,1-0.2c0.8-0.2,1.5-0.4,2.3-0.5l0,0c1.6-0.4,3.2-0.7,4.8-1.1c0.4-0.1,0.8-0.2,1.2-0.3c1.6-0.4,3.2-0.9,4.8-1.4
	c0.2-0.1,0.5-0.1,0.7-0.2c0.8-0.3,1.6-0.6,2.5-0.8l0,0c0.4-0.2,0.9-0.3,1.3-0.5c0.5-0.2,1-0.4,1.5-0.6c0.1,0,0.3-0.1,0.4-0.1
	c0.3-0.1,0.5-0.2,0.8-0.3c0.6-0.2,1.2-0.4,1.8-0.7c0.4-0.2,0.7-0.3,1.1-0.5c1-0.4,2-0.9,3-1.3c2.3-1,4.5-2.1,6.7-3.3
	c0.5-0.3,1-0.5,1.6-0.8C309,333.1,309.6,332.8,310.1,332.4L310.1,332.4L310.1,332.4z M363.2,271c0.1-0.2,0.2-0.4,0.2-0.7
	c0-0.1,0.1-0.3,0.1-0.4c0.2-0.5,0.4-1,0.5-1.5c0.2-0.4,0.3-0.9,0.5-1.3l0,0c0.3-0.8,0.6-1.7,0.9-2.5c0.1-0.2,0.1-0.4,0.2-0.6
	c0.5-1.6,1-3.2,1.4-4.8c0.1-0.4,0.2-0.7,0.3-1.1c0.4-1.6,0.7-3.2,1.1-4.8c0.2-0.8,0.4-1.5,0.5-2.3c0.1-0.3,0.1-0.6,0.2-0.9
	c0-0.1,0-0.1,0-0.2c0.1-0.4,0.1-0.8,0.2-1.2c0.1-0.5,0.2-1,0.3-1.6c0-0.1,0-0.3,0.1-0.4c0.1-0.9,0.3-1.8,0.4-2.7c0,0,0,0,0-0.1
	c0.1-0.6,0.2-1.3,0.2-1.9c0.2-1.8,0.4-3.6,0.5-5.4c0-0.6,0.1-1.3,0.1-1.9c0.1-2.4,0.2-4.8,0.2-7.2c0-5.6-0.4-11.1-1.2-16.5l-8.5,4.7
	c0.4,3.9,0.6,7.8,0.6,11.8c0,2.2-0.1,4.4-0.2,6.7c0,0.6-0.1,1.2-0.1,1.8c-0.1,1.1-0.2,2.2-0.3,3.4c-0.1,0.5-0.1,1.1-0.2,1.6
	c0,0.4-0.1,0.8-0.1,1.2c0,0.1,0,0.3-0.1,0.4c0,0.1,0,0.1,0,0.2c-0.1,0.5-0.2,0.9-0.2,1.4c-0.1,0.5-0.1,0.9-0.2,1.4
	c-0.1,0.9-0.3,1.8-0.4,2.7c0,0.2-0.1,0.4-0.1,0.6s-0.1,0.3-0.1,0.5c-0.4,2.2-0.9,4.4-1.5,6.5c-0.1,0.4-0.2,0.8-0.3,1.2
	c-0.5,1.7-0.9,3.3-1.5,4.9c-0.2,0.7-0.4,1.3-0.7,2c0,0.1-0.1,0.3-0.2,0.4c-0.3,0.9-0.7,1.8-1,2.8c-0.1,0.2-0.2,0.5-0.3,0.7
	c-0.1,0.2-0.1,0.4-0.2,0.6c-0.2,0.5-0.4,1-0.6,1.5c-0.1,0.1-0.1,0.3-0.2,0.4s-0.1,0.3-0.2,0.4c-0.3,0.7-0.6,1.5-1,2.2
	c0,0.1,0,0.1-0.1,0.2c-1,2.3-2.2,4.6-3.3,6.9c-0.2,0.4-0.4,0.7-0.6,1.1c-0.3,0.5-0.6,1.1-0.9,1.6h-0.1c-2.1,3.7-4.4,7.3-6.9,10.7
	l5,8.3c3.6-4.6,6.8-9.5,9.8-14.6l0,0h0.1c0.3-0.6,0.6-1.2,0.9-1.8c0.2-0.4,0.4-0.9,0.7-1.3c1.2-2.3,2.4-4.7,3.5-7.1
	c0.4-0.9,0.8-1.8,1.2-2.8c0.2-0.4,0.3-0.7,0.5-1.1C362.7,272.2,362.9,271.6,363.2,271z M131.7,147.3c-3.9,0-7.1,3.2-7.1,7.1
	c0,3.9,3.2,7.1,7.1,7.1c3.9,0,7.1-3.2,7.1-7.1C138.8,150.5,135.6,147.3,131.7,147.3z M369.3,284.5c-3.9,0-7.1,3.2-7.1,7.1
	s3.2,7.1,7.1,7.1s7.1-3.2,7.1-7.1C376.3,287.7,373.2,284.5,369.3,284.5z M125.6,288c-1.9,3.4-0.8,7.7,2.6,9.6
	c3.4,1.9,7.7,0.8,9.6-2.6c1.9-3.4,0.8-7.7-2.6-9.6S127.6,284.7,125.6,288z M363.2,150.9c-1.9,3.4-0.8,7.7,2.6,9.6
	c3.4,1.9,7.7,0.8,9.6-2.6c1.9-3.4,0.8-7.7-2.6-9.6C369.4,146.3,365.1,147.5,363.2,150.9z M174.9,341.8c0,3.9,3.2,7.1,7.1,7.1
	s7.1-3.2,7.1-7.1s-3.2-7.1-7.1-7.1S174.9,337.9,174.9,341.8z M312,104.2c0,3.9,3.2,7.1,7.1,7.1s7.1-3.2,7.1-7.1
	c0-3.9-3.2-7.1-7.1-7.1S312,100.3,312,104.2z M109.8,216.9c-3.4,1.9-4.5,6.3-2.6,9.6c1.9,3.4,6.3,4.5,9.6,2.6s4.5-6.3,2.6-9.6
	C117.5,216.1,113.2,214.9,109.8,216.9z M384.1,216.9c-3.4,1.9-4.5,6.3-2.6,9.6s6.3,4.5,9.6,2.6c3.4-1.9,4.5-6.3,2.6-9.6
	C391.8,216.1,387.5,214.9,384.1,216.9z M244.4,363.7c1.9,3.4,6.3,4.5,9.6,2.6c3.4-1.9,4.5-6.3,2.6-9.6c-1.9-3.4-6.3-4.5-9.6-2.6
	S242.4,360.3,244.4,363.7z M244.4,89.3c1.9,3.4,6.3,4.5,9.6,2.6c3.4-1.9,4.5-6.3,2.6-9.6c-1.9-3.4-6.3-4.5-9.6-2.6
	C243.6,81.6,242.4,86,244.4,89.3z M315.6,347.9c3.4,1.9,7.7,0.8,9.6-2.6s0.8-7.7-2.6-9.6s-7.7-0.8-9.6,2.6
	C311,341.6,312.2,345.9,315.6,347.9z M178.4,110.3c3.4,1.9,7.7,0.8,9.6-2.6c1.9-3.4,0.8-7.7-2.6-9.6c-3.4-1.9-7.7-0.8-9.6,2.6
	C173.9,104,175,108.3,178.4,110.3z"/>
</svg>
