<?xml version="1.0" encoding="utf-8"?>
<!-- Generator: Adobe Illustrator 19.0.0, SVG Export Plug-In . SVG Version: 6.00 Build 0)  -->
<svg version="1.2" baseProfile="tiny" id="Layer_1" xmlns="http://www.w3.org/2000/svg" xmlns:xlink="http://www.w3.org/1999/xlink"
	 x="0px" y="0px" viewBox="75 75 350 350" xml:space="preserve">
<g id="XMLID_876_">
	<path id="XMLID_894_" fill="#FFFFFF" d="M356.6,152.7l9.7-5.6c0.5-0.3,1-0.5,1.6-0.7l-109-62.9l11.1,19.2L356.6,152.7z"/>
	<polygon id="XMLID_893_" fill="#FFFFFF" points="241.7,219.1 241.7,212.7 205.3,191.7 200.1,194.7 200.1,201.5 236.1,222.3 	"/>
	<polygon id="XMLID_892_" fill="#FFFFFF" points="192.1,266.9 189.1,268.6 231.4,341.9 241.7,347.8 241.7,337.4 205.4,274.7 	"/>
	<path id="XMLID_891_" fill="#FFFFFF" d="M338.3,226.6l-6.4,11.1l23.4,40.5l-91.4-52.8l-5.5,3.2v6.4l100.4,58l-103.2,59.6v-55.4
		l-1.4,0.8c-1.3,0.7-2.7,1.1-4.2,1.1s-2.9-0.4-4.2-1.1l-1.4-0.8v55.4l-100.4-58c0,0-10.9,6.2-11.2,6.4L245,365.8l0.1-0.1l0,0l0,0
		c0,0.1,0.1,0.1,0.1,0.2c0.7,1.1,1.8,2,3.2,2.4c0.5,0.1,1,0.2,1.4,0.2c1.9,0,3.6-1,4.6-2.6l116.1-67c1.3-0.1,2.6-0.6,3.6-1.6
		c1.5-1.5,1.9-3.6,1.3-5.6C375.6,291.4,338.3,226.6,338.3,226.6z"/>
	<path id="XMLID_890_" fill="#FFFFFF" d="M316.6,211.2l5.7,9.9l6.4-11.1l-12.3-21.2C316.5,189.1,316.6,211.2,316.6,211.2z"/>
	<polygon id="XMLID_889_" fill="#FFFFFF" points="258.3,337.4 258.3,347.8 268.6,341.9 310.9,268.6 307.9,266.9 294.6,274.7 	"/>
	<polygon id="XMLID_888_" fill="#FFFFFF" points="258.3,212.7 258.3,225.5 299.9,201.5 299.9,194.7 294.7,191.7 	"/>
	<path id="XMLID_887_" fill="#FFFFFF" d="M183.4,189.9c0-0.4,0.1-0.7,0.1-1.1L171.2,210l6.4,11.1l5.7-9.9v-21.3H183.4z"/>
	<path id="XMLID_886_" fill="#FFFFFF" d="M251.4,79.4c0.4,0.1,0.8,0.3,1.2,0.5C252.3,79.7,251.9,79.5,251.4,79.4L251.4,79.4z"/>
	<path id="XMLID_885_" fill="#FFFFFF" d="M187.7,181.5l-1,1.8c0.3-0.2,0.6-0.5,0.9-0.7l18.5-10.7l38.4-66.5v172.5l5.5,3.2l5.5-3.2
		V105.5l38.4,66.5c0,0,19.1,11.1,19.4,11.3L254.8,82l0,0l0,0c-0.5-0.9-1.3-1.6-2.2-2.1c-0.4-0.2-0.8-0.4-1.2-0.5l0,0
		c-0.4-0.1-0.8-0.2-1.3-0.2c-0.1,0-0.2,0-0.3,0c-0.4,0-0.9,0.1-1.3,0.2h-0.1c-0.4,0.1-0.8,0.3-1.2,0.5c-0.9,0.5-1.6,1.2-2.1,2.1
		L187.7,181.5z"/>
	<path id="XMLID_884_" fill="#FFFFFF" d="M241.7,235.1v-12.8l-97,56l23.4-40.5l-6.4-11.1l-26.3,45.5V164.3l44.4,25.5l5.5-9.6
		l-44.8-25.7l0,0l0.2-0.1l89.4-51.6l11.1-19.2l-114,65.8c-0.1,0.1-0.2,0.2-0.3,0.3c-0.4,0.2-0.8,0.5-1.1,0.8
		c-1.5,1.5-1.9,3.6-1.3,5.6v135.8c-0.6,1.9-0.2,4.1,1.3,5.6c1,1,2.3,1.5,3.6,1.6c1.1,0.1,2.1-0.1,3.1-0.7L241.7,235.1z"/>
	<path id="XMLID_883_" fill="#FFFFFF" d="M314.7,180.1l5.5,9.6l35.1-20.3l-38.7,67v16.2l2.6,1.5l45.4-78.6v91l11.1,19.2V156
		c0.6-1.9,0.2-4.1-1.3-5.6c-0.3-0.3-0.7-0.6-1.1-0.8c-1.7-1-3.8-1.1-5.6-0.1L314.7,180.1z"/>
	<polygon id="XMLID_882_" fill="#FFFFFF" points="147.6,174.4 138.2,169.1 138.2,180.4 180.8,254.2 183.4,252.7 183.4,236.5 	"/>
	<path id="XMLID_881_" fill="#FFFFFF" d="M241.7,167.4v-12.8l-50.3,29l-2.5,1.4c-1.7,1-2.8,2.8-2.8,4.8V251l11.1-6.4V193
		L241.7,167.4z"/>
	<path id="XMLID_880_" fill="#FFFFFF" d="M302.7,244.7l11.1,6.4v-61.2c0-2-1.1-3.8-2.8-4.8l-52.7-30.4v12.8l44.4,25.6V244.7z"/>
	<path id="XMLID_879_" fill="#FFFFFF" d="M294.1,258.9L250,284.4l-44.1-25.5l-11.1,6.4l49.6,28.6l2.8,1.6c0.9,0.5,1.8,0.7,2.8,0.7
		s1.9-0.2,2.8-0.7l2.8-1.6l49.6-28.6L294.1,258.9z"/>
</g>
</svg>
