<?xml version="1.0" encoding="utf-8"?>
<!-- Generator: Adobe Illustrator 19.0.0, SVG Export Plug-In . SVG Version: 6.00 Build 0)  -->
<svg version="1.2" baseProfile="tiny" id="Layer_1" xmlns="http://www.w3.org/2000/svg" xmlns:xlink="http://www.w3.org/1999/xlink"
	 x="0px" y="0px" viewBox="75 75 350 350" xml:space="preserve">
<path id="XMLID_1304_" fill="#FFFFFF" d="M236.2,215.5c0.2,0.1,0.5,0.1,0.7,0.2c0.6,0.7,1.2,1.5,1.8,2.3c0.9,1.1,1.7,2.3,2.6,3.5
	c-0.8,1.2-1.7,2.3-2.6,3.5c-4.6-0.7-9-1.9-13.2-3.5c-1.3-0.5-2.6-1-3.9-1.6c-11.9-5.2-22.1-13.7-29.5-24.3c0.1,0,0.3,0,0.4,0
	c3.9,0,7.9,0.4,11.8,1.2C212.7,206,223.7,212.7,236.2,215.5z M297.4,115.5c3.5-0.5,7-0.7,10.5-0.7c-10.6-15.2-27.1-26-46.2-29.2
	c0,1.1-0.4,4.3-0.9,8.7C275.4,96.9,288.2,104.6,297.4,115.5z M202.7,327.5c-3.3,0.5-6.6,0.7-9.9,0.7c-0.2,0-0.4,0-0.6,0
	c10.6,15.2,27.1,26,46.1,29.2c0-1.1,0.4-4.3,0.9-8.7C224.6,346.1,211.8,338.4,202.7,327.5z M258.7,221.5c0.8,1.2,1.7,2.3,2.6,3.5
	c0.6,0.8,1.2,1.6,1.8,2.3c0.2,0.1,0.5,0.1,0.7,0.2c12.5,2.9,23.5,9.5,31.8,18.6c4.1,0.8,8.2,1.2,12.2,1.2
	c-7.4-10.5-17.6-19-29.5-24.2c-1.3-0.6-2.6-1.1-3.9-1.6c-4.2-1.6-8.7-2.7-13.2-3.5C260.3,219.2,259.5,220.3,258.7,221.5z
	 M184.1,130.1c-3,7.8-4.7,16.3-4.7,25.2c0,9.3,1.8,18.1,5.1,26.3c3.1-0.3,6.2-0.5,9.4-0.5c-3.6-7.9-5.7-16.6-5.7-25.8
	s2.1-18,5.7-25.8c0.4-1,0.9-1.9,1.4-2.9c1.5-2.9,3.4-5.7,5.3-8.4c0.7-0.9,1.4-1.8,2.1-2.7c9.2-10.9,22-18.6,36.6-21.2
	c-0.6-4.4-0.9-7.6-0.9-8.7c-19,3.2-35.5,14-46.1,29.2c-0.7,1-1.3,2-2,3c-1.8,2.9-3.5,6-4.8,9.1C184.9,128,184.5,129,184.1,130.1z
	 M195.3,258.9c1.7-3.3,3.8-6.4,6.1-9.3c1-1.2,2-2.4,3-3.5c8.3-9.1,19.4-15.8,31.8-18.6c-5.1-1-9.9-2.4-14.6-4.4
	c-11.9,5.2-22.1,13.7-29.5,24.2c-0.7,1-1.3,1.9-1.9,2.9c-1.7,2.7-3.2,5.5-4.5,8.4c-0.4,0.9-0.8,1.9-1.2,2.8
	c-3.3,8.1-5.1,17-5.1,26.3c0,8.9,1.7,17.3,4.7,25.2c3.3,0.5,6.5,0.7,9.8,0.6c-3.6-7.9-5.7-16.6-5.7-25.8c0-9.2,2.1-18,5.7-25.8
	C194.3,260.9,194.8,259.9,195.3,258.9z M176.6,128.6c1.8-0.5,3.5-0.8,5.3-1.2c1.3-3.3,2.9-6.4,4.7-9.4c-4.1,0.4-8.2,1.1-12.3,2.1
	c-14.4,3.9-26.8,12-36.1,23.3c0.9,0.6,3.5,2.5,7,5.2C153.4,138.9,164.2,131.9,176.6,128.6z M234.4,245.3c1.1-0.8,2.2-1.7,3.3-2.6
	c3.5-2.9,6.7-6.2,9.6-9.7c-0.5-1.3-1.1-2.6-1.7-3.9c-0.1-0.1-0.1-0.2-0.2-0.4c-0.4-0.8-0.8-1.7-1.3-2.5c-0.1-0.2-0.2-0.4-0.3-0.6
	c-0.1-0.1-0.1-0.3-0.2-0.4c-0.1-0.1-0.2-0.3-0.3-0.4c-0.1-0.2-0.2-0.3-0.3-0.5c-0.3,0.4-0.6,0.8-0.9,1.2c-0.3,0.4-0.6,0.8-0.9,1.1
	c-0.4,0.5-0.8,1-1.2,1.5c-0.5,0.6-1,1.2-1.6,1.8c-0.2,0.2-0.3,0.3-0.5,0.5c-7.8,8.5-17.9,14.6-29.3,17.7c-0.9,0.2-1.8,0.4-2.7,0.6
	c-2.7,3.1-5.1,6.4-7.2,10c4.1-0.4,8.1-1,12.2-2.1C219.5,254.3,227.5,250.4,234.4,245.3z M315.5,181.5c3.3-8.1,5.1-17,5.1-26.3
	c0-8.9-1.7-17.3-4.6-25.2c-2.9-0.4-5.8-0.7-8.7-0.7c-0.4,0-0.7,0-1.1,0c3.6,7.9,5.7,16.6,5.7,25.8s-2.1,17.9-5.7,25.8
	c-0.5,1-0.9,2-1.4,3c-1.7,3.3-3.8,6.4-6.1,9.3c-0.9,1.2-1.9,2.3-2.9,3.5c-8.4,9.2-19.4,15.8-31.9,18.7c5.1,1,9.9,2.4,14.6,4.4
	c11.9-5.2,22.1-13.7,29.5-24.3c0.7-0.9,1.3-1.9,1.9-2.9c1.7-2.7,3.2-5.5,4.6-8.5C314.7,183.4,315.1,182.5,315.5,181.5z M316,312.9
	c3-7.8,4.6-16.3,4.6-25.1c0-9.3-1.8-18.2-5.1-26.3c-2.7,0.3-5.3,0.5-8,0.5c-0.4,0-0.9,0-1.4,0c3.6,7.9,5.7,16.6,5.7,25.8
	c0,9.2-2.1,17.9-5.7,25.8c-0.4,1-0.9,1.9-1.4,2.9c-1.5,2.9-3.3,5.7-5.3,8.4c-0.7,0.9-1.3,1.8-2.1,2.7c-9.2,10.9-22,18.6-36.6,21.2
	c0.6,4.4,0.9,7.6,0.9,8.7c19-3.2,35.5-14,46.2-29.2c0.7-1,1.3-2,2-3c1.8-2.9,3.5-6,4.9-9.2C315.2,314.9,315.6,313.9,316,312.9z
	 M291.4,194.9c0.9-0.2,1.9-0.4,2.8-0.7c2.7-3.1,5.1-6.4,7.1-9.9c-4.1,0.4-8.1,1.1-12.2,2.1c-8.6,2.3-16.5,6.2-23.5,11.3
	c-1.1,0.8-2.2,1.7-3.3,2.6c-3.5,2.9-6.7,6.2-9.6,9.7c0.5,1.3,1.1,2.6,1.7,3.9c0.1,0.1,0.1,0.2,0.2,0.4c0.4,0.8,0.8,1.7,1.3,2.5
	c0.1,0.2,0.2,0.4,0.3,0.6c0.1,0.1,0.1,0.3,0.2,0.4c0.1,0.1,0.2,0.3,0.3,0.4c0.1,0.2,0.2,0.3,0.3,0.5c0.3-0.4,0.6-0.8,0.9-1.2
	s0.6-0.8,0.9-1.1c0.4-0.5,0.8-1,1.2-1.5c0.5-0.6,1-1.2,1.6-1.8c0.2-0.2,0.3-0.3,0.5-0.5C269.9,204.1,279.9,197.9,291.4,194.9z
	 M318.1,315.5c-1.3,3.3-2.9,6.4-4.7,9.4c18.5-1.6,36.1-10.5,48.4-25.3c-0.9-0.6-3.5-2.5-7-5.2C345.2,305.8,332.1,313,318.1,315.5z
	 M130.3,221.5c1.6,3.1,3.5,6,5.5,8.8c0.7,0.9,1.3,1.8,2,2.6c5.3,6.5,11.8,12.2,19.4,16.6c7.9,4.6,16.5,7.5,25.3,8.8
	c1.3-2.9,2.7-5.7,4.3-8.3c-8.8-0.8-17.4-3.4-25.3-8c-8-4.6-14.5-10.8-19.5-17.8c-0.6-0.9-1.2-1.7-1.8-2.6c-1.8-2.8-3.3-5.8-4.6-8.8
	c-0.4-1-0.9-2.1-1.3-3.1c-4.9-13.4-5.1-28.4-0.1-42.3c-4.1-1.7-7-3-8-3.5c-6.7,18.1-5.6,37.8,2.2,54.6
	C129.2,219.4,129.8,220.5,130.3,221.5z M245,287.6c1.5,2.8,3.2,5.6,5,8.2c0.6,0.8,1.2,1.6,1.8,2.4c5.4,6.9,12.2,12.9,20.2,17.6
	c7.7,4.4,15.8,7.2,24.1,8.5c2-2.6,3.9-5.3,5.5-8.1c-8.6-0.8-17.2-3.3-25.2-8c-8-4.6-14.5-10.8-19.5-17.9c-0.6-0.9-1.3-1.8-1.9-2.7
	c-2-3.2-3.7-6.5-5-10c-0.6-1.4-1.1-2.9-1.5-4.3c-3.7-11.8-3.9-24.6-0.2-36.8c-3.3,3.9-7,7.4-11.1,10.4c-1.4,12.9,0.8,25.9,6.2,37.6
	C243.9,285.5,244.4,286.5,245,287.6z M256.6,284.5c5.4-11.6,7.6-24.7,6.2-37.6c-4-3.1-7.7-6.6-11.1-10.4c3.7,12.2,3.5,25-0.2,36.8
	C252.8,277.1,254.5,280.9,256.6,284.5z M134.5,275.8c-5.1-13.9-4.8-28.9,0.1-42.3c-2.2-2.8-4.1-5.7-5.8-8.8
	c-7.9,16.8-9,36.5-2.2,54.6C127.4,278.7,130.4,277.4,134.5,275.8z M185.7,184.3c-1,0.1-2,0.2-3,0.4c-8.8,1.3-17.4,4.2-25.3,8.8
	c-7.7,4.4-14.2,10.1-19.4,16.6c1.2,3,2.6,6,4.3,8.8c5-7.1,11.5-13.2,19.5-17.8c7.9-4.5,16.5-7.2,25.2-8c1.1-0.1,2.2-0.2,3.3-0.2
	c0.8,0,1.5-0.1,2.3-0.1c2.9,0,5.9,0.2,8.8,0.7c1.5,0.2,3,0.5,4.5,0.8c0.9,0.2,1.9,0.4,2.8,0.7c11.4,3.1,21.4,9.2,29.3,17.6
	c-1.7-4.8-2.9-9.8-3.5-14.8c-7-5.1-14.9-9-23.5-11.3c-4-1.1-8.1-1.8-12.2-2.1c-1.2-0.1-2.3-0.2-3.5-0.2
	C192.1,183.9,188.9,184,185.7,184.3z M200.6,324.8c1.1-0.1,2.2-0.3,3.3-0.5c8.4-1.4,16.5-4.2,24.1-8.6c8.1-4.6,14.8-10.7,20.2-17.6
	c-1.9-2.5-3.6-5.2-5.1-7.9c-5,7.1-11.5,13.3-19.5,17.9c-7.8,4.5-16.4,7.2-25.2,8c-1,0.1-2.1,0.2-3.2,0.3c-3.3,0.1-6.6,0-9.9-0.4
	c-1.1-0.1-2.2-0.3-3.4-0.5c-1.8-0.3-3.6-0.7-5.3-1.2c-12.4-3.3-23.2-10.3-31.3-20c-3.5,2.7-6.1,4.6-7,5.2
	c9.3,11.3,21.7,19.4,36.1,23.3c4.1,1.1,8.2,1.8,12.3,2.1c1.2,0.1,2.4,0.2,3.5,0.2c0.9,0,1.7,0.1,2.6,0.1
	C195.4,325.3,198,325.1,200.6,324.8z M255,155.4c-1.5-2.8-3.2-5.5-5-8.1c-0.6-0.8-1.2-1.7-1.9-2.5c-5.4-6.9-12.2-12.9-20.2-17.5
	c-7.6-4.4-15.7-7.2-24.1-8.6c-2,2.6-3.9,5.3-5.5,8.1c8.8,0.8,17.3,3.5,25.2,8c8,4.6,14.5,10.8,19.5,17.9c0.6,0.9,1.3,1.8,1.9,2.8
	c2,3.2,3.6,6.5,5,9.9c0.6,1.4,1.1,2.9,1.5,4.3c3.7,11.8,4,24.6,0.2,36.8c3.3-3.9,7-7.4,11.1-10.4c1.4-12.9-0.8-25.9-6.2-37.6
	C256.1,157.5,255.6,156.4,255,155.4z M369.7,221.5c-1.6-3.1-3.5-6-5.5-8.8c-0.7-0.9-1.3-1.8-2-2.6c-5.3-6.5-11.8-12.2-19.4-16.6
	c-7.9-4.6-16.5-7.5-25.3-8.8c-1.3,2.9-2.7,5.7-4.3,8.3c8.8,0.8,17.4,3.5,25.2,8c8,4.6,14.5,10.8,19.5,17.8c0.6,0.9,1.2,1.7,1.8,2.6
	c1.8,2.8,3.3,5.8,4.6,8.8c0.4,1,0.9,2.1,1.3,3.1c4.9,13.4,5.1,28.4,0.1,42.3c4.1,1.7,7,3,8,3.5c6.7-18.1,5.6-37.8-2.2-54.6
	C370.8,223.6,370.2,222.5,369.7,221.5z M365.5,167.2c5.1,13.9,4.8,28.9-0.1,42.3c2.2,2.8,4.1,5.7,5.8,8.8c7.9-16.8,9-36.5,2.2-54.6
	C372.6,164.3,369.6,165.6,365.5,167.2z M299.4,118.2c-1.1,0.1-2.2,0.3-3.3,0.4c-8.3,1.3-16.4,4.1-24.1,8.5
	c-7.9,4.6-14.8,10.6-20.2,17.6c1.9,2.5,3.6,5.2,5.1,7.9c5.1-7.2,11.7-13.3,19.6-17.9l0,0c8-4.6,16.6-7.2,25.2-8
	c1.1-0.1,2.1-0.2,3.2-0.2c0.8,0,1.7-0.1,2.5-0.1c2.5,0,5,0.2,7.4,0.5c1.1,0.1,2.3,0.3,3.4,0.5c14,2.5,27.1,9.7,36.7,21.1
	c3.5-2.7,6.1-4.6,7-5.2c-12.3-14.9-29.9-23.7-48.4-25.4c-1.2-0.1-2.4-0.2-3.5-0.2C306.4,117.7,302.9,117.8,299.4,118.2z M307.5,259
	c2.3,0,4.6-0.1,6.8-0.4c1-0.1,2-0.2,3-0.3c8.8-1.3,17.4-4.2,25.3-8.8c7.7-4.4,14.2-10.1,19.4-16.6c-1.2-3-2.6-6-4.3-8.8
	c-5,7.1-11.5,13.2-19.5,17.8c-7.9,4.5-16.5,7.2-25.3,8c-1.1,0.1-2.2,0.2-3.3,0.3c-3.7,0.1-7.4-0.1-11.2-0.6c-1.5-0.2-3-0.5-4.5-0.9
	c-0.9-0.2-1.8-0.3-2.7-0.6c-11.4-3.1-21.5-9.2-29.3-17.7c-0.2-0.2-0.3-0.3-0.5-0.5c-0.5-0.6-1.1-1.2-1.6-1.8c-0.4-0.5-0.8-1-1.2-1.5
	c-0.3-0.4-0.6-0.8-0.9-1.1c-0.3-0.4-0.6-0.8-0.9-1.2c0,0,0-0.1-0.1-0.1c-0.6-0.8-1.1-1.7-1.7-2.6c0-0.1-0.1-0.1-0.1-0.2
	c-0.4-0.7-0.9-1.3-1.3-2c-0.4-0.7-0.7-1.4-1.1-2.1c0-0.1-0.1-0.1-0.1-0.2c-0.5-0.9-1-1.8-1.4-2.8v-0.1c-0.2-0.5-0.4-0.9-0.6-1.4
	c-0.2-0.5-0.4-0.9-0.5-1.4c-0.2-0.6-0.5-1.2-0.7-1.8c-0.3-0.8-0.6-1.5-0.8-2.3c-0.1-0.2-0.1-0.5-0.2-0.8c-3.4-11-3.7-22.8-0.7-34.2
	c0.2-0.9,0.6-1.8,0.9-2.7c-1.3-3.9-3-7.6-5-11.2c-1.7,3.7-3.2,7.5-4.3,11.6c-2.3,8.6-2.9,17.4-2,26c0.2,1.4,0.4,2.9,0.6,4.3
	c0.8,4.5,2,8.9,3.6,13.2c0.1,0.4,0.3,0.8,0.5,1.2c0.3,0.7,0.6,1.3,0.8,2c0.1,0.3,0.2,0.6,0.4,0.8c0.1,0.3,0.3,0.5,0.4,0.8l0,0
	c0.5,1,1,2,1.5,3c0,0.1,0.1,0.1,0.1,0.2c0.4,0.7,0.8,1.5,1.2,2.2s0.9,1.4,1.4,2.1c0,0.1,0.1,0.1,0.1,0.2c0.6,0.9,1.2,1.9,1.8,2.8
	l0,0c0.2,0.2,0.3,0.5,0.5,0.8c0.2,0.2,0.4,0.5,0.5,0.7c0.4,0.6,0.9,1.1,1.3,1.7c0.3,0.3,0.5,0.6,0.8,1c2.9,3.6,6.1,6.8,9.6,9.7
	c1.1,0.9,2.2,1.8,3.3,2.6c7,5.1,14.9,9,23.5,11.3c4,1.1,8.1,1.8,12.2,2.1c1.2,0.1,2.3,0.2,3.5,0.2C305.6,259,306.6,259,307.5,259z
	 M185.5,333.2c-1.1-0.6-2.3-0.9-3.5-0.9c-2.4,0-4.8,1.3-6.1,3.5c-1.9,3.3-0.8,7.6,2.6,9.5c1.1,0.6,2.3,0.9,3.5,0.9
	c2.4,0,4.8-1.3,6.1-3.5C190,339.4,188.9,335.1,185.5,333.2z M385.9,214.5c-3.9,0-7,3.1-7,7s3.1,7,7,7s7-3.1,7-7
	S389.8,214.5,385.9,214.5z M182,110.8c1.2,0,2.4-0.3,3.5-0.9c3.3-1.9,4.5-6.2,2.6-9.5c-1.3-2.2-3.6-3.5-6.1-3.5
	c-1.2,0-2.4,0.3-3.5,0.9c-3.3,1.9-4.5,6.2-2.6,9.5C177.3,109.5,179.6,110.8,182,110.8z M314.5,109.8c1.1,0.6,2.3,0.9,3.5,0.9
	c2.4,0,4.8-1.3,6.1-3.5c1.9-3.3,0.8-7.6-2.6-9.5c-1.1-0.6-2.3-0.9-3.5-0.9c-2.4,0-4.8,1.3-6.1,3.5
	C310,103.6,311.1,107.9,314.5,109.8z M318,332.2c-1.2,0-2.4,0.3-3.5,0.9c-3.3,1.9-4.5,6.2-2.6,9.5c1.3,2.2,3.6,3.5,6.1,3.5
	c1.2,0,2.4-0.3,3.5-0.9c3.3-1.9,4.5-6.2,2.6-9.5C322.7,333.5,320.4,332.2,318,332.2z M114.1,214.5c-3.9,0-7,3.1-7,7s3.1,7,7,7
	s7-3.1,7-7C121,217.6,117.9,214.5,114.1,214.5z M128.3,159.3c0.1,0.1,0.3,0.2,0.4,0.3c0.6,0.3,2.5,1.2,5.1,2.3
	c0.7,0.3,1.5,0.6,2.3,1l0,0c0.8,0.4,1.7,0.7,2.7,1.1c14.1,5.8,37.5,15.1,37.5,15.1s-19.7-15.7-31.8-24.9c-0.8-0.6-1.6-1.2-2.3-1.8
	c0,0,0,0-0.1,0c-0.7-0.5-1.3-1-1.9-1.5c-2.3-1.8-4-3-4.6-3.3c-0.2-0.1-0.4-0.1-0.5-0.2c-1-0.4-2-0.7-3-0.7H132c-2.4,0-4.7,1.3-6,3.5
	s-1.2,4.8,0,6.9C126.7,157.8,127.4,158.6,128.3,159.3z M371.7,283.7c-0.1-0.1-0.3-0.2-0.4-0.3c-0.6-0.3-2.5-1.2-5.1-2.3
	c-0.7-0.3-1.5-0.6-2.3-1l0,0c-0.8-0.4-1.7-0.7-2.7-1.1c-14.1-5.8-37.5-15.1-37.5-15.1s19.7,15.6,31.8,24.9c0.8,0.6,1.6,1.2,2.3,1.8
	c0,0,0,0,0.1,0.1c0.7,0.5,1.3,1,1.9,1.5c2.3,1.8,4,3,4.6,3.3c0.2,0.1,0.3,0.1,0.5,0.2c1,0.5,2,0.7,3,0.7h0.1c2.4,0,4.7-1.3,6-3.5
	s1.2-4.8,0-6.9C373.3,285.2,372.6,284.4,371.7,283.7z M243.9,93.6C243.9,93.6,243.9,93.7,243.9,93.6c0.1,1,0.3,2,0.4,3
	c2,15.1,5.7,40,5.7,40s3.7-24.9,5.7-40c0.1-1,0.3-2,0.4-2.9v-0.1c0.1-0.9,0.2-1.7,0.3-2.4c0.4-2.9,0.6-4.9,0.6-5.6
	c0-0.2,0-0.4-0.1-0.5c-0.1-1.1-0.4-2.1-0.9-3c-1.2-2-3.4-3.4-6-3.4c-1,0-1.9,0.2-2.7,0.5c-1.3,0.5-2.3,1.4-3.1,2.5
	c-0.1,0.1-0.1,0.2-0.2,0.4c-0.3,0.5-0.5,1.1-0.7,1.7c-0.1,0.4-0.2,0.9-0.3,1.3c0,0.2-0.1,0.4-0.1,0.5c0,0.7,0.2,2.7,0.6,5.6
	C243.7,91.9,243.8,92.7,243.9,93.6z M256.1,349.4C256.1,349.4,256.1,349.3,256.1,349.4c-0.1-1-0.3-2-0.4-3c-2-15.1-5.7-40-5.7-40
	s-3.7,24.9-5.7,40c-0.1,1-0.3,2-0.4,2.9v0.1c-0.1,0.9-0.2,1.7-0.3,2.4c-0.4,2.9-0.6,4.9-0.6,5.6c0,0.2,0,0.4,0.1,0.5
	c0,0.5,0.1,1.1,0.3,1.6s0.4,1,0.6,1.4c0.1,0.1,0.1,0.2,0.2,0.4c0.8,1.1,1.8,2,3.1,2.5c0.8,0.4,1.8,0.5,2.7,0.5c2.6,0,4.8-1.4,6-3.4
	c0.5-0.9,0.9-1.9,0.9-3c0-0.2,0.1-0.4,0.1-0.5c0-0.7-0.2-2.7-0.6-5.6C256.3,351.1,256.2,350.3,256.1,349.4z M142.3,290.7
	L142.3,290.7c0.8-0.6,1.6-1.2,2.4-1.8c12.1-9.3,31.8-24.9,31.8-24.9s-23.4,9.3-37.5,15.1c-0.9,0.4-1.8,0.8-2.7,1.1l0,0
	c-0.8,0.3-1.6,0.7-2.3,1c-2.7,1.1-4.5,2-5.1,2.3c-0.2,0.1-0.3,0.2-0.4,0.3c-0.9,0.6-1.6,1.4-2.1,2.3c-1.2,2.1-1.3,4.7,0,6.9
	c1.3,2.2,3.6,3.4,6,3.5h0.1c1,0,2-0.3,3-0.7c0.2-0.1,0.4-0.1,0.5-0.2c0.6-0.3,2.3-1.6,4.6-3.3C141,291.7,141.6,291.3,142.3,290.7z
	 M357.7,152.3L357.7,152.3c-0.8,0.6-1.6,1.2-2.4,1.8c-12.1,9.3-31.8,24.9-31.8,24.9s23.4-9.3,37.5-15.1c0.9-0.4,1.8-0.8,2.7-1.1l0,0
	c0.8-0.3,1.6-0.7,2.3-1c2.7-1.1,4.5-2,5.1-2.3c0.2-0.1,0.3-0.2,0.4-0.3c0.9-0.6,1.6-1.4,2.1-2.3c1.2-2.1,1.3-4.7,0-6.9
	s-3.6-3.5-6-3.5h-0.1c-1,0-2,0.3-3,0.7c-0.2,0.1-0.3,0.1-0.5,0.2c-0.6,0.3-2.3,1.6-4.6,3.3C359,151.3,358.4,151.7,357.7,152.3z
	 M250,78.6c-1,0-1.9,0.2-2.7,0.5 M244.2,361.3c0.8,1.1,1.8,2,3.1,2.5 M247.3,363.9c0.8,0.4,1.8,0.5,2.7,0.5 M244.2,81.7
	c-0.1,0.1-0.1,0.2-0.2,0.4 M244,361c0.1,0.1,0.1,0.2,0.2,0.4 M247.3,79.1c-1.3,0.5-2.3,1.4-3.1,2.5 M243.4,359.6
	c0.2,0.5,0.4,1,0.6,1.4"/>
</svg>
