<?xml version="1.0" encoding="utf-8"?>
<!-- Generator: Adobe Illustrator 19.0.0, SVG Export Plug-In . SVG Version: 6.00 Build 0)  -->
<!DOCTYPE svg PUBLIC "-//W3C//DTD SVG 1.0//EN" "http://www.w3.org/TR/2001/REC-SVG-20010904/DTD/svg10.dtd">
<svg version="1.0" id="Layer_1" xmlns="http://www.w3.org/2000/svg" xmlns:xlink="http://www.w3.org/1999/xlink" x="0px" y="0px"
	 viewBox="75 75 350 350" style="enable-background:new 75 75 350 350;" xml:space="preserve">
<path id="XMLID_122_" style="fill:#FFFFFF;" d="M360.8,250.7c-0.5-0.3-0.9-0.5-1.4-0.7c2.6-9.7,3.9-19.7,3.9-30
	c0-10.3-1.3-20.4-3.9-30c0.5-0.2,0.9-0.5,1.4-0.7c6.8-3.9,11.7-10.3,13.8-17.9c2-7.6,1-15.6-2.9-22.4c-5.3-9.1-15.1-14.8-25.6-14.8
	l0,0c-5.2,0-10.3,1.4-14.7,4c-0.5,0.3-0.9,0.6-1.4,0.9c-0.1-0.1-0.1-0.1-0.2-0.2c-14.6-14.6-32.4-24.7-51.8-29.8c0-0.5,0-1.1,0-1.6
	c0-16.3-13.2-29.5-29.5-29.5S219,91.2,219,107.5c0,0.5,0,1.1,0,1.6c-19.4,5.1-37.2,15.3-51.8,29.8c-0.1,0.1-0.1,0.1-0.2,0.2
	c-0.5-0.3-0.9-0.6-1.4-0.9c-4.5-2.6-9.6-4-14.7-4l0,0c-10.5,0-20.3,5.7-25.6,14.8c-8.1,14.1-3.3,32.2,10.8,40.3
	c0.5,0.3,0.9,0.5,1.4,0.7c-2.6,9.7-3.9,19.7-3.9,30s1.3,20.4,3.9,30c-0.5,0.2-0.9,0.5-1.4,0.7c-14.1,8.1-18.9,26.2-10.8,40.3
	c5.3,9.1,15.1,14.8,25.6,14.8c5.2,0,10.3-1.4,14.7-4c0.5-0.3,0.9-0.6,1.4-0.9c0.1,0.1,0.1,0.1,0.2,0.2
	c14.6,14.6,32.4,24.7,51.8,29.8c0,0.5,0,1.1,0,1.6c0,16.3,13.2,29.5,29.5,29.5s29.5-13.2,29.5-29.5c0-0.5,0-1.1,0-1.6
	c19.4-5.1,37.2-15.3,51.8-29.8c0.1-0.1,0.1-0.1,0.2-0.2c0.5,0.3,0.9,0.6,1.4,0.9c4.5,2.6,9.6,4,14.7,4c10.5,0,20.3-5.7,25.6-14.8
	c3.9-6.8,5-14.8,2.9-22.4C372.5,261,367.6,254.6,360.8,250.7z M352.5,219.9c0,9.3-1.2,18.4-3.5,27c-1-0.1-1.9-0.2-2.9-0.2l0,0
	c-8.7,0-16.9,3.9-22.4,10.3l-20.9-12.1c3.5-7.6,5.5-16.1,5.5-25.1s-2-17.4-5.5-25.1l20.9-12.1c5.6,6.5,13.7,10.3,22.4,10.3
	c1,0,1.9-0.1,2.9-0.2C351.2,201.5,352.5,210.6,352.5,219.9z M199.5,219.9c0-27,21.9-48.9,48.9-48.9s48.9,21.9,48.9,48.9
	s-21.9,48.9-48.9,48.9S199.5,246.9,199.5,219.9z M346,144.9c6.5,0,12.7,3.3,16.2,9.3c5.2,8.9,2.1,20.3-6.8,25.5
	c-2.9,1.7-6.1,2.5-9.3,2.5c-6.5,0-12.7-3.3-16.2-9.3c-5.2-8.9-2.1-20.3,6.8-25.5C339.6,145.7,342.8,144.9,346,144.9z M322,146.4
	c-5.5,7.7-7.1,17.8-3.9,27l-20.9,12.1c-9.9-13.9-25.5-23.5-43.4-25.1v-24.1c9.6-1.8,17.5-8.2,21.5-16.9
	C293.3,124.2,309.3,133.6,322,146.4z M248.4,88.6c10.3,0,18.7,8.4,18.7,18.7s-8.4,18.7-18.7,18.7s-18.7-8.4-18.7-18.7
	C229.8,96.9,238.1,88.6,248.4,88.6z M221.6,119.4c3.9,8.6,11.9,15.1,21.5,16.9v24.1c-17.9,1.6-33.5,11.2-43.4,25.1l-20.9-12.1
	c2-5.6,2.2-11.6,0.7-17.4c-0.9-3.5-2.5-6.7-4.5-9.6C187.6,133.6,203.6,124.2,221.6,119.4z M134.7,154.2c3.5-6,9.7-9.3,16.2-9.3
	c3.2,0,6.4,0.8,9.3,2.5c8.9,5.2,12,16.6,6.8,25.5c-3.5,6-9.7,9.3-16.2,9.3c-3.2,0-6.4-0.8-9.3-2.5
	C132.6,174.6,129.5,163.2,134.7,154.2z M144.4,219.9c0-9.3,1.2-18.4,3.5-27c1,0.1,1.9,0.2,2.9,0.2c8.7,0,16.9-3.9,22.4-10.3
	l20.9,12.1c-3.5,7.6-5.5,16.1-5.5,25.1c0,8.9,2,17.4,5.5,25.1l-20.9,12.1c-5.6-6.5-13.7-10.3-22.4-10.3l0,0c-1,0-1.9,0.1-2.9,0.2
	C145.6,238.3,144.4,229.2,144.4,219.9z M150.9,294.9c-6.5,0-12.7-3.3-16.2-9.3c-5.2-8.9-2.1-20.3,6.8-25.5c2.9-1.7,6.1-2.5,9.3-2.5
	c6.5,0,12.7,3.3,16.2,9.3c5.2,8.9,2.1,20.3-6.8,25.5C157.3,294.1,154.1,294.9,150.9,294.9z M174.9,293.4c2-2.9,3.6-6.1,4.5-9.6
	c1.6-5.8,1.3-11.9-0.7-17.4l20.9-12.1c9.9,13.9,25.5,23.5,43.4,25.1v24.1c-9.6,1.8-17.5,8.2-21.5,16.9
	C203.6,315.6,187.6,306.2,174.9,293.4z M248.4,351.2c-10.3,0-18.7-8.4-18.7-18.7c0-10.3,8.4-18.7,18.7-18.7
	c10.3,0,18.7,8.4,18.7,18.7C267.1,342.9,258.8,351.2,248.4,351.2z M275.3,320.4c-3.9-8.6-11.9-15.1-21.5-16.9v-24.1
	c17.9-1.6,33.5-11.2,43.4-25.1l20.9,12.1c-3.2,9.2-1.7,19.3,3.9,27C309.3,306.2,293.3,315.6,275.3,320.4z M362.2,285.6
	c-3.5,6-9.7,9.3-16.2,9.3c-3.2,0-6.4-0.8-9.3-2.5c-8.9-5.2-12-16.6-6.8-25.5c3.5-6,9.7-9.3,16.2-9.3c3.2,0,6.4,0.8,9.3,2.5
	C364.3,265.2,367.3,276.6,362.2,285.6z"/>
</svg>
