<?xml version="1.0" encoding="utf-8"?>
<!-- Generator: Adobe Illustrator 19.0.0, SVG Export Plug-In . SVG Version: 6.00 Build 0)  -->
<svg version="1.2" baseProfile="tiny" id="Layer_1" xmlns="http://www.w3.org/2000/svg" xmlns:xlink="http://www.w3.org/1999/xlink"
	 x="0px" y="0px" viewBox="75 75 350 350" xml:space="preserve">
<path id="XMLID_763_" fill="#FFFFFF" d="M155.7,210c-0.2,0-0.4,0.1-0.7,0.2c1.1-9.7,3.6-19,7.3-27.7l0.6,0.3l4.8,2.8l0.5,0.3
	c-3.3,7.7-5.5,16-6.4,24.6c-0.2-0.1-0.4-0.1-0.5-0.2c-1.1-0.4-2.2-0.6-3.4-0.6C157.1,209.8,156.4,209.8,155.7,210z M193.9,143.7
	c-0.1-0.2-0.1-0.4-0.2-0.6c-7.7,5.7-14.6,12.5-20.3,20.1l0.5,0.3l4.8,2.8l0.5,0.3c5.2-6.8,11.3-12.8,18.1-17.9
	c-0.2-0.1-0.3-0.3-0.5-0.4C195.6,147.1,194.5,145.6,193.9,143.7z M214.8,303.1c-0.4,1.9-1.3,3.6-2.5,4.9c-0.1,0.2-0.2,0.3-0.4,0.5
	c8.6,3.8,17.9,6.4,27.6,7.5v-0.6v-5.6v-0.6c-8.6-1.1-16.9-3.4-24.6-6.7C214.8,302.7,214.8,302.9,214.8,303.1z M286.3,303.1
	c0-0.2,0-0.4-0.1-0.6c-7.7,3.4-15.9,5.7-24.6,6.7v0.6v5.6v0.6c9.7-1.1,19-3.7,27.6-7.5c-0.1-0.1-0.3-0.3-0.4-0.5
	C287.6,306.6,286.6,305,286.3,303.1z M303.5,148.8c6.9,5.1,13,11.1,18.1,17.9l0.5-0.3l4.8-2.8l0.5-0.3c-5.7-7.7-12.6-14.5-20.3-20.1
	c-0.1,0.2-0.1,0.4-0.2,0.6c-0.6,1.8-1.7,3.4-3.1,4.6C303.9,148.5,303.7,148.6,303.5,148.8z M338.1,182.8l-4.8,2.8l-0.5,0.3
	c3.3,7.7,5.5,16,6.4,24.6c0.2-0.1,0.4-0.1,0.5-0.2c1.1-0.4,2.2-0.6,3.4-0.6c0.7,0,1.4,0.1,2.1,0.2c0.2,0,0.4,0.1,0.7,0.2
	c-1.1-9.7-3.6-19-7.3-27.7L338.1,182.8z M396.3,193.8v53.5c0,2.4-1.3,4.6-3.4,5.8l-43,24.8v49.7c0,2.4-1.3,4.6-3.4,5.8l-46.3,26.8
	c-1,0.6-2.2,0.9-3.4,0.9s-2.3-0.3-3.4-0.9l-43-24.8l-43,24.8c-1,0.6-2.2,0.9-3.4,0.9s-2.3-0.3-3.4-0.9l-46.3-26.8
	c-2.1-1.2-3.4-3.4-3.4-5.8V278l-43-24.8c-2.1-1.2-3.4-3.4-3.4-5.8v-53.5c0-2.4,1.3-4.6,3.4-5.8l43-24.8v-49.7c0-2.4,1.3-4.6,3.4-5.8
	L200.6,81c2.1-1.2,4.7-1.2,6.7,0l43,24.8l43-24.8c2.1-1.2,4.7-1.2,6.7,0l46.3,26.8c2.1,1.2,3.4,3.4,3.4,5.8v49.6l43,24.8
	C395,189.2,396.3,191.4,396.3,193.8z M382.8,197.7l-39.6-22.9l0,0l-39.6,22.9v45.7l25.5,14.7c-1,2-2,4-3.1,6
	c-1.1,1.9-2.3,3.8-3.6,5.7l0,0l-25.5-14.7L277,266.6L257.2,278v45.7l39.6,22.9l39.6-22.9V278l-4.5-2.6l0,0c1.3-1.9,2.5-3.8,3.6-5.7
	c1.1-1.9,2.2-3.9,3.2-6l4.5,2.6l0,0l39.6-22.9L382.8,197.7L382.8,197.7z M243.8,318.6v-2.2v-0.6v-5.6v-0.6v-2.2V278l-39.6-22.9
	l-25.5,14.7l0,0c-1.3-1.9-2.5-3.7-3.6-5.7c-1.1-1.9-2.2-4-3.1-6l25.5-14.7v-45.7l-39.6-22.9l0,0l-39.6,22.9v45.7l39.6,22.9l0,0
	l4.5-2.6c1,2,2,4,3.2,6c1.1,1.9,2.3,3.9,3.6,5.7l0,0l-4.5,2.6v45.7l39.6,22.9l39.6-22.9L243.8,318.6L243.8,318.6z M243.8,122.6v-5.1
	l-39.6-22.9l-39.6,22.9v45.7l39.6,22.9l39.6-22.9v-29.4c2.2-0.2,4.5-0.3,6.7-0.3l0,0c2.3,0,4.5,0.1,6.7,0.3v29.4l39.6,22.9
	l39.6-22.9v-45.7l-39.6-22.9l-39.6,22.9v5.1c-2.2-0.2-4.5-0.2-6.7-0.2l0,0C248.2,122.4,246,122.4,243.8,122.6z M290.1,243.5v-45.7
	l-39.6-22.9l0,0l0,0l-39.6,22.9v45.7l39.6,22.9l0,0l0,0L290.1,243.5z M239.4,125.8c-9.4,1.1-18.5,3.6-27.2,7.4
	c1.2,1.4,2.1,3.1,2.5,4.9c7.8-3.4,16.1-5.7,24.6-6.7c1.4-0.2,2.9-0.3,4.4-0.4c2.2-0.2,4.5-0.3,6.7-0.3l0,0c2.3,0,4.5,0.1,6.7,0.3
	c1.5,0.1,2.9,0.3,4.4,0.4c8.5,1.1,16.8,3.3,24.6,6.7c0.4-1.9,1.3-3.6,2.5-4.9c-8.6-3.8-17.8-6.3-27.2-7.4c-1.4-0.2-2.9-0.3-4.4-0.4
	c-2.2-0.2-4.5-0.3-6.7-0.3l0,0c-2.3,0-4.5,0.1-6.7,0.3C242.3,125.5,240.8,125.6,239.4,125.8z M178.8,274.8c-0.9-1.2-1.7-2.4-2.5-3.6
	l0,0c-1.3-1.9-2.5-3.8-3.6-5.7c-1.1-1.9-2.2-4-3.1-6l0,0c-0.6-1.3-1.2-2.6-1.8-4c-3.3-7.8-5.5-16.2-6.5-24.7
	c-1.1,0.4-2.2,0.6-3.4,0.6c-0.7,0-1.4-0.1-2.1-0.2c1.1,9.4,3.5,18.6,7.2,27.1c0.6,1.3,1.2,2.7,1.8,4l0,0c1,2,2,4,3.2,6
	c1.1,1.9,2.3,3.8,3.6,5.7l0,0c0.8,1.2,1.7,2.4,2.5,3.6c5.6,7.5,12.3,14.2,19.9,19.9c0.6-1.8,1.7-3.4,3.1-4.6
	C190.1,287.7,183.9,281.6,178.8,274.8z M339.8,230.8c-1,8.6-3.2,16.9-6.5,24.7c-0.6,1.3-1.2,2.7-1.8,4l0,0c-1,2-2,4-3.1,6
	c-1.1,1.9-2.3,3.8-3.6,5.7l0,0c-0.8,1.2-1.7,2.4-2.5,3.6c-5.1,6.8-11.2,12.9-18.2,18c1.4,1.2,2.4,2.8,3.1,4.6
	c7.7-5.6,14.4-12.4,19.9-19.9c0.9-1.2,1.7-2.4,2.5-3.6l0,0c1.3-1.9,2.5-3.8,3.6-5.7c1.1-1.9,2.2-3.9,3.2-6l0,0
	c0.6-1.3,1.2-2.6,1.8-4c3.7-8.6,6.2-17.7,7.2-27.1c-0.7,0.1-1.4,0.2-2.1,0.2C342,231.4,340.9,231.2,339.8,230.8z M296.8,147.8
	c0.4,0,0.9-0.1,1.3-0.1c0.9-0.2,1.7-0.5,2.5-0.9c0.2-0.1,0.4-0.2,0.6-0.4c1.5-1.1,2.6-2.8,3-4.7c0-0.2,0-0.4,0.1-0.7
	c0-0.2,0.1-0.4,0.1-0.7c0-0.7-0.1-1.4-0.3-2.1c-0.9-3.1-3.7-5.3-7.1-5.3c-0.6,0-1.2,0.1-1.7,0.2c-0.9,0.2-1.8,0.6-2.6,1.2
	c-0.2,0.1-0.3,0.3-0.5,0.4c-1.4,1.2-2.4,2.9-2.6,4.9c0,0.2-0.1,0.4-0.1,0.6v0.1c0,0.9,0.2,1.7,0.5,2.5
	C290.9,145.7,293.6,147.8,296.8,147.8z M204.2,293.4c-0.4,0-0.9,0.1-1.3,0.1c-0.9,0.2-1.7,0.5-2.5,0.9c-0.2,0.1-0.4,0.2-0.6,0.4
	c-1.5,1.1-2.6,2.8-3,4.7c0,0.2,0,0.4-0.1,0.7c0,0.2-0.1,0.4-0.1,0.7c0,0.7,0.1,1.4,0.3,2.1c0.9,3.1,3.7,5.3,7.1,5.3
	c0.6,0,1.2-0.1,1.7-0.2c0.9-0.2,1.8-0.6,2.6-1.2c0.2-0.1,0.3-0.3,0.5-0.4c1.4-1.2,2.4-2.9,2.6-4.9c0-0.2,0.1-0.4,0.1-0.6v-0.1
	c0-0.9-0.2-1.7-0.5-2.5C210.1,295.5,207.4,293.4,204.2,293.4z M343.2,213.1c-1.1,0-2.1,0.2-3.1,0.7c-0.2,0.1-0.4,0.2-0.6,0.3
	c-0.8,0.4-1.5,1-2.1,1.7c-1.1,1.3-1.7,2.9-1.7,4.7s0.7,3.5,1.7,4.7c0.6,0.7,1.3,1.3,2.1,1.7c0.2,0.1,0.4,0.2,0.6,0.3
	c0.9,0.4,2,0.7,3.1,0.7c0.9,0,1.7-0.2,2.5-0.5c0.2-0.1,0.4-0.1,0.6-0.2c0.9-0.4,1.6-0.9,2.3-1.6c1.3-1.3,2.1-3.1,2.1-5.1
	s-0.8-3.8-2.1-5.1c-0.6-0.7-1.4-1.2-2.3-1.6c-0.2-0.1-0.4-0.2-0.6-0.2C344.9,213.3,344.1,213.1,343.2,213.1z M211.5,139.6
	c-0.2-2-1.2-3.7-2.6-4.9c-0.2-0.1-0.3-0.3-0.5-0.4c-0.8-0.5-1.6-0.9-2.6-1.2c-0.6-0.1-1.1-0.2-1.7-0.2c-3.4,0-6.2,2.3-7.1,5.3
	c-0.2,0.7-0.3,1.4-0.3,2.1c0,0.2,0,0.5,0.1,0.7c0,0.2,0,0.4,0.1,0.7c0.4,1.9,1.4,3.6,3,4.7c0.2,0.1,0.4,0.2,0.6,0.4
	c0.8,0.5,1.6,0.8,2.5,0.9c0.4,0.1,0.8,0.1,1.3,0.1c3.2,0,5.9-2.1,7-4.9c0.3-0.8,0.5-1.6,0.5-2.5v-0.1
	C211.6,140,211.6,139.8,211.5,139.6z M160.9,227.4c0.2-0.1,0.4-0.2,0.6-0.3c0.8-0.4,1.5-1,2.1-1.7c1.1-1.3,1.7-2.9,1.7-4.7
	s-0.7-3.5-1.7-4.7c-0.6-0.7-1.3-1.3-2.1-1.7c-0.2-0.1-0.4-0.2-0.6-0.3c-0.9-0.4-2-0.7-3.1-0.7c-0.9,0-1.7,0.2-2.5,0.5
	c-0.2,0.1-0.4,0.1-0.6,0.2c-0.9,0.4-1.6,0.9-2.3,1.6c-1.3,1.3-2.1,3.1-2.1,5.1s0.8,3.8,2.1,5.1c0.6,0.7,1.4,1.2,2.3,1.6
	c0.2,0.1,0.4,0.2,0.6,0.2c0.8,0.3,1.6,0.5,2.5,0.5C158.9,228.1,159.9,227.8,160.9,227.4z M304.2,299.5c-0.3-1.9-1.4-3.6-3-4.7
	c-0.2-0.1-0.4-0.2-0.6-0.4c-0.8-0.5-1.6-0.8-2.5-0.9c-0.4-0.1-0.8-0.1-1.3-0.1c-3.2,0-5.9,2.1-7,4.9c-0.3,0.8-0.5,1.6-0.5,2.5v0.1
	c0,0.2,0,0.4,0.1,0.6c0.2,2,1.2,3.7,2.6,4.9c0.2,0.1,0.3,0.3,0.5,0.4c0.8,0.5,1.6,0.9,2.6,1.2c0.6,0.1,1.1,0.2,1.7,0.2
	c3.4,0,6.2-2.3,7.1-5.3c0.2-0.7,0.3-1.4,0.3-2.1c0-0.2,0-0.5-0.1-0.7C304.2,300,304.2,299.8,304.2,299.5z"/>
</svg>
