<?xml version="1.0" encoding="utf-8"?>
<!-- Generator: Adobe Illustrator 19.0.0, SVG Export Plug-In . SVG Version: 6.00 Build 0)  -->
<svg version="1.2" baseProfile="tiny" id="Layer_1" xmlns="http://www.w3.org/2000/svg" xmlns:xlink="http://www.w3.org/1999/xlink"
	 x="0px" y="0px" viewBox="0 0 350 350" xml:space="preserve">
<g id="XMLID_1075_">
	<path id="XMLID_1124_" fill="#FFFFFF" d="M174.9,204.7c3.2,0,5.7-2.6,5.7-5.7v-50.1l43.4-25.1c2.7-1.6,3.7-5.1,2.1-7.8
		c-1.6-2.7-5.1-3.7-7.8-2.1L174.9,139l-43.4-25.1c-2.7-1.6-6.2-0.6-7.8,2.1c-1.6,2.7-0.6,6.2,2.1,7.8l43.4,25.1v50.1
		C169.2,202.1,171.7,204.7,174.9,204.7z"/>
	<path id="XMLID_1123_" fill="#FFFFFF" d="M208.9,60.3c37.7,13.9,64.7,50.2,64.7,92.7c0,4.6-0.3,9.1-1,13.6l18.9-10
		c0-1.2,0.1-2.4,0.1-3.6c0-45.6-26.2-85.1-64.4-104.3L208.9,60.3z"/>
	<path id="XMLID_1083_" fill="#FFFFFF" d="M77,165.9c-0.6-4.2-0.9-8.5-0.9-12.9c0-42.5,27-78.8,64.7-92.7l-18.4-11.6
		C84.3,68,58.1,107.5,58.1,153c0,1,0.1,2,0.1,2.9L77,165.9z"/>
	<path id="XMLID_1082_" fill="#FFFFFF" d="M237.9,229c-17.1,14.2-39.1,22.8-63,22.8c-23.4,0-44.9-8.2-61.8-21.8l-0.8,21.6
		c18.1,11.6,39.6,18.3,62.6,18.3c23.5,0,45.5-7,63.8-19L237.9,229z"/>
	<path id="XMLID_1081_" fill="#FFFFFF" d="M99.7,31.1l75.2,47.3l75.2-47.3c2.7-1.7,3.5-5.2,1.8-7.9c-1.7-2.7-5.2-3.5-7.9-1.8
		l-69.1,43.5l-69.1-43.5c-2.7-1.7-6.2-0.9-7.9,1.8C96.3,25.9,97.1,29.4,99.7,31.1z"/>
	<path id="XMLID_1080_" fill="#FFFFFF" d="M101.2,7.3l73.6,46.4l73.6-46.4c1.3-0.8,1.7-2.6,0.9-3.9c-0.8-1.3-2.6-1.7-3.9-0.9
		l-70.6,44.5L104.3,2.4c-1.3-0.8-3.1-0.4-3.9,0.9C99.5,4.7,99.9,6.4,101.2,7.3z"/>
	<path id="XMLID_1079_" fill="#FFFFFF" d="M33.3,146.1c-2.8-1.5-6.2-0.4-7.7,2.4c-1.5,2.8-0.4,6.2,2.4,7.7l72.2,38.1l-3.1,81.6
		c-0.1,3.2,2.3,5.8,5.5,5.9c0.1,0,0.1,0,0.2,0c3.1,0,5.6-2.4,5.7-5.5l3.4-88.8L33.3,146.1z"/>
	<path id="XMLID_1078_" fill="#FFFFFF" d="M13.5,159.3c-1.4-0.7-3.1-0.2-3.9,1.2c-0.7,1.4-0.2,3.1,1.2,3.9l73.8,38.9l-3.2,83.4
		c-0.1,1.6,1.2,2.9,2.7,3c0,0,0.1,0,0.1,0c1.5,0,2.8-1.2,2.8-2.7l3.3-87L13.5,159.3z"/>
	<path id="XMLID_1077_" fill="#FFFFFF" d="M252.1,228.2l-0.5-13.1l-0.8-20.8l64.2-33.9l8-4.2c2.8-1.5,3.9-4.9,2.4-7.7
		s-4.9-3.9-7.7-2.4l-78.6,41.4l3.4,88.8c0.1,3.1,2.6,5.5,5.7,5.5c0.1,0,0.1,0,0.2,0c3.1-0.1,5.6-2.8,5.5-5.9L252.1,228.2z"/>
	<path id="XMLID_1076_" fill="#FFFFFF" d="M341.4,160.5c-0.7-1.4-2.5-1.9-3.9-1.2l-77,40.6l3.3,87c0.1,1.5,1.3,2.7,2.8,2.7
		c0,0,0.1,0,0.1,0c1.6-0.1,2.8-1.4,2.7-3l-3.2-83.4l73.8-38.9C341.6,163.6,342.1,161.9,341.4,160.5z"/>
</g>
</svg>
