<?xml version="1.0" encoding="utf-8"?>
<!-- Generator: Adobe Illustrator 19.0.0, SVG Export Plug-In . SVG Version: 6.00 Build 0)  -->
<svg version="1.2" baseProfile="tiny" id="Layer_1" xmlns="http://www.w3.org/2000/svg" xmlns:xlink="http://www.w3.org/1999/xlink"
	 x="0px" y="0px" viewBox="75 75 350 350" xml:space="preserve">
<path id="XMLID_74_" fill="#FFFFFF" d="M319.4,218.7h-12.1c0-31.4-25.5-56.9-56.9-56.9s-56.9,25.5-56.9,56.9h-12.1
	c0-38.1,31-69,69-69S319.4,180.6,319.4,218.7z M250.3,95c-68.2,0-123.7,55.5-123.7,123.7h12.1c0-61.5,50-111.6,111.6-111.6
	c61.5,0,111.6,50,111.6,111.6H374C374,150.5,318.5,95,250.3,95z M250.3,131.4c-48.1,0-87.3,39.1-87.3,87.3h12.1
	c0-41.4,33.7-75.1,75.1-75.1s75.1,33.7,75.1,75.1h12.1C337.6,170.6,298.4,131.4,250.3,131.4z M250.3,113.2
	c-58.2,0-105.5,47.3-105.5,105.5H157c0-51.5,41.9-93.3,93.3-93.3c51.5,0,93.3,41.9,93.3,93.3h12.1
	C355.8,160.5,308.5,113.2,250.3,113.2z M250.5,89.1c-71.6,0-129.6,58-129.6,129.6s58,129.6,129.6,129.6s129.6-58,129.6-129.6
	S322.1,89.1,250.5,89.1 M250.5,77c78.2,0,141.7,63.6,141.7,141.7s-63.6,141.7-141.7,141.7s-141.7-63.5-141.7-141.7
	S172.3,77,250.5,77L250.5,77z"/>
</svg>
