<?xml version="1.0" encoding="utf-8"?>
<!-- Generator: Adobe Illustrator 19.0.0, SVG Export Plug-In . SVG Version: 6.00 Build 0)  -->
<svg version="1.2" baseProfile="tiny" id="Layer_1" xmlns="http://www.w3.org/2000/svg" xmlns:xlink="http://www.w3.org/1999/xlink"
	 x="0px" y="0px" viewBox="75 75 350 350" xml:space="preserve">
<path id="XMLID_573_" fill="#231F20" d="M306.8,156.3c-3.5-2.1-7.2-4-11-5.6l0.2-9.7c5.3,2.2,10.5,4.7,15.4,7.6v-0.1l0,0
	c0.6,0.3,1.1,0.7,1.6,1c0.1,0.1,0.2,0.2,0.4,0.2c3.9,2.4,7.7,5,11.3,7.8c0.7,0.6,1.4,1.2,2.1,1.8c0.1,0,0.1,0.1,0.2,0.1l0.1,0.1
	c0.2,0.1,0.3,0.3,0.5,0.4c0.2,0.2,0.5,0.4,0.7,0.6c0.4,0.3,0.7,0.6,1.1,0.9c0.8,0.7,1.7,1.5,2.5,2.2c2.7,2.5,5.3,5.1,7.8,7.8
	c0.8,0.8,1.5,1.6,2.2,2.5c0.3,0.3,0.6,0.7,0.9,1.1c0.2,0.2,0.4,0.5,0.6,0.7c0.1,0.2,0.3,0.3,0.4,0.5l0.1,0.1
	c0.1,0.1,0.1,0.1,0.2,0.2c0.6,0.7,1.2,1.4,1.8,2.1c3.2,4.1,6.2,8.5,8.9,13l0,0h-0.1c2.9,5,5.5,10.2,7.7,15.6l-9.7,0.2
	c-1.7-3.9-3.6-7.6-5.8-11.2h0.1c-1.9-3.2-4-6.3-6.1-9.2c-0.6-0.8-1.1-1.5-1.7-2.3c-0.1-0.1-0.2-0.2-0.2-0.3c-0.3-0.4-0.7-0.8-1-1.2
	s-0.6-0.7-0.9-1.1L337,182c-0.1-0.2-0.3-0.3-0.4-0.5c-0.6-0.7-1.1-1.3-1.7-2l0,0c-3.4-3.9-7.1-7.6-11-11.1l0,0
	c-0.7-0.6-1.3-1.1-2-1.6c-0.2-0.1-0.4-0.3-0.5-0.4c0,0,0,0-0.1-0.1c-0.4-0.3-0.7-0.6-1.1-0.9c-0.4-0.3-0.8-0.7-1.2-1
	c-0.1-0.1-0.2-0.2-0.3-0.3c-0.7-0.6-1.5-1.1-2.3-1.7c-2.5-1.8-5.1-3.6-7.8-5.2c0,0-0.1,0-0.1-0.1
	C307.9,156.9,307.4,156.6,306.8,156.3L306.8,156.3z M176.4,157.5l8.3,5c3.4-2.5,7-4.8,10.7-6.9v-0.1c0.5-0.3,1.1-0.6,1.6-0.9
	c0.4-0.2,0.7-0.4,1.1-0.6c2.3-1.2,4.6-2.3,6.9-3.4c0.1,0,0.1,0,0.2-0.1c0.7-0.3,1.5-0.7,2.2-1c0.1-0.1,0.3-0.1,0.4-0.2
	c0.1-0.1,0.3-0.1,0.4-0.2c0.5-0.2,1-0.4,1.5-0.6c0.2-0.1,0.4-0.1,0.6-0.2c0.2-0.1,0.5-0.2,0.7-0.3c0.9-0.3,1.8-0.7,2.8-1
	c0.1,0,0.3-0.1,0.4-0.2c0.7-0.2,1.3-0.5,2-0.7c1.6-0.5,3.3-1,4.9-1.5c0.4-0.1,0.8-0.2,1.2-0.3c2.2-0.6,4.3-1.1,6.5-1.5
	c0.2,0,0.3-0.1,0.5-0.1s0.4-0.1,0.6-0.1c0.9-0.2,1.8-0.3,2.7-0.4c0.5-0.1,0.9-0.2,1.4-0.2c0.5-0.1,0.9-0.2,1.4-0.2
	c0.1,0,0.1,0,0.2,0c0.1,0,0.3,0,0.4-0.1c0.4-0.1,0.8-0.1,1.2-0.1c0.5-0.1,1.1-0.1,1.6-0.2c1.1-0.1,2.2-0.2,3.4-0.3
	c0.6,0,1.2-0.1,1.8-0.1c2.2-0.1,4.4-0.2,6.7-0.2c4,0,8,0.2,11.8,0.6l4.7-8.5c-5.4-0.7-10.9-1.2-16.5-1.2c-2.4,0-4.8,0.1-7.2,0.2
	c-0.6,0-1.3,0.1-1.9,0.1c-1.8,0.1-3.6,0.3-5.4,0.5c-0.6,0.1-1.3,0.2-1.9,0.2c0,0,0,0-0.1,0c-0.9,0.1-1.8,0.3-2.7,0.4
	c-0.1,0-0.3,0-0.4,0.1c-0.5,0.1-1,0.2-1.6,0.3c-0.4,0.1-0.8,0.1-1.2,0.2c-0.1,0-0.1,0-0.2,0c-0.3,0.1-0.6,0.1-0.9,0.2
	c-0.8,0.2-1.6,0.4-2.3,0.5c-1.6,0.3-3.2,0.7-4.7,1.1c-0.4,0.1-0.7,0.2-1.1,0.3c-1.6,0.4-3.2,0.9-4.9,1.4c-0.2,0.1-0.4,0.1-0.6,0.2
	c-0.8,0.3-1.7,0.6-2.5,0.8l0,0c-0.4,0.2-0.9,0.3-1.3,0.5c-0.5,0.2-1,0.4-1.5,0.5c-0.1,0-0.3,0.1-0.4,0.1c-0.2,0.1-0.5,0.2-0.7,0.3
	c-0.6,0.2-1.3,0.5-1.9,0.7c-0.4,0.1-0.7,0.3-1.1,0.5c-1,0.4-1.9,0.8-2.8,1.3c-2.4,1.1-4.7,2.2-7,3.4c-0.4,0.2-0.9,0.5-1.3,0.7
	c-0.6,0.3-1.2,0.6-1.7,0.9l0,0v0.1C185.9,150.7,181,154,176.4,157.5z M192.7,348.7c-2.8-1.7-5.4-3.5-8.1-5.4
	c-0.2-0.2-0.4-0.3-0.7-0.5s-0.5-0.4-0.8-0.6s-0.5-0.4-0.8-0.6c-0.1-0.1-0.2-0.2-0.3-0.2c-0.4-0.3-0.9-0.6-1.3-1
	c-0.4-0.3-0.7-0.6-1.1-0.9c-0.9-0.7-1.7-1.5-2.5-2.2c-1.9-1.7-3.8-3.4-5.6-5.3l-0.1-0.1c-1.2-1.2-2.4-2.5-3.6-3.8
	c-0.1-0.1-0.2-0.2-0.3-0.3c-0.5-0.5-1-1.1-1.5-1.6l0,0c-0.7-0.8-1.5-1.7-2.2-2.6c-0.3-0.4-0.6-0.7-0.9-1.1c-0.3-0.4-0.7-0.8-1-1.3
	c-0.1-0.1-0.2-0.2-0.3-0.3c-0.6-0.7-1.2-1.4-1.7-2.2c-0.7-0.9-1.3-1.9-1.9-2.8c-0.2-0.3-0.5-0.7-0.7-1c-0.9-1.3-1.7-2.6-2.5-3.9
	c-0.2-0.3-0.3-0.6-0.5-0.8c-0.8-1.3-1.6-2.6-2.3-3.9l0,0c-1.4-2.6-2.7-5.2-3.9-7.9l-9.7,0.2c1.7,4.1,3.6,8.2,5.7,12.1l0,0l0,0
	c0.8,1.4,1.6,2.8,2.4,4.1c0.2,0.3,0.4,0.7,0.6,1.1c0.9,1.4,1.8,2.8,2.7,4.2c0.3,0.4,0.5,0.8,0.8,1.2c1.4,2,2.8,4,4.4,6
	c0.6,0.7,1.1,1.5,1.7,2.2c0.1,0.1,0.2,0.2,0.3,0.3c0.3,0.4,0.7,0.8,1,1.2c0.3,0.3,0.6,0.7,0.9,1c0.6,0.7,1.2,1.4,1.8,2.1
	c0.1,0.1,0.2,0.2,0.3,0.3c0,0,0,0.1,0.1,0.1l0,0c1.2,1.4,2.5,2.7,3.8,4l0.1,0.1c1.3,1.3,2.5,2.5,3.9,3.8c0.8,0.8,1.7,1.5,2.5,2.2
	c0.3,0.3,0.7,0.6,1,0.9c0.4,0.3,0.8,0.7,1.2,1c0.1,0.1,0.2,0.2,0.3,0.3c0.7,0.6,1.5,1.2,2.2,1.7c0.5,0.4,1,0.7,1.5,1.1
	c0.3,0.2,0.6,0.4,0.9,0.6c3,2.3,6.2,4.4,9.4,6.4l0,0l0,0c5.4,3.2,11,6.1,16.9,8.5l0.2-9.7C200.9,353.2,196.7,351,192.7,348.7
	L192.7,348.7z M323,294.7l27.8,0.5c0-0.1,0.1-0.2,0.1-0.3c0.2-0.4,0.4-0.8,0.5-1.2c0.2-0.4,0.3-0.9,0.5-1.3c0.1-0.1,0.1-0.3,0.1-0.4
	c0.4-0.9,0.7-1.8,1-2.8l-40.1-0.7l0,0c-0.1,0-0.3,0.1-0.3,0.2c-0.1,0.1-0.1,0.3,0,0.4l38,63.4c0.2,0.3-0.1,0.6-0.3,0.6
	c-0.1,0-0.1,0-0.2-0.1l-63.4-38c-0.1,0-0.1-0.1-0.2-0.1c-0.2,0-0.4,0.2-0.4,0.4l0.7,40.1c1-0.3,1.9-0.7,2.8-1.1
	c0.1,0,0.2-0.1,0.3-0.1c0.4-0.2,0.9-0.3,1.3-0.5s0.8-0.4,1.2-0.5c0.1,0,0.2-0.1,0.3-0.1l-0.5-27.8l54.7,32.8c1,0.6,2.1,0.9,3.3,0.9
	c2.3,0,4.4-1.2,5.5-3.2s1.1-4.4-0.1-6.4L323,294.7z M178,211l-27.8-0.5c-0.1,0.2-0.2,0.4-0.3,0.6c-0.1,0.3-0.3,0.6-0.4,0.9
	c-0.2,0.4-0.3,0.9-0.5,1.3c-0.1,0.2-0.2,0.5-0.3,0.7c-0.3,0.8-0.6,1.6-0.9,2.4l40.1,0.7l0,0c0.1,0,0.3-0.1,0.3-0.2
	c0.1-0.1,0.1-0.3,0-0.4l-38-63.4c-0.1-0.1-0.1-0.3,0-0.4s0.2-0.2,0.3-0.2s0.1,0,0.2,0.1l63.4,38c0.1,0,0.1,0.1,0.2,0.1
	c0.2,0,0.4-0.2,0.4-0.4l-0.7-40.1c-0.9,0.3-1.9,0.7-2.8,1c-0.1,0-0.3,0.1-0.4,0.1c-0.4,0.2-0.9,0.3-1.3,0.5
	c-0.4,0.2-0.8,0.3-1.2,0.5c-0.1,0-0.2,0.1-0.3,0.1l0.5,27.8l-54.7-32.8c-1-0.6-2.1-0.9-3.3-0.9c-2.3,0-4.4,1.2-5.5,3.2
	s-1.1,4.4,0.1,6.4L178,211z M390,283.9l-17.6-9.8l0,0c-0.1,0.5-0.2,1.1-0.3,1.6c0,0.1,0,0.1,0,0.2c-0.1,0.4-0.1,0.8-0.2,1.1l0,0
	c-0.2,1.1-0.5,2.2-0.7,3.2l0,0l15.9,8.8c0.1,0,0.1,0.1,0.2,0.2c0,0.1,0,0.2,0,0.2c0,0.1-0.1,0.2-0.2,0.2s-0.1,0.1-0.2,0.1l0,0l0,0
	l-18.1-0.3h-0.1c-0.2,0.5-0.3,1-0.5,1.5s-0.3,1.1-0.5,1.6c-0.1,0.3-0.2,0.6-0.3,0.9c0,0.1-0.1,0.3-0.1,0.4c-0.2,0.5-0.4,1-0.6,1.5
	h0.1l20,0.3l0,0c3,0,5.5-2,6.3-4.8C393.8,288.2,392.5,285.3,390,283.9z M111,221.9l17.6,9.8l0,0c0.1-0.4,0.1-0.9,0.2-1.3
	c0-0.1,0-0.2,0-0.3c0.1-0.4,0.1-0.7,0.2-1.1c0-0.1,0-0.2,0.1-0.3c0.2-1.1,0.5-2.2,0.7-3.2l0,0l-15.9-8.8c-0.2-0.1-0.2-0.3-0.2-0.4
	c0-0.1,0.1-0.1,0.1-0.2c0.1-0.1,0.1-0.1,0.2-0.1l0,0l0,0l18.1,0.3l0,0c0.1-0.4,0.2-0.8,0.4-1.2c0.2-0.7,0.4-1.3,0.7-2
	c0-0.1,0.1-0.3,0.2-0.4c0.1-0.3,0.2-0.6,0.3-0.9c0.2-0.5,0.4-1,0.5-1.5h-0.1l-20-0.3l0,0c-3,0-5.5,2-6.3,4.8
	C107.2,217.5,108.5,220.5,111,221.9z M293.1,369.1c-0.5,0.2-1,0.4-1.5,0.6c-0.1,0-0.2,0.1-0.3,0.1c-0.3,0.1-0.6,0.2-1,0.4
	c-0.5,0.2-1.1,0.3-1.6,0.5s-1,0.3-1.6,0.5v0.1l0.3,18.1c0,0.2-0.2,0.4-0.4,0.4c-0.1,0-0.2-0.1-0.3-0.2l-8.8-15.9l0,0l0,0
	c-1.1,0.2-2.1,0.5-3.2,0.7l0,0c-0.4,0.1-0.7,0.1-1.1,0.2c-0.1,0-0.2,0-0.2,0c-0.5,0.1-1,0.2-1.6,0.3l0,0l9.8,17.6
	c1.1,2,3.2,3.3,5.6,3.3c1.7,0,3.4-0.7,4.5-1.9c1.2-1.2,1.8-2.8,1.8-4.6L293.1,369.1L293.1,369.1z M250.5,336.6l13.5,24.3l0,0
	c0.5-0.1,0.9-0.1,1.4-0.2c0.1,0,0.1,0,0.2,0c0.5-0.1,0.9-0.2,1.4-0.2c1.1-0.2,2.2-0.3,3.3-0.5l0,0l-19.5-35
	c-0.1-0.1-0.2-0.2-0.3-0.2s-0.3,0.1-0.3,0.2l-35.9,64.6c-0.1,0.1-0.2,0.2-0.3,0.2c-0.2,0-0.4-0.1-0.4-0.4l1.2-73.9
	c0-0.2-0.2-0.4-0.4-0.4c-0.1,0-0.1,0-0.2,0.1l-34.3,20.6l0,0c0.9,0.7,1.7,1.5,2.6,2.2c0.4,0.3,0.8,0.6,1.1,0.8
	c0.4,0.3,0.9,0.6,1.3,1l0,0l23.8-14.3l-1.1,63.8c0,1.7,0.6,3.3,1.8,4.6c1.2,1.2,2.8,1.9,4.5,1.9c2.3,0,4.4-1.3,5.6-3.3L250.5,336.6z
	 M323,211l14.3-23.8l0,0c-0.3-0.4-0.6-0.9-1-1.3c-0.3-0.4-0.6-0.7-0.9-1.1c-0.3-0.3-0.5-0.6-0.8-0.9c-0.1-0.2-0.3-0.3-0.4-0.5
	c-0.3-0.4-0.6-0.8-1-1.2l0,0l-20.6,34.3c-0.1,0.1-0.1,0.3,0,0.4c0.1,0.1,0.2,0.2,0.3,0.2l0,0l73.9-1.2l0,0l0,0c0.1,0,0.2,0,0.2,0.1
	c0.1,0.1,0.1,0.2,0.1,0.3c0,0,0,0,0,0.1s-0.1,0.2-0.2,0.3l-64.6,35.9c-0.3,0.1-0.3,0.5,0,0.7l35,19.5c0.2-1.1,0.4-2.2,0.5-3.3
	c0.1-0.5,0.2-0.9,0.2-1.4c0-0.1,0-0.1,0-0.2c0.1-0.5,0.1-0.9,0.2-1.4l0,0l-24-13.6l55.8-31c2.5-1.4,3.8-4.3,3.1-7.2
	c-0.7-2.8-3.3-4.8-6.2-4.8L323,211z M250.5,169.2L237,144.9l0,0c-0.5,0.1-0.9,0.1-1.4,0.2c-0.1,0-0.1,0-0.2,0
	c-0.5,0.1-0.9,0.2-1.4,0.2c-1.1,0.2-2.2,0.3-3.3,0.5l19.5,35c0.1,0.1,0.2,0.2,0.3,0.2s0.3-0.1,0.3-0.2l35.9-64.6
	c0.1-0.1,0.2-0.2,0.3-0.2c0.2,0,0.4,0.1,0.4,0.4l-1.2,73.9c0,0.1,0,0.2,0.1,0.3s0.2,0.1,0.3,0.1l0,0c0.1,0,0.1,0,0.2-0.1l34.3-20.6
	l0,0c-0.4-0.3-0.8-0.7-1.2-1c-0.2-0.1-0.3-0.3-0.5-0.4c-0.3-0.2-0.6-0.5-0.9-0.7c-0.4-0.3-0.7-0.6-1.1-0.9c-0.4-0.3-0.9-0.7-1.3-1
	l0,0l-23.8,14.3l1.1-63.8c0-1.7-0.6-3.3-1.8-4.6c-1.2-1.2-2.8-1.9-4.5-1.9c-2.3,0-4.4,1.3-5.6,3.3L250.5,169.2z M207.9,136.7
	c0.5-0.2,1-0.4,1.5-0.5c0.1,0,0.3-0.1,0.4-0.1c0.3-0.1,0.6-0.2,0.9-0.3c0.5-0.2,1.1-0.4,1.6-0.5c0.5-0.2,1-0.3,1.5-0.5v-0.1
	l-0.3-18.1c0-0.1,0-0.2,0.1-0.3c0.1-0.1,0.2-0.1,0.3-0.1s0.2,0.1,0.3,0.2l8.8,15.9l0,0c1.1-0.2,2.1-0.5,3.2-0.7l0,0
	c0.4-0.1,0.8-0.1,1.2-0.2c0.1,0,0.1,0,0.2,0c0.5-0.1,1-0.2,1.6-0.3l0,0l-9.8-17.6c-1.1-2-3.3-3.3-5.6-3.3c-1.7,0-3.4,0.7-4.5,1.9
	c-1.2,1.2-1.8,2.8-1.8,4.6L207.9,136.7L207.9,136.7z M178,294.7l-14.3,23.8l0,0c0.3,0.4,0.7,0.8,1,1.3c0.3,0.4,0.6,0.7,0.9,1.1
	c0.7,0.9,1.4,1.8,2.1,2.6l0,0l20.6-34.3c0.1-0.1,0.1-0.3,0-0.4s-0.2-0.2-0.3-0.2l0,0l-73.9,1.2l0,0l0,0c-0.1,0-0.2,0-0.2-0.1
	c-0.1-0.1-0.1-0.1-0.1-0.2c0-0.2,0-0.3,0.2-0.4l64.6-35.9c0.3-0.1,0.3-0.5,0-0.7l-35-19.5l0,0c0,0,0,0,0,0.1
	c-0.2,1.1-0.4,2.2-0.5,3.3c-0.1,0.5-0.2,0.9-0.2,1.4c0,0.1,0,0.3-0.1,0.4c-0.1,0.4-0.1,0.8-0.2,1.2l0,0l24.3,13.5l-55.9,31
	c-2.5,1.4-3.8,4.4-3.1,7.2c0.7,2.8,3.3,4.8,6.2,4.8L178,294.7z M168.9,345.9c-0.8-0.7-1.7-1.5-2.5-2.2l-15.6,9.3
	c-0.1,0-0.1,0.1-0.2,0.1c-0.3,0-0.5-0.3-0.3-0.6l9.4-15.6l0,0c-0.2-0.2-0.4-0.5-0.7-0.8c-0.1-0.1-0.2-0.2-0.3-0.4
	c-0.4-0.5-0.8-0.9-1.2-1.4c-0.3-0.3-0.6-0.7-0.9-1c-0.3-0.4-0.7-0.8-1-1.2l-10.3,17.2c-1.2,2-1.2,4.4-0.1,6.4c1.1,2,3.3,3.2,5.5,3.2
	c1.2,0,2.3-0.3,3.3-0.9l17.2-10.3c-0.4-0.3-0.8-0.7-1.2-1C169.6,346.5,169.3,346.2,168.9,345.9z M332.1,159.8
	c0.8,0.7,1.6,1.5,2.4,2.3l15.6-9.4c0.1,0,0.1-0.1,0.2-0.1l0,0c0.3,0,0.5,0.3,0.3,0.6l-9.4,15.6c0.8,0.8,1.5,1.6,2.3,2.4
	c0.3,0.3,0.6,0.7,0.9,1.1c0.3,0.4,0.7,0.8,1,1.2l10.3-17.3c1.2-2,1.2-4.4,0.1-6.4s-3.3-3.2-5.5-3.2c-1.2,0-2.3,0.3-3.3,0.9
	l-17.2,10.4c0.4,0.3,0.8,0.7,1.2,1C331.4,159.2,331.8,159.5,332.1,159.8z M290.1,252.9c0,21.9-17.8,39.6-39.6,39.6
	s-39.6-17.8-39.6-39.6c0-21.9,17.8-39.6,39.6-39.6S290.1,231,290.1,252.9z M281,252.9c0-16.8-13.7-30.5-30.5-30.5S220,236,220,252.9
	c0,16.8,13.7,30.5,30.5,30.5S281,269.7,281,252.9z M137.7,209.7c0,0.1-0.1,0.2-0.1,0.2c0,0.1-0.1,0.3-0.1,0.4
	c-0.2,0.5-0.4,1-0.5,1.5c-0.2,0.4-0.3,0.9-0.5,1.3c-0.1,0.1-0.1,0.3-0.2,0.4c-0.3,0.8-0.6,1.6-0.8,2.4c0,0.1-0.1,0.2-0.1,0.3
	c-1.1,3.5-2,7.1-2.8,10.7c-0.2,0.9-0.4,1.7-0.6,2.6c0,0.2-0.1,0.4-0.1,0.7c0,0.2-0.1,0.4-0.1,0.7c0,0.2-0.1,0.5-0.1,0.7
	c-0.1,0.5-0.2,1-0.3,1.6c0,0.1,0,0.3-0.1,0.4c-0.1,0.9-0.3,1.8-0.4,2.7c0,0.1,0,0.2,0,0.3c-0.1,0.6-0.2,1.3-0.2,1.9
	c-0.2,1.8-0.4,3.6-0.5,5.4c0,0.6-0.1,1.3-0.1,1.9c-0.1,2.4-0.2,4.7-0.2,7.1c0,5.6,0.4,11.1,1.2,16.5l8.5-4.7
	c-0.4-3.9-0.6-7.8-0.6-11.8c0-2.2,0.1-4.4,0.2-6.6c0-0.6,0.1-1.2,0.1-1.8c0.1-1.2,0.2-2.3,0.3-3.5c0.1-0.5,0.1-1,0.1-1.5
	c0.1-0.4,0.1-0.9,0.2-1.3c0-0.1,0-0.3,0.1-0.4l0,0c0.1-0.5,0.2-1,0.2-1.5c0.1-0.5,0.1-0.9,0.2-1.4c0.1-0.8,0.2-1.5,0.4-2.3
	c0.1-0.3,0.1-0.7,0.2-1c0-0.1,0-0.2,0.1-0.3c0.4-2.2,0.9-4.4,1.5-6.5v-0.1c0.5-2,1.1-4,1.7-5.9c0.2-0.8,0.5-1.5,0.8-2.3l0,0
	c0.4-1.1,0.8-2.1,1.1-3.2c0-0.1,0.1-0.2,0.1-0.3c0.1-0.3,0.2-0.7,0.4-1c0.2-0.5,0.4-1,0.6-1.5c0.1-0.1,0.1-0.3,0.2-0.4
	c0,0,0,0,0-0.1c0.3-0.8,0.7-1.6,1.1-2.4v-0.1c1.4-3.1,2.8-6.1,4.4-9h0.1c2.2-4,4.7-7.8,7.4-11.5l-5-8.3c-3.8,4.9-7.2,10-10.2,15.4
	l0,0h-0.1c-1.8,3.2-3.3,6.4-4.8,9.8c-0.4,0.9-0.8,1.8-1.2,2.7c-0.1,0.2-0.2,0.5-0.3,0.7C138.3,208.1,138,208.9,137.7,209.7z
	 M310.1,357.9c5.1-2.9,9.9-6.1,14.5-9.7l-8.3-5c-3.4,2.5-6.9,4.8-10.6,6.9v0.1c-0.6,0.3-1.2,0.6-1.7,0.9c-0.4,0.2-0.7,0.4-1.1,0.6
	c-2.3,1.2-4.6,2.3-6.9,3.4c-0.1,0-0.1,0.1-0.2,0.1c-0.7,0.3-1.4,0.7-2.1,1c-0.1,0.1-0.3,0.1-0.4,0.2s-0.3,0.1-0.4,0.2
	c-0.5,0.2-1,0.4-1.5,0.6c-0.2,0.1-0.4,0.1-0.5,0.2c-0.2,0.1-0.5,0.2-0.7,0.3c-0.9,0.3-1.8,0.7-2.7,1c-0.1,0.1-0.3,0.1-0.4,0.2
	c-0.7,0.2-1.3,0.4-2,0.7c-1.6,0.5-3.3,1-4.9,1.5c-0.4,0.1-0.8,0.2-1.2,0.3c-2.2,0.6-4.3,1.1-6.5,1.5c-0.2,0-0.3,0.1-0.5,0.1l0,0
	c-0.2,0-0.4,0.1-0.6,0.1c-0.9,0.2-1.9,0.3-2.8,0.5c-0.5,0.1-0.9,0.2-1.4,0.2c-0.4,0.1-0.9,0.2-1.3,0.2c-0.1,0-0.2,0-0.2,0
	c-0.1,0-0.3,0-0.4,0.1c-0.4,0.1-0.8,0.1-1.2,0.1c-0.6,0.1-1.1,0.1-1.7,0.2c-1.1,0.1-2.2,0.2-3.3,0.3c-0.6,0-1.2,0.1-1.8,0.1
	c-2.2,0.1-4.4,0.2-6.7,0.2c-4,0-7.9-0.2-11.8-0.6l-4.7,8.5c5.4,0.7,10.9,1.2,16.5,1.2c2.4,0,4.8-0.1,7.2-0.2c0.6,0,1.3-0.1,1.9-0.1
	c1.8-0.1,3.6-0.3,5.4-0.5c0.6-0.1,1.3-0.2,1.9-0.2l0,0c0.9-0.1,1.8-0.3,2.7-0.4c0.1,0,0.3,0,0.4-0.1c0.5-0.1,1-0.2,1.6-0.3
	c0.4-0.1,0.8-0.1,1.2-0.2h0.1c0.3-0.1,0.6-0.1,1-0.2c0.8-0.2,1.5-0.4,2.3-0.5l0,0c1.6-0.4,3.2-0.7,4.8-1.1c0.4-0.1,0.8-0.2,1.2-0.3
	c1.6-0.4,3.2-0.9,4.8-1.4c0.2-0.1,0.5-0.1,0.7-0.2c0.8-0.3,1.6-0.6,2.5-0.8l0,0c0.4-0.2,0.9-0.3,1.3-0.5c0.5-0.2,1-0.4,1.5-0.6
	c0.1,0,0.3-0.1,0.4-0.1c0.3-0.1,0.5-0.2,0.8-0.3c0.6-0.2,1.2-0.4,1.8-0.7c0.4-0.2,0.7-0.3,1.1-0.5c1-0.4,2-0.9,3-1.3
	c2.3-1,4.5-2.1,6.7-3.3c0.5-0.3,1-0.5,1.6-0.8C309,358.6,309.6,358.3,310.1,357.9L310.1,357.9L310.1,357.9z M363.2,296.5
	c0.1-0.2,0.2-0.4,0.2-0.7c0-0.1,0.1-0.3,0.1-0.4c0.2-0.5,0.4-1,0.5-1.5c0.2-0.4,0.3-0.9,0.5-1.3l0,0c0.3-0.8,0.6-1.7,0.9-2.5
	c0.1-0.2,0.1-0.4,0.2-0.6c0.5-1.6,1-3.2,1.4-4.8c0.1-0.4,0.2-0.7,0.3-1.1c0.4-1.6,0.7-3.2,1.1-4.8c0.2-0.8,0.4-1.5,0.5-2.3
	c0.1-0.3,0.1-0.6,0.2-0.9c0-0.1,0-0.1,0-0.2c0.1-0.4,0.1-0.8,0.2-1.2c0.1-0.5,0.2-1,0.3-1.6c0-0.1,0-0.3,0.1-0.4
	c0.1-0.9,0.3-1.8,0.4-2.7c0,0,0,0,0-0.1c0.1-0.6,0.2-1.3,0.2-1.9c0.2-1.8,0.4-3.6,0.5-5.4c0-0.6,0.1-1.3,0.1-1.9
	c0.1-2.4,0.2-4.8,0.2-7.2c0-5.6-0.4-11.1-1.2-16.5l-8.5,4.7c0.4,3.9,0.6,7.8,0.6,11.8c0,2.2-0.1,4.4-0.2,6.7c0,0.6-0.1,1.2-0.1,1.8
	c-0.1,1.1-0.2,2.2-0.3,3.4c-0.1,0.5-0.1,1.1-0.2,1.6c0,0.4-0.1,0.8-0.1,1.2c0,0.1,0,0.3-0.1,0.4c0,0.1,0,0.1,0,0.2
	c-0.1,0.5-0.2,0.9-0.2,1.4c-0.1,0.5-0.1,0.9-0.2,1.4c-0.1,0.9-0.3,1.8-0.4,2.7c0,0.2-0.1,0.4-0.1,0.6s-0.1,0.3-0.1,0.5
	c-0.4,2.2-0.9,4.4-1.5,6.5c-0.1,0.4-0.2,0.8-0.3,1.2c-0.5,1.7-0.9,3.3-1.5,4.9c-0.2,0.7-0.4,1.3-0.7,2c0,0.1-0.1,0.3-0.2,0.4
	c-0.3,0.9-0.7,1.8-1,2.8c-0.1,0.2-0.2,0.5-0.3,0.7c-0.1,0.2-0.1,0.4-0.2,0.6c-0.2,0.5-0.4,1-0.6,1.5c-0.1,0.1-0.1,0.3-0.2,0.4
	s-0.1,0.3-0.2,0.4c-0.3,0.7-0.6,1.5-1,2.2c0,0.1,0,0.1-0.1,0.2c-1,2.3-2.2,4.6-3.3,6.9c-0.2,0.4-0.4,0.7-0.6,1.1
	c-0.3,0.5-0.6,1.1-0.9,1.6h-0.1c-2.1,3.7-4.4,7.3-6.9,10.7l5,8.3c3.6-4.6,6.8-9.5,9.8-14.6l0,0h0.1c0.3-0.6,0.6-1.2,0.9-1.8
	c0.2-0.4,0.4-0.9,0.7-1.3c1.2-2.3,2.4-4.7,3.5-7.1c0.4-0.9,0.8-1.8,1.2-2.8c0.2-0.4,0.3-0.7,0.5-1.1
	C362.7,297.7,362.9,297.1,363.2,296.5z M131.7,172.8c-3.9,0-7.1,3.2-7.1,7.1c0,3.9,3.2,7.1,7.1,7.1c3.9,0,7.1-3.2,7.1-7.1
	C138.8,176,135.6,172.8,131.7,172.8z M369.3,310c-3.9,0-7.1,3.2-7.1,7.1s3.2,7.1,7.1,7.1s7.1-3.2,7.1-7.1
	C376.3,313.2,373.2,310,369.3,310z M125.6,313.5c-1.9,3.4-0.8,7.7,2.6,9.6c3.4,1.9,7.7,0.8,9.6-2.6c1.9-3.4,0.8-7.7-2.6-9.6
	S127.6,310.2,125.6,313.5z M363.2,176.4c-1.9,3.4-0.8,7.7,2.6,9.6c3.4,1.9,7.7,0.8,9.6-2.6c1.9-3.4,0.8-7.7-2.6-9.6
	C369.4,171.8,365.1,173,363.2,176.4z M174.9,367.3c0,3.9,3.2,7.1,7.1,7.1s7.1-3.2,7.1-7.1s-3.2-7.1-7.1-7.1S174.9,363.4,174.9,367.3
	z M312,129.7c0,3.9,3.2,7.1,7.1,7.1s7.1-3.2,7.1-7.1s-3.2-7.1-7.1-7.1S312,125.8,312,129.7z M109.8,242.4c-3.4,1.9-4.5,6.3-2.6,9.6
	c1.9,3.4,6.3,4.5,9.6,2.6c3.3-1.9,4.5-6.3,2.6-9.6C117.5,241.6,113.2,240.4,109.8,242.4z M384.1,242.4c-3.4,1.9-4.5,6.3-2.6,9.6
	s6.3,4.5,9.6,2.6c3.4-1.9,4.5-6.3,2.6-9.6C391.8,241.6,387.5,240.4,384.1,242.4z M244.4,389.2c1.9,3.4,6.3,4.5,9.6,2.6
	c3.4-1.9,4.5-6.3,2.6-9.6c-1.9-3.4-6.3-4.5-9.6-2.6S242.4,385.8,244.4,389.2z M244.4,114.8c1.9,3.4,6.3,4.5,9.6,2.6
	c3.4-1.9,4.5-6.3,2.6-9.6c-1.9-3.4-6.3-4.5-9.6-2.6C243.6,107.1,242.4,111.5,244.4,114.8z M315.6,373.4c3.4,1.9,7.7,0.8,9.6-2.6
	s0.8-7.7-2.6-9.6s-7.7-0.8-9.6,2.6C311,367.1,312.2,371.4,315.6,373.4z M178.4,135.8c3.4,1.9,7.7,0.8,9.6-2.6
	c1.9-3.4,0.8-7.7-2.6-9.6c-3.4-1.9-7.7-0.8-9.6,2.6C173.9,129.5,175,133.8,178.4,135.8z"/>
</svg>
