<?xml version="1.0" encoding="utf-8"?>
<!-- Generator: Adobe Illustrator 19.0.0, SVG Export Plug-In . SVG Version: 6.00 Build 0)  -->
<svg version="1.2" baseProfile="tiny" id="Layer_1" xmlns="http://www.w3.org/2000/svg" xmlns:xlink="http://www.w3.org/1999/xlink"
	 x="0px" y="0px" viewBox="75 75 350 350" xml:space="preserve">
<path id="XMLID_987_" fill="#231F20" d="M120.3,216.1c-3.5-13-1.7-26.6,5-38.3s17.6-20,30.7-23.5c12.9-3.5,26.3-1.7,37.9,4.8
	c0.5,5.9,2.5,13,5.4,20.7c-4-4.7-7.8-8.3-11-10.2c-6.1-3.5-12.7-5.2-19.2-5.2c-13.3,0-26.3,6.9-33.4,19.3
	c-5.1,8.9-6.5,19.3-3.8,29.2s9,18.3,18,23.4c3.2,1.9,8.2,3.3,14.3,4.4c7.6,1.4,16.9,2.3,26.7,2.9c0,0.1,0,0.2,0,0.4
	c-0.2,1.9-0.3,3.7-0.3,5.6c0,2,0.1,4,0.3,6c-14.9-0.9-29.5-2.6-39.5-5.8c-2.8-0.9-5.4-1.9-7.4-3.1c-0.1-0.1-0.3-0.2-0.4-0.2
	C131.9,239.8,123.7,229,120.3,216.1z M380.1,283.7c3.5,13,1.7,26.6-5,38.3c-9.3,16.2-26.3,25.2-43.8,25.2c-8.4,0-16.9-2.1-24.8-6.5
	c-0.5-5.9-2.5-13-5.4-20.8c4,4.7,7.8,8.3,11,10.2c18.4,10.6,42,4.3,52.6-14.1c5.1-8.9,6.5-19.3,3.8-29.2s-9-18.3-18-23.4
	c-3.2-1.9-8.2-3.3-14.3-4.4c-5.9-1.1-12.9-1.9-20.3-2.4c-2-0.1-4-0.3-6-0.4h-0.1c-0.7,0-1.5-0.1-2.2-0.1V256c-0.4,0-0.9,0.1-1.3,0.1
	c-0.3,0-0.6,0-1,0l-4.9-0.2l-2.4-0.1h-0.1l-4.6-0.2c-0.5,0-0.9,0-1.4,0c-0.3,0-0.6,0-0.9,0c-0.8,0-1.5,0-2.3,0
	c-5.8-0.1-11.5-0.1-16.7,0c-0.1,0.4-0.2,0.7-0.3,1.1c-0.4,1.3-0.8,2.5-1.4,3.6c-0.4,0.8-0.8,1.6-1.3,2.4c-0.9,1.4-2,2.8-3.1,3.9
	c2.4,4.2,4.9,8.6,7.6,13.2c0.2,0.3,0.4,0.7,0.6,1c-2.5,2-5.3,3.6-8.2,4.9c-0.4,0.2-0.9,0.4-1.3,0.5c0,0,0-0.1-0.1-0.1
	c-1.5-2.6-2.9-5.2-4.4-7.7c-1.2-2.1-2.4-4.1-3.6-6.1c-1.7,0.6-3.5,0.9-5.4,1c-0.3,0-0.6,0-0.9,0c-0.1,0-0.2,0-0.4,0
	c-0.1,0-0.3,0-0.4,0c-0.1,0-0.3,0-0.4,0c-1.6,0-3.1-0.2-4.5-0.5c-0.3,0.5-0.6,1-0.9,1.5l-5.4,9l-1.8,3l-1.2,2l-0.1,0.2l-1.1,1.8
	l-5.1,8.5l-1.1,1.8c-0.2,0.3-0.4,0.7-0.7,1c-0.2,0.3-0.4,0.6-0.6,0.8c-0.3,0.4-0.6,0.9-0.9,1.3c-0.1,0.2-0.2,0.4-0.4,0.5
	c-8.2,12.5-17,24.3-24.9,31.5c-2.2,2-4.4,3.6-6.4,4.8c-0.1,0.1-0.3,0.1-0.4,0.2c-7.7,4.3-16.2,6.6-24.8,6.6c-4.4,0-8.8-0.6-13.1-1.7
	c-13-3.5-23.9-11.8-30.7-23.5c-6.7-11.7-8.5-25.3-5-38.3c3.5-12.9,11.7-23.7,23.2-30.4c5.3,2.5,12.5,4.3,20.7,5.7
	c-6.1,1.1-11.1,2.6-14.4,4.4c-8.9,5.1-15.3,13.5-18,23.4s-1.3,20.3,3.8,29.2c10.6,18.4,34.2,24.7,52.6,14.1c3.2-1.9,7-5.5,11-10.2
	c5-5.9,10.5-13.6,15.9-21.8c0.3-0.4,0.5-0.8,0.8-1.2c0.1-0.2,0.3-0.5,0.4-0.7c0.2-0.2,0.3-0.5,0.5-0.7l0.8-1.2
	c0.5-0.8,1.1-1.7,1.6-2.5c1.6-2.5,3.1-5.1,4.7-7.7c0.4-0.6,0.8-1.3,1.2-1.9c0.2-0.3,0.3-0.5,0.5-0.8c0.2-0.4,0.4-0.8,0.7-1.1
	c0.8-1.4,1.6-2.7,2.4-4.1c1.9-3.2,3.6-6.2,5.3-9.2c-0.3-0.2-0.6-0.5-0.8-0.7c-1.2-1.2-2.2-2.5-3.1-3.9c0-0.1-0.1-0.1-0.1-0.2
	c-0.2-0.3-0.4-0.6-0.5-0.8c0-0.1-0.1-0.1-0.1-0.2c-0.8-1.5-1.5-3.1-2-4.7c-0.1-0.4-0.2-0.7-0.3-1.1c-2.1,0-4.3,0-6.5,0v0.1h-2.4h-6
	h-0.3c-0.3-1.8-0.5-3.7-0.5-5.6c0-1.8,0.2-3.5,0.4-5.2h0.3h6c3.1,0,6.1,0,9,0c0.1-0.4,0.2-0.7,0.3-1.1c0.5-1.7,1.1-3.2,2-4.7
	c0-0.1,0.1-0.1,0.1-0.2c0.2-0.3,0.3-0.6,0.5-0.8c0-0.1,0.1-0.1,0.1-0.2c0.9-1.4,2-2.7,3.1-3.9c0.3-0.3,0.5-0.5,0.8-0.7
	c-1.7-3.1-3.5-6.2-5.4-9.5c-0.8-1.3-1.6-2.7-2.4-4.1c-0.2-0.4-0.5-0.8-0.7-1.2c-0.2-0.3-0.3-0.5-0.5-0.8c-0.4-0.6-0.8-1.3-1.2-1.9
	c-1.6-2.6-3.1-5.1-4.7-7.7c-0.5-0.8-1.1-1.7-1.6-2.5c-0.2-0.3-0.4-0.6-0.6-0.9c-0.2-0.3-0.3-0.7-0.5-1c-0.1-0.3-0.3-0.5-0.4-0.8
	c-0.2-0.4-0.4-0.8-0.6-1.3c-6.7-13.3-12.5-26.7-14.7-37.1c-0.6-2.9-1-5.6-1-8c0-0.2,0-0.3,0-0.5c0.2-27.6,22.8-50,50.5-50
	c27.7,0,50.2,22.4,50.5,50c-4.8,3.4-10,8.7-15.3,15.1c2.1-5.9,3.4-11,3.4-14.7c0-21.3-17.3-38.5-38.5-38.5s-38.5,17.3-38.5,38.5
	c0,3.7,1.3,8.8,3.4,14.7c2.6,7.2,6.4,15.6,10.7,24.3c0.1,0.2,0.2,0.4,0.3,0.5c0.2,0.5,0.5,1,0.7,1.5c0.2,0.4,0.4,0.8,0.6,1.2
	c0.1,0.3,0.3,0.5,0.4,0.8c0.3,0.6,0.6,1.2,1,1.9c1.5,2.9,3.1,5.8,4.7,8.7c0.3,0.6,0.7,1.2,1,1.8l0.1,0.1c0.4,0.7,0.7,1.3,1.1,2
	c0.6,1,1.2,2.1,1.7,3.1c2.1,3.7,4.2,7.3,6.2,10.8c0.4-0.1,0.7-0.2,1.1-0.3c1.5-0.3,3-0.5,4.5-0.5c0.1,0,0.3,0,0.4,0
	c0.1,0,0.3,0,0.4,0c0.1,0,0.2,0,0.4,0c0.3,0,0.6,0,0.9,0c1.5,0.1,2.9,0.4,4.3,0.7c0.3,0.1,0.7,0.2,1,0.3c2.1-3.7,5.1-8.9,8.2-14.2
	c3.4,1.4,6.6,3.2,9.5,5.5c0.1,0.1,0.2,0.1,0.3,0.2c-3.3,5.4-6.4,10.6-8.6,14.3c0.2,0.2,0.5,0.5,0.7,0.8c0.9,1,1.7,2,2.4,3.1
	c0.5,0.8,0.9,1.5,1.3,2.3c0.6,1.2,1,2.4,1.4,3.6c5.2-0.1,10.9-0.1,16.9,0c0.8,0,1.5,0,2.3,0c0.3,0,0.6,0,0.9,0c0.5,0,0.9,0,1.4,0
	l4.7,0.2l7.5,0.3c0.3,0,0.6,0,1,0s0.9,0,1.3,0.1c0.7,0,1.5,0.1,2.2,0.1c0.1,0,0.1,0,0.2,0c2,0.1,4,0.3,6,0.4
	c12.6,1,24.5,2.6,33.1,5.4c2.9,0.9,5.4,2,7.4,3.1c0.1,0.1,0.2,0.2,0.4,0.2C368.5,260,376.7,270.8,380.1,283.7z M251,261
	c3.3-0.4,6.2-2.2,8-4.9c0.2-0.3,0.3-0.5,0.4-0.8c0-0.1,0.1-0.1,0.1-0.2c0.1-0.3,0.3-0.5,0.5-0.8c0.6-1.4,0.9-2.9,0.9-4.4
	c0-1.6-0.3-3.1-0.9-4.4c-0.1-0.3-0.3-0.6-0.5-0.8c0-0.1-0.1-0.1-0.1-0.2c-0.1-0.3-0.3-0.6-0.4-0.8c-1.8-2.7-4.7-4.5-8-4.9
	c-0.5-0.1-0.9-0.1-1.4-0.1h-0.1c-3.9,0-7.3,2-9.3,5c0,0.1-0.1,0.1-0.1,0.2c-0.1,0.1-0.1,0.3-0.2,0.4c0,0.1-0.1,0.1-0.1,0.2
	c-0.9,1.6-1.5,3.5-1.5,5.5s0.6,3.9,1.5,5.5c0,0.1,0.1,0.1,0.1,0.2c0.1,0.1,0.1,0.3,0.2,0.4c0,0.1,0.1,0.1,0.1,0.2c2,3,5.4,5,9.3,5
	h0.1C250.1,261.2,250.5,261.1,251,261z M286.8,302.1l-1.9-3.5c-3.1,2.2-6.5,4.1-10,5.7c-0.1,0.1-0.2,0.1-0.3,0.2
	c-0.1,0-0.2,0.1-0.3,0.1l1.6,2.7l0.7,1.2c3.6,7.3,6.7,14.3,8.9,20.5c2.1,5.9,3.4,11,3.4,14.7c0,21.3-17.3,38.5-38.5,38.5
	s-38.5-17.3-38.5-38.5c0-3.7,1.3-8.8,3.4-14.7c-5.3,6.4-10.5,11.7-15.3,15.1c0.2,27.6,22.8,50,50.5,50s50.2-22.4,50.5-50
	c0-0.2,0-0.3,0-0.5c0-2.4-0.4-5-1-8C297.7,326.2,292.7,314.2,286.8,302.1z M276.9,192.5c-0.4,0.7-1,1.7-1.6,2.9
	c3.6,1.7,7.1,3.7,10.3,6.1c0.9-1.4,1.6-2.6,2.1-3.5c4.6-6.8,9.1-13,13.4-18c4-4.7,7.8-8.3,11-10.2c18.4-10.6,42-4.3,52.6,14.1
	c5.1,8.9,6.5,19.3,3.8,29.2s-9,18.3-18,23.4c-3.2,1.9-8.2,3.3-14.3,4.4c8.2,1.4,15.3,3.2,20.7,5.7c11.5-6.8,19.7-17.5,23.1-30.4
	c3.5-13,1.7-26.6-5-38.3c-13.8-24-44.5-32.3-68.6-18.7c-0.1,0.1-0.3,0.1-0.4,0.2c-2,1.2-4.2,2.8-6.4,4.8
	C292.5,170.7,284.5,181.1,276.9,192.5z M283.2,205.2c-3.2-2.3-6.5-4.4-10.2-6c-6.9-3.1-14.6-4.9-22.7-4.9c-5.8,0-11.5,0.9-16.8,2.6
	c-0.1,0-0.1,0-0.2,0.1c-0.5,0.2-1.1,0.4-1.6,0.6l0.9,1.6l4.9,9c4-1.2,8.3-2,12.7-2c3.4,0,6.8,0.4,10,1.2c0.3,0.1,0.7,0.2,1,0.3
	c1.7,0.4,3.3,1,4.9,1.6c0.3,0.1,0.6,0.2,0.8,0.3h0.1c3.6,1.5,6.9,3.5,9.9,5.8c0.1,0.1,0.3,0.2,0.4,0.3c1.4,1.1,2.6,2.2,3.9,3.4
	c0.2,0.2,0.4,0.5,0.7,0.7c5,5.3,8.7,11.9,10.5,19.2h5.7h2.2h4.3C302,225.3,294.1,213.3,283.2,205.2z M272,300.7
	c3.8-1.6,7.4-3.7,10.8-6.2c11.2-8.1,19.2-20.4,21.9-34.5h-5.5h-6.7c-1.8,7.5-5.6,14.2-10.7,19.6c-0.2,0.2-0.4,0.5-0.7,0.8
	c-1.2,1.2-2.6,2.4-3.9,3.5c-3.1,2.5-6.6,4.5-10.3,6c-0.3,0.1-0.6,0.2-0.9,0.3h-0.1c-4.8,1.9-10.1,2.9-15.6,2.9
	c-3.8,0-7.5-0.6-11.1-1.5l-5.4,9.1l-0.9,1.6c0.2,0.1,0.4,0.1,0.6,0.2c5.3,1.7,10.9,2.6,16.8,2.6C258,305.1,265.4,303.6,272,300.7z
	 M220.1,218.5l-4.6-7.4l-1.8-2.9c-0.3,0.3-0.6,0.5-0.9,0.8l-0.1,0.1c-8.1,7.5-14,17.4-16.5,28.6c0,0.1,0,0.1-0.1,0.2
	c-0.4,1.9-0.7,3.9-1,5.8v0.1c-0.2,1.9-0.3,3.8-0.3,5.8c0,2.1,0.1,4.1,0.4,6.1v0.1c0.2,2,0.6,3.9,1,5.8c0,0.1,0,0.1,0.1,0.2
	c2.5,11.1,8.4,20.9,16.5,28.4c0.1,0,0.1,0.1,0.2,0.1c0.6-1,1.2-1.9,1.9-2.9c1.5-2.4,3-4.9,4.5-7.4c-6.5-6.6-10.9-15.2-12.1-24.8
	c-0.2-1.9-0.4-3.7-0.4-5.6c0-1.8,0.1-3.5,0.3-5.2C208.5,234.3,213.2,225.3,220.1,218.5z"/>
</svg>
