<?xml version="1.0" encoding="utf-8"?>
<!-- Generator: Adobe Illustrator 19.0.0, SVG Export Plug-In . SVG Version: 6.00 Build 0)  -->
<svg version="1.2" baseProfile="tiny" id="Layer_1" xmlns="http://www.w3.org/2000/svg" xmlns:xlink="http://www.w3.org/1999/xlink"
	 x="0px" y="0px" viewBox="-74 76 350 350" xml:space="preserve">
<path id="XMLID_1304_" fill="#231F20" d="M87.2,245c0.2,0.1,0.5,0.1,0.7,0.2c0.6,0.7,1.2,1.5,1.8,2.3c0.9,1.1,1.7,2.3,2.6,3.5
	c-0.8,1.2-1.7,2.3-2.6,3.5c-4.6-0.7-9-1.9-13.2-3.5c-1.3-0.5-2.6-1-3.9-1.6c-11.9-5.2-22.1-13.7-29.5-24.3c0.1,0,0.3,0,0.4,0
	c3.9,0,7.9,0.4,11.8,1.2C63.7,235.5,74.7,242.2,87.2,245z M148.4,145c3.5-0.5,7-0.7,10.5-0.7c-10.6-15.2-27.1-26-46.2-29.2
	c0,1.1-0.4,4.3-0.9,8.7C126.4,126.4,139.2,134.1,148.4,145z M53.7,357c-3.3,0.5-6.6,0.7-9.9,0.7c-0.2,0-0.4,0-0.6,0
	c10.6,15.2,27.1,26,46.1,29.2c0-1.1,0.4-4.3,0.9-8.7C75.6,375.6,62.8,367.9,53.7,357z M109.7,251c0.8,1.2,1.7,2.3,2.6,3.5
	c0.6,0.8,1.2,1.6,1.8,2.3c0.2,0.1,0.5,0.1,0.7,0.2c12.5,2.9,23.5,9.5,31.8,18.6c4.1,0.8,8.2,1.2,12.2,1.2
	c-7.4-10.5-17.6-19-29.5-24.2c-1.3-0.6-2.6-1.1-3.9-1.6c-4.2-1.6-8.7-2.7-13.2-3.5C111.3,248.7,110.5,249.8,109.7,251z M35.1,159.6
	c-3,7.8-4.7,16.3-4.7,25.2c0,9.3,1.8,18.1,5.1,26.3c3.1-0.3,6.2-0.5,9.4-0.5c-3.6-7.9-5.7-16.6-5.7-25.8s2.1-18,5.7-25.8
	c0.4-1,0.9-1.9,1.4-2.9c1.5-2.9,3.4-5.7,5.3-8.4c0.7-0.9,1.4-1.8,2.1-2.7c9.2-10.9,22-18.6,36.6-21.2c-0.6-4.4-0.9-7.6-0.9-8.7
	c-19,3.2-35.5,14-46.1,29.2c-0.7,1-1.3,2-2,3c-1.8,2.9-3.5,6-4.8,9.1C35.9,157.5,35.5,158.5,35.1,159.6z M46.3,288.4
	c1.7-3.3,3.8-6.4,6.1-9.3c1-1.2,2-2.4,3-3.5c8.3-9.1,19.4-15.8,31.8-18.6c-5.1-1-9.9-2.4-14.6-4.4c-11.9,5.2-22.1,13.7-29.5,24.2
	c-0.7,1-1.3,1.9-1.9,2.9c-1.7,2.7-3.2,5.5-4.5,8.4c-0.4,0.9-0.8,1.9-1.2,2.8c-3.3,8.1-5.1,17-5.1,26.3c0,8.9,1.7,17.3,4.7,25.2
	c3.3,0.5,6.5,0.7,9.8,0.6c-3.6-7.9-5.7-16.6-5.7-25.8c0-9.2,2.1-18,5.7-25.8C45.3,290.4,45.8,289.4,46.3,288.4z M27.6,158.1
	c1.8-0.5,3.5-0.8,5.3-1.2c1.3-3.3,2.9-6.4,4.7-9.4c-4.1,0.4-8.2,1.1-12.3,2.1c-14.4,3.9-26.8,12-36.1,23.3c0.9,0.6,3.5,2.5,7,5.2
	C4.4,168.4,15.2,161.4,27.6,158.1z M85.4,274.8c1.1-0.8,2.2-1.7,3.3-2.6c3.5-2.9,6.7-6.2,9.6-9.7c-0.5-1.3-1.1-2.6-1.7-3.9
	c-0.1-0.1-0.1-0.2-0.2-0.4c-0.4-0.8-0.8-1.7-1.3-2.5c-0.1-0.2-0.2-0.4-0.3-0.6c-0.1-0.1-0.1-0.3-0.2-0.4c-0.1-0.1-0.2-0.3-0.3-0.4
	c-0.1-0.2-0.2-0.3-0.3-0.5c-0.3,0.4-0.6,0.8-0.9,1.2c-0.3,0.4-0.6,0.8-0.9,1.1c-0.4,0.5-0.8,1-1.2,1.5c-0.5,0.6-1,1.2-1.6,1.8
	c-0.2,0.2-0.3,0.3-0.5,0.5c-7.8,8.5-17.9,14.6-29.3,17.7c-0.9,0.2-1.8,0.4-2.7,0.6c-2.7,3.1-5.1,6.4-7.2,10c4.1-0.4,8.1-1,12.2-2.1
	C70.5,283.8,78.5,279.9,85.4,274.8z M166.5,211c3.3-8.1,5.1-17,5.1-26.3c0-8.9-1.7-17.3-4.6-25.2c-2.9-0.4-5.8-0.7-8.7-0.7
	c-0.4,0-0.7,0-1.1,0c3.6,7.9,5.7,16.6,5.7,25.8s-2.1,17.9-5.7,25.8c-0.5,1-0.9,2-1.4,3c-1.7,3.3-3.8,6.4-6.1,9.3
	c-0.9,1.2-1.9,2.3-2.9,3.5c-8.4,9.2-19.4,15.8-31.9,18.7c5.1,1,9.9,2.4,14.6,4.4c11.9-5.2,22.1-13.7,29.5-24.3
	c0.7-0.9,1.3-1.9,1.9-2.9c1.7-2.7,3.2-5.5,4.6-8.5C165.7,212.9,166.1,212,166.5,211z M167,342.4c3-7.8,4.6-16.3,4.6-25.1
	c0-9.3-1.8-18.2-5.1-26.3c-2.7,0.3-5.3,0.5-8,0.5c-0.4,0-0.9,0-1.4,0c3.6,7.9,5.7,16.6,5.7,25.8c0,9.2-2.1,17.9-5.7,25.8
	c-0.4,1-0.9,1.9-1.4,2.9c-1.5,2.9-3.3,5.7-5.3,8.4c-0.7,0.9-1.3,1.8-2.1,2.7c-9.2,10.9-22,18.6-36.6,21.2c0.6,4.4,0.9,7.6,0.9,8.7
	c19-3.2,35.5-14,46.2-29.2c0.7-1,1.3-2,2-3c1.8-2.9,3.5-6,4.9-9.2C166.2,344.4,166.6,343.4,167,342.4z M142.4,224.4
	c0.9-0.2,1.9-0.4,2.8-0.7c2.7-3.1,5.1-6.4,7.1-9.9c-4.1,0.4-8.1,1.1-12.2,2.1c-8.6,2.3-16.5,6.2-23.5,11.3c-1.1,0.8-2.2,1.7-3.3,2.6
	c-3.5,2.9-6.7,6.2-9.6,9.7c0.5,1.3,1.1,2.6,1.7,3.9c0.1,0.1,0.1,0.2,0.2,0.4c0.4,0.8,0.8,1.7,1.3,2.5c0.1,0.2,0.2,0.4,0.3,0.6
	c0.1,0.1,0.1,0.3,0.2,0.4c0.1,0.1,0.2,0.3,0.3,0.4c0.1,0.2,0.2,0.3,0.3,0.5c0.3-0.4,0.6-0.8,0.9-1.2s0.6-0.8,0.9-1.1
	c0.4-0.5,0.8-1,1.2-1.5c0.5-0.6,1-1.2,1.6-1.8c0.2-0.2,0.3-0.3,0.5-0.5C120.9,233.6,130.9,227.4,142.4,224.4z M169.1,345
	c-1.3,3.3-2.9,6.4-4.7,9.4c18.5-1.6,36.1-10.5,48.4-25.3c-0.9-0.6-3.5-2.5-7-5.2C196.2,335.3,183.1,342.5,169.1,345z M-18.7,251
	c1.6,3.1,3.5,6,5.5,8.8c0.7,0.9,1.3,1.8,2,2.6c5.3,6.5,11.8,12.2,19.4,16.6c7.9,4.6,16.5,7.5,25.3,8.8c1.3-2.9,2.7-5.7,4.3-8.3
	c-8.8-0.8-17.4-3.4-25.3-8C4.5,266.9-2,260.7-7,253.7c-0.6-0.9-1.2-1.7-1.8-2.6c-1.8-2.8-3.3-5.8-4.6-8.8c-0.4-1-0.9-2.1-1.3-3.1
	c-4.9-13.4-5.1-28.4-0.1-42.3c-4.1-1.7-7-3-8-3.5c-6.7,18.1-5.6,37.8,2.2,54.6C-19.8,248.9-19.2,250-18.7,251z M96,317.1
	c1.5,2.8,3.2,5.6,5,8.2c0.6,0.8,1.2,1.6,1.8,2.4c5.4,6.9,12.2,12.9,20.2,17.6c7.7,4.4,15.8,7.2,24.1,8.5c2-2.6,3.9-5.3,5.5-8.1
	c-8.6-0.8-17.2-3.3-25.2-8c-8-4.6-14.5-10.8-19.5-17.9c-0.6-0.9-1.3-1.8-1.9-2.7c-2-3.2-3.7-6.5-5-10c-0.6-1.4-1.1-2.9-1.5-4.3
	c-3.7-11.8-3.9-24.6-0.2-36.8c-3.3,3.9-7,7.4-11.1,10.4c-1.4,12.9,0.8,25.9,6.2,37.6C94.9,315,95.4,316,96,317.1z M107.6,314
	c5.4-11.6,7.6-24.7,6.2-37.6c-4-3.1-7.7-6.6-11.1-10.4c3.7,12.2,3.5,25-0.2,36.8C103.8,306.6,105.5,310.4,107.6,314z M-14.5,305.3
	c-5.1-13.9-4.8-28.9,0.1-42.3c-2.2-2.8-4.1-5.7-5.8-8.8c-7.9,16.8-9,36.5-2.2,54.6C-21.6,308.2-18.6,306.9-14.5,305.3z M36.7,213.8
	c-1,0.1-2,0.2-3,0.4c-8.8,1.3-17.4,4.2-25.3,8.8c-7.7,4.4-14.2,10.1-19.4,16.6c1.2,3,2.6,6,4.3,8.8c5-7.1,11.5-13.2,19.5-17.8
	c7.9-4.5,16.5-7.2,25.2-8c1.1-0.1,2.2-0.2,3.3-0.2c0.8,0,1.5-0.1,2.3-0.1c2.9,0,5.9,0.2,8.8,0.7c1.5,0.2,3,0.5,4.5,0.8
	c0.9,0.2,1.9,0.4,2.8,0.7c11.4,3.1,21.4,9.2,29.3,17.6c-1.7-4.8-2.9-9.8-3.5-14.8c-7-5.1-14.9-9-23.5-11.3c-4-1.1-8.1-1.8-12.2-2.1
	c-1.2-0.1-2.3-0.2-3.5-0.2C43.1,213.4,39.9,213.5,36.7,213.8z M51.6,354.3c1.1-0.1,2.2-0.3,3.3-0.5c8.4-1.4,16.5-4.2,24.1-8.6
	c8.1-4.6,14.8-10.7,20.2-17.6c-1.9-2.5-3.6-5.2-5.1-7.9c-5,7.1-11.5,13.3-19.5,17.9c-7.8,4.5-16.4,7.2-25.2,8
	c-1,0.1-2.1,0.2-3.2,0.3c-3.3,0.1-6.6,0-9.9-0.4c-1.1-0.1-2.2-0.3-3.4-0.5c-1.8-0.3-3.6-0.7-5.3-1.2c-12.4-3.3-23.2-10.3-31.3-20
	c-3.5,2.7-6.1,4.6-7,5.2c9.3,11.3,21.7,19.4,36.1,23.3c4.1,1.1,8.2,1.8,12.3,2.1c1.2,0.1,2.4,0.2,3.5,0.2c0.9,0,1.7,0.1,2.6,0.1
	C46.4,354.8,49,354.6,51.6,354.3z M106,184.9c-1.5-2.8-3.2-5.5-5-8.1c-0.6-0.8-1.2-1.7-1.9-2.5c-5.4-6.9-12.2-12.9-20.2-17.5
	c-7.6-4.4-15.7-7.2-24.1-8.6c-2,2.6-3.9,5.3-5.5,8.1c8.8,0.8,17.3,3.5,25.2,8c8,4.6,14.5,10.8,19.5,17.9c0.6,0.9,1.3,1.8,1.9,2.8
	c2,3.2,3.6,6.5,5,9.9c0.6,1.4,1.1,2.9,1.5,4.3c3.7,11.8,4,24.6,0.2,36.8c3.3-3.9,7-7.4,11.1-10.4c1.4-12.9-0.8-25.9-6.2-37.6
	C107.1,187,106.6,185.9,106,184.9z M220.7,251c-1.6-3.1-3.5-6-5.5-8.8c-0.7-0.9-1.3-1.8-2-2.6c-5.3-6.5-11.8-12.2-19.4-16.6
	c-7.9-4.6-16.5-7.5-25.3-8.8c-1.3,2.9-2.7,5.7-4.3,8.3c8.8,0.8,17.4,3.5,25.2,8c8,4.6,14.5,10.8,19.5,17.8c0.6,0.9,1.2,1.7,1.8,2.6
	c1.8,2.8,3.3,5.8,4.6,8.8c0.4,1,0.9,2.1,1.3,3.1c4.9,13.4,5.1,28.4,0.1,42.3c4.1,1.7,7,3,8,3.5c6.7-18.1,5.6-37.8-2.2-54.6
	C221.8,253.1,221.2,252,220.7,251z M216.5,196.7c5.1,13.9,4.8,28.9-0.1,42.3c2.2,2.8,4.1,5.7,5.8,8.8c7.9-16.8,9-36.5,2.2-54.6
	C223.6,193.8,220.6,195.1,216.5,196.7z M150.4,147.7c-1.1,0.1-2.2,0.3-3.3,0.4c-8.3,1.3-16.4,4.1-24.1,8.5
	c-7.9,4.6-14.8,10.6-20.2,17.6c1.9,2.5,3.6,5.2,5.1,7.9c5.1-7.2,11.7-13.3,19.6-17.9l0,0c8-4.6,16.6-7.2,25.2-8
	c1.1-0.1,2.1-0.2,3.2-0.2c0.8,0,1.7-0.1,2.5-0.1c2.5,0,5,0.2,7.4,0.5c1.1,0.1,2.3,0.3,3.4,0.5c14,2.5,27.1,9.7,36.7,21.1
	c3.5-2.7,6.1-4.6,7-5.2c-12.3-14.9-29.9-23.7-48.4-25.4c-1.2-0.1-2.4-0.2-3.5-0.2C157.4,147.2,153.9,147.3,150.4,147.7z
	 M158.5,288.5c2.3,0,4.6-0.1,6.8-0.4c1-0.1,2-0.2,3-0.3c8.8-1.3,17.4-4.2,25.3-8.8c7.7-4.4,14.2-10.1,19.4-16.6
	c-1.2-3-2.6-6-4.3-8.8c-5,7.1-11.5,13.2-19.5,17.8c-7.9,4.5-16.5,7.2-25.3,8c-1.1,0.1-2.2,0.2-3.3,0.3c-3.7,0.1-7.4-0.1-11.2-0.6
	c-1.5-0.2-3-0.5-4.5-0.9c-0.9-0.2-1.8-0.3-2.7-0.6c-11.4-3.1-21.5-9.2-29.3-17.7c-0.2-0.2-0.3-0.3-0.5-0.5c-0.5-0.6-1.1-1.2-1.6-1.8
	c-0.4-0.5-0.8-1-1.2-1.5c-0.3-0.4-0.6-0.8-0.9-1.1c-0.3-0.4-0.6-0.8-0.9-1.2c0,0,0-0.1-0.1-0.1c-0.6-0.8-1.1-1.7-1.7-2.6
	c0-0.1-0.1-0.1-0.1-0.2c-0.4-0.7-0.9-1.3-1.3-2c-0.4-0.7-0.7-1.4-1.1-2.1c0-0.1-0.1-0.1-0.1-0.2c-0.5-0.9-1-1.8-1.4-2.8v-0.1
	c-0.2-0.5-0.4-0.9-0.6-1.4c-0.2-0.5-0.4-0.9-0.5-1.4c-0.2-0.6-0.5-1.2-0.7-1.8c-0.3-0.8-0.6-1.5-0.8-2.3c-0.1-0.2-0.1-0.5-0.2-0.8
	c-3.4-11-3.7-22.8-0.7-34.2c0.2-0.9,0.6-1.8,0.9-2.7c-1.3-3.9-3-7.6-5-11.2c-1.7,3.7-3.2,7.5-4.3,11.6c-2.3,8.6-2.9,17.4-2,26
	c0.2,1.4,0.4,2.9,0.6,4.3c0.8,4.5,2,8.9,3.6,13.2c0.1,0.4,0.3,0.8,0.5,1.2c0.3,0.7,0.6,1.3,0.8,2c0.1,0.3,0.2,0.6,0.4,0.8
	c0.1,0.3,0.3,0.5,0.4,0.8l0,0c0.5,1,1,2,1.5,3c0,0.1,0.1,0.1,0.1,0.2c0.4,0.7,0.8,1.5,1.2,2.2s0.9,1.4,1.4,2.1
	c0,0.1,0.1,0.1,0.1,0.2c0.6,0.9,1.2,1.9,1.8,2.8l0,0c0.2,0.2,0.3,0.5,0.5,0.8c0.2,0.2,0.4,0.5,0.5,0.7c0.4,0.6,0.9,1.1,1.3,1.7
	c0.3,0.3,0.5,0.6,0.8,1c2.9,3.6,6.1,6.8,9.6,9.7c1.1,0.9,2.2,1.8,3.3,2.6c7,5.1,14.9,9,23.5,11.3c4,1.1,8.1,1.8,12.2,2.1
	c1.2,0.1,2.3,0.2,3.5,0.2C156.6,288.5,157.6,288.5,158.5,288.5z M36.5,362.7c-1.1-0.6-2.3-0.9-3.5-0.9c-2.4,0-4.8,1.3-6.1,3.5
	c-1.9,3.3-0.8,7.6,2.6,9.5c1.1,0.6,2.3,0.9,3.5,0.9c2.4,0,4.8-1.3,6.1-3.5C41,368.9,39.9,364.6,36.5,362.7z M236.9,244
	c-3.9,0-7,3.1-7,7s3.1,7,7,7s7-3.1,7-7S240.8,244,236.9,244z M33,140.3c1.2,0,2.4-0.3,3.5-0.9c3.3-1.9,4.5-6.2,2.6-9.5
	c-1.3-2.2-3.6-3.5-6.1-3.5c-1.2,0-2.4,0.3-3.5,0.9c-3.3,1.9-4.5,6.2-2.6,9.5C28.3,139,30.6,140.3,33,140.3z M165.5,139.3
	c1.1,0.6,2.3,0.9,3.5,0.9c2.4,0,4.8-1.3,6.1-3.5c1.9-3.3,0.8-7.6-2.6-9.5c-1.1-0.6-2.3-0.9-3.5-0.9c-2.4,0-4.8,1.3-6.1,3.5
	C161,133.1,162.1,137.4,165.5,139.3z M169,361.7c-1.2,0-2.4,0.3-3.5,0.9c-3.3,1.9-4.5,6.2-2.6,9.5c1.3,2.2,3.6,3.5,6.1,3.5
	c1.2,0,2.4-0.3,3.5-0.9c3.3-1.9,4.5-6.2,2.6-9.5C173.7,363,171.4,361.7,169,361.7z M-34.9,244c-3.9,0-7,3.1-7,7s3.1,7,7,7s7-3.1,7-7
	C-28,247.1-31.1,244-34.9,244z M-20.7,188.8c0.1,0.1,0.3,0.2,0.4,0.3c0.6,0.3,2.5,1.2,5.1,2.3c0.7,0.3,1.5,0.6,2.3,1l0,0
	c0.8,0.4,1.7,0.7,2.7,1.1c14.1,5.8,37.5,15.1,37.5,15.1S7.6,192.9-4.5,183.7c-0.8-0.6-1.6-1.2-2.3-1.8c0,0,0,0-0.1,0
	c-0.7-0.5-1.3-1-1.9-1.5c-2.3-1.8-4-3-4.6-3.3c-0.2-0.1-0.4-0.1-0.5-0.2c-1-0.4-2-0.7-3-0.7H-17c-2.4,0-4.7,1.3-6,3.5
	s-1.2,4.8,0,6.9C-22.3,187.3-21.6,188.1-20.7,188.8z M222.7,313.2c-0.1-0.1-0.3-0.2-0.4-0.3c-0.6-0.3-2.5-1.2-5.1-2.3
	c-0.7-0.3-1.5-0.6-2.3-1l0,0c-0.8-0.4-1.7-0.7-2.7-1.1c-14.1-5.8-37.5-15.1-37.5-15.1s19.7,15.6,31.8,24.9c0.8,0.6,1.6,1.2,2.3,1.8
	c0,0,0,0,0.1,0.1c0.7,0.5,1.3,1,1.9,1.5c2.3,1.8,4,3,4.6,3.3c0.2,0.1,0.3,0.1,0.5,0.2c1,0.5,2,0.7,3,0.7h0.1c2.4,0,4.7-1.3,6-3.5
	s1.2-4.8,0-6.9C224.3,314.7,223.6,313.9,222.7,313.2z M94.9,123.1C94.9,123.1,94.9,123.2,94.9,123.1c0.1,1,0.3,2,0.4,3
	c2,15.1,5.7,40,5.7,40s3.7-24.9,5.7-40c0.1-1,0.3-2,0.4-2.9v-0.1c0.1-0.9,0.2-1.7,0.3-2.4c0.4-2.9,0.6-4.9,0.6-5.6
	c0-0.2,0-0.4-0.1-0.5c-0.1-1.1-0.4-2.1-0.9-3c-1.2-2-3.4-3.4-6-3.4c-1,0-1.9,0.2-2.7,0.5c-1.3,0.5-2.3,1.4-3.1,2.5
	c-0.1,0.1-0.1,0.2-0.2,0.4c-0.3,0.5-0.5,1.1-0.7,1.7c-0.1,0.4-0.2,0.9-0.3,1.3c0,0.2-0.1,0.4-0.1,0.5c0,0.7,0.2,2.7,0.6,5.6
	C94.7,121.4,94.8,122.2,94.9,123.1z M107.1,378.9C107.1,378.9,107.1,378.8,107.1,378.9c-0.1-1-0.3-2-0.4-3c-2-15.1-5.7-40-5.7-40
	s-3.7,24.9-5.7,40c-0.1,1-0.3,2-0.4,2.9v0.1c-0.1,0.9-0.2,1.7-0.3,2.4c-0.4,2.9-0.6,4.9-0.6,5.6c0,0.2,0,0.4,0.1,0.5
	c0,0.5,0.1,1.1,0.3,1.6s0.4,1,0.6,1.4c0.1,0.1,0.1,0.2,0.2,0.4c0.8,1.1,1.8,2,3.1,2.5c0.8,0.4,1.8,0.5,2.7,0.5c2.6,0,4.8-1.4,6-3.4
	c0.5-0.9,0.9-1.9,0.9-3c0-0.2,0.1-0.4,0.1-0.5c0-0.7-0.2-2.7-0.6-5.6C107.3,380.6,107.2,379.8,107.1,378.9z M-6.7,320.2L-6.7,320.2
	c0.8-0.6,1.6-1.2,2.4-1.8c12.1-9.3,31.8-24.9,31.8-24.9S4.1,302.8-10,308.6c-0.9,0.4-1.8,0.8-2.7,1.1l0,0c-0.8,0.3-1.6,0.7-2.3,1
	c-2.7,1.1-4.5,2-5.1,2.3c-0.2,0.1-0.3,0.2-0.4,0.3c-0.9,0.6-1.6,1.4-2.1,2.3c-1.2,2.1-1.3,4.7,0,6.9c1.3,2.2,3.6,3.4,6,3.5h0.1
	c1,0,2-0.3,3-0.7c0.2-0.1,0.4-0.1,0.5-0.2c0.6-0.3,2.3-1.6,4.6-3.3C-8,321.2-7.4,320.8-6.7,320.2z M208.7,181.8L208.7,181.8
	c-0.8,0.6-1.6,1.2-2.4,1.8c-12.1,9.3-31.8,24.9-31.8,24.9s23.4-9.3,37.5-15.1c0.9-0.4,1.8-0.8,2.7-1.1l0,0c0.8-0.3,1.6-0.7,2.3-1
	c2.7-1.1,4.5-2,5.1-2.3c0.2-0.1,0.3-0.2,0.4-0.3c0.9-0.6,1.6-1.4,2.1-2.3c1.2-2.1,1.3-4.7,0-6.9s-3.6-3.5-6-3.5h-0.1
	c-1,0-2,0.3-3,0.7c-0.2,0.1-0.3,0.1-0.5,0.2c-0.6,0.3-2.3,1.6-4.6,3.3C210,180.8,209.4,181.2,208.7,181.8z M101,108.1
	c-1,0-1.9,0.2-2.7,0.5 M95.2,390.8c0.8,1.1,1.8,2,3.1,2.5 M98.3,393.4c0.8,0.4,1.8,0.5,2.7,0.5 M95.2,111.2
	c-0.1,0.1-0.1,0.2-0.2,0.4 M95,390.5c0.1,0.1,0.1,0.2,0.2,0.4 M98.3,108.6c-1.3,0.5-2.3,1.4-3.1,2.5 M94.4,389.1
	c0.2,0.5,0.4,1,0.6,1.4"/>
</svg>
