<?xml version="1.0" encoding="utf-8"?>
<!-- Generator: Adobe Illustrator 19.0.0, SVG Export Plug-In . SVG Version: 6.00 Build 0)  -->
<svg version="1.2" baseProfile="tiny" id="Layer_1" xmlns="http://www.w3.org/2000/svg" xmlns:xlink="http://www.w3.org/1999/xlink"
	 x="0px" y="0px" viewBox="75 75 350 350" xml:space="preserve">
<path id="XMLID_74_" fill="#231F20" d="M318.9,250h-12.1c0-31.4-25.5-56.9-56.9-56.9S193,218.6,193,250h-12.1c0-38.1,31-69,69-69
	S318.9,211.9,318.9,250z M249.8,126.3c-68.2,0-123.7,55.5-123.7,123.7h12.1c0-61.5,50-111.6,111.6-111.6
	c61.5,0,111.6,50,111.6,111.6h12.1C373.5,181.8,318,126.3,249.8,126.3z M249.8,162.7c-48.1,0-87.3,39.1-87.3,87.3h12.1
	c0-41.4,33.7-75.1,75.1-75.1s75.1,33.7,75.1,75.1h12.1C337.1,201.9,297.9,162.7,249.8,162.7z M249.8,144.5
	c-58.2,0-105.5,47.3-105.5,105.5h12.2c0-51.5,41.9-93.3,93.3-93.3c51.5,0,93.3,41.9,93.3,93.3h12.1
	C355.3,191.8,308,144.5,249.8,144.5z M250,120.4c-71.6,0-129.6,58-129.6,129.6s58,129.6,129.6,129.6s129.6-58,129.6-129.6
	S321.6,120.4,250,120.4 M250,108.3c78.2,0,141.7,63.6,141.7,141.7S328.1,391.7,250,391.7S108.3,328.2,108.3,250
	S171.8,108.3,250,108.3L250,108.3z"/>
</svg>
