<?xml version="1.0" encoding="utf-8"?>
<!-- Generator: Adobe Illustrator 19.0.0, SVG Export Plug-In . SVG Version: 6.00 Build 0)  -->
<svg version="1.2" baseProfile="tiny" id="Layer_1" xmlns="http://www.w3.org/2000/svg" xmlns:xlink="http://www.w3.org/1999/xlink"
	 x="0px" y="0px" viewBox="75 75 350 350" xml:space="preserve">
<g id="XMLID_1491_">
	<path id="XMLID_1509_" fill="#231F20" d="M279.5,344.5c1.6,5,2.5,9.3,2.5,12.3c0,9-3.7,17.1-9.6,23c0-12.3-10-22.3-22.3-22.3
		c-12.3,0-22.3,10-22.3,22.3c0,0.2,0,0.4,0,0.7c-6.4-5.9-10.4-14.3-10.4-23.7c0-3,0.9-7.3,2.5-12.3c-2-0.6-4-1.4-6-2.1
		c-1.8,5.8-2.9,10.8-2.9,14.5c0,8,2.5,15.9,7.2,22.4c0,0,0,0.1,0.1,0.1c0.1,0.1,0.1,0.2,0.2,0.2c4.2,5.5,9.7,9.9,16.2,12.6
		l-0.3-11.8c0-0.2,0-0.4,0-0.5l0,0c0-8.7,7.2-15.9,15.9-15.9c8.8,0,15.9,7.1,15.9,15.9v11.8c6.5-3,12.1-7.8,16.1-13.7
		c4.1-6.2,6.2-13.5,6.2-21.1c0-3.6-1.1-8.7-2.9-14.5C283.6,343.1,281.6,343.8,279.5,344.5z"/>
	<path id="XMLID_1508_" fill="#231F20" d="M244,275.2c-2.3,4.2-16.2,30.6-25.2,53.3c2,0.8,4,1.5,6,2.1c9.6-23.7,24.8-52.4,24.8-52.4
		s15.3,28.7,24.8,52.4c2-0.6,4.1-1.3,6-2.1c-9.1-22.7-23-49.1-25.2-53.3l-5.7-10.6L244,275.2z"/>
	<path id="XMLID_1507_" fill="#231F20" d="M137.8,230.2c3.1,1.8,7.8,3.3,13.5,4.6c0.3-2.1,0.7-4.2,1.2-6.3
		c-4.9-1.1-8.9-2.4-11.5-3.9c-7.8-4.5-13-11.7-15.1-19.8c10.7,6.1,24.3,2.5,30.5-8.2c6.2-10.7,2.5-24.4-8.2-30.5
		c-0.2-0.1-0.4-0.2-0.6-0.3c8.3-2.6,17.6-1.9,25.8,2.8c2.5,1.5,5.6,4.2,9,7.9c1.6-1.4,3.2-2.8,4.8-4.2c-3.9-4.2-7.6-7.5-10.6-9.3
		c-7-4-15-5.7-22.9-5h-0.1c-0.1,0-0.2,0-0.3,0c-6.8,0.8-13.4,3.5-19,7.7l10.4,5.6c0.2,0.1,0.3,0.2,0.5,0.2l0,0
		c7.6,4.4,10.1,14.1,5.8,21.7c-4.4,7.6-14.1,10.2-21.7,5.9l-10.2-5.8c-0.7,7.2,0.7,14.4,3.8,20.8
		C126.1,220.8,131.3,226.4,137.8,230.2z"/>
	<path id="XMLID_1506_" fill="#231F20" d="M165.8,237.4c24.3,3.6,54.4,4.7,59.2,4.9l12,0.4l-6.4-10.2c-2.6-4.1-18.7-29.8-34-49
		c-1.7,1.3-3.3,2.7-4.8,4.2c15.9,20.2,33.4,48.2,33.4,48.2s-32.9-1.1-58.3-4.8C166.5,233.2,166.1,235.3,165.8,237.4z"/>
	<path id="XMLID_1505_" fill="#231F20" d="M326,168.6c7.8-4.5,16.7-5.4,24.7-3.2c-10.6,6.2-14.3,19.8-8.1,30.5
		c6.2,10.7,19.8,14.4,30.5,8.2c0.2-0.1,0.4-0.2,0.6-0.4c-1.9,8.5-7.2,16.2-15.3,20.9c-2.6,1.5-6.6,2.8-11.5,3.9
		c0.4,2.1,0.8,4.2,1.2,6.3c5.7-1.3,10.4-2.8,13.5-4.6c7-4,12.5-10.1,15.8-17.4v-0.1c0-0.1,0.1-0.2,0.1-0.3
		c2.7-6.4,3.7-13.4,2.8-20.3l-10,6.2c-0.2,0.1-0.3,0.2-0.5,0.3l0,0c-7.6,4.3-17.3,1.7-21.7-5.9c-4.4-7.6-1.8-17.3,5.8-21.7l10.2-5.9
		c-5.9-4.2-12.8-6.6-19.9-7.1c-7.4-0.4-14.8,1.3-21.4,5.1c-3,1.8-6.7,5-10.6,9.3c1.6,1.3,3.3,2.7,4.8,4.2
		C320.5,172.8,323.5,170.1,326,168.6z"/>
	<path id="XMLID_1504_" fill="#231F20" d="M302.8,183.5c-15.3,19.3-31.4,44.9-34,49l-6.4,10.2l12-0.4c4.8-0.2,34.9-1.3,59.2-4.9
		c-0.3-2.1-0.7-4.2-1.2-6.3c-25.4,3.7-58.3,4.8-58.3,4.8s17.5-28,33.4-48.2C306,186.2,304.5,184.8,302.8,183.5z"/>
	<path id="XMLID_1503_" fill="#231F20" d="M287.1,162.2c-0.6,1.8-1.3,3.7-2,5.5c-0.2,0.5-0.3,0.9-0.5,1.4c7.2,3.1,13.9,7.2,19.9,12
		c1.7,1.3,3.3,2.7,4.8,4.2c12.8,11.9,22.1,27.6,26,45.3c0.5,2.1,0.8,4.2,1.2,6.3c0.6,4.1,0.9,8.3,0.9,12.6c0,3.6-0.2,7.1-0.7,10.5
		c0.5,0.1,1,0.2,1.4,0.2c2,0.3,3.9,0.7,5.8,1c0.5,0.1,1,0.2,1.4,0.3c0.5-4,0.8-8,0.8-12.1c0-4.8-0.4-9.6-1.1-14.2
		c-0.3-2.1-0.7-4.2-1.2-6.3c-4.3-19.8-14.6-37.3-29-50.5c-1.6-1.4-3.2-2.8-4.8-4.2c-6.8-5.5-14.4-10.1-22.6-13.6
		C287.5,161.3,287.4,161.8,287.1,162.2z"/>
	<path id="XMLID_1502_" fill="#231F20" d="M302.8,321.3c-0.3-0.4-0.6-0.8-0.9-1.1c-6.2,4.6-12.9,8.3-20.2,11.2c-2,0.8-4,1.5-6,2.1
		c-8.2,2.5-16.9,3.9-25.9,3.9c-9,0-17.7-1.4-25.9-3.9c-2-0.6-4-1.4-6-2.1c-7.2-2.8-14-6.6-20.2-11.2c-0.3,0.4-0.6,0.8-0.9,1.1
		c-1.3,1.6-2.5,3.1-3.8,4.5c-0.3,0.4-0.6,0.7-1,1.1c7,5.2,14.6,9.5,22.9,12.7c2,0.8,4,1.5,6,2.1c9.1,2.9,18.9,4.4,28.9,4.4
		c10,0,19.8-1.6,28.9-4.4c2-0.6,4-1.4,6-2.1c8.2-3.2,15.9-7.5,22.9-12.7c-0.3-0.4-0.6-0.7-1-1.1C305.4,324.3,304,322.8,302.8,321.3z
		"/>
	<path id="XMLID_1501_" fill="#231F20" d="M155.4,229.1c-0.4,2.1-0.8,4.2-1.2,6.3c-0.7,4.6-1.1,9.4-1.1,14.2c0,4.1,0.3,8.1,0.8,12.1
		c0.5-0.1,1-0.2,1.4-0.3c1.9-0.4,3.8-0.7,5.8-1c0.5-0.1,1-0.2,1.4-0.2c-0.4-3.5-0.7-7-0.7-10.5c0-4.3,0.3-8.5,0.9-12.6
		c0.3-2.1,0.7-4.2,1.2-6.3c3.9-17.7,13.2-33.4,26-45.3c1.6-1.4,3.2-2.8,4.8-4.2c6-4.8,12.7-8.9,19.9-12c-0.2-0.5-0.3-0.9-0.5-1.4
		c-0.7-1.9-1.4-3.7-2-5.5c-0.2-0.5-0.3-0.9-0.5-1.4c-8.2,3.5-15.8,8.1-22.6,13.6c-1.7,1.3-3.3,2.7-4.8,4.2
		C170,191.9,159.7,209.4,155.4,229.1z"/>
	<path id="XMLID_1498_" fill="#231F20" d="M214.1,158.3c0.1,0.5,0.3,0.9,0.4,1.4c0.2,0.5,0.3,0.9,0.5,1.4c0.6,1.8,1.3,3.6,2,5.5
		c0.2,0.5,24.8,53.9,27.1,58.1l5.7,10.6l5.7-10.6c2.3-4.3,16.5-31.1,25.5-54c0.2-0.5,0.4-0.9,0.5-1.4c0.2-0.5,0.3-0.9,0.5-1.4
		s0.4-0.9,0.5-1.4c0.7-1.9,1.4-3.7,2-5.5c0.2-0.5,0.3-0.9,0.5-1.4s0.3-0.9,0.4-1.4s0.3-0.9,0.4-1.4c1.7-5.5,2.7-10.2,2.7-13.7
		c0-8-2.5-15.9-7.2-22.4c0,0,0-0.1-0.1-0.1c-0.1-0.1-0.1-0.2-0.2-0.2c-4.2-5.5-9.7-9.9-16.2-12.6l0.3,11.8c0,0.2,0,0.4,0,0.5l0,0
		c0,8.7-7.2,15.9-15.9,15.9c-8.8,0-15.9-7.1-15.9-15.9v-11.8c-6.5,3-12.1,7.8-16.1,13.7c-4.1,6.2-6.2,13.5-6.2,21.1
		c0,3.5,1,8.2,2.7,13.7C213.8,157.4,213.9,157.9,214.1,158.3z M227,120.2L227,120.2c0,3.1,0.6,6,1.8,8.7c2,4.7,5.5,8.5,9.9,10.9
		c1.9,1,4,1.8,6.1,2.2c1.5,0.3,3,0.5,4.5,0.5c2.3,0,4.5-0.4,6.6-1c1.4-0.4,2.7-1,4-1.7s2.5-1.5,3.6-2.4c1.7-1.4,3.1-3,4.3-4.8
		c1.8-2.7,3.1-5.8,3.6-9.1c0.2-1.1,0.3-2.2,0.3-3.4c0-0.2,0-0.4,0-0.7c2.4,2.2,4.5,4.8,6.1,7.6c1.1,1.9,2,3.9,2.7,6
		c1,3.2,1.6,6.6,1.6,10.1c0,2.9-0.9,6.9-2.3,11.6c-0.1,0.5-0.3,0.9-0.4,1.4s-0.3,0.9-0.4,1.4c-0.2,0.5-0.3,0.9-0.5,1.4
		c-0.6,1.8-1.3,3.6-2,5.5c-0.2,0.5-0.3,0.9-0.5,1.4s-0.4,0.9-0.5,1.4c-0.2,0.5-0.4,0.9-0.5,1.4c-9.5,23.9-25.1,53.2-25.1,53.2
		s-15.6-29.3-25.1-53.2c-0.2-0.5-0.4-0.9-0.5-1.4c-0.2-0.5-0.4-0.9-0.5-1.4c-0.2-0.5-0.3-0.9-0.5-1.4c-0.7-1.9-1.4-3.7-2-5.5
		c-0.2-0.5-0.3-0.9-0.5-1.4s-0.3-0.9-0.4-1.4c-0.1-0.5-0.3-0.9-0.4-1.4c-1.4-4.7-2.3-8.7-2.3-11.6c0-2.2,0.2-4.4,0.7-6.6
		c0.4-2.1,1.1-4.2,1.9-6.1c0.4-1,0.9-1.9,1.4-2.8c1-1.8,2.2-3.6,3.5-5.2C225.5,121.7,226.2,121,227,120.2z"/>
	<path id="XMLID_1495_" fill="#231F20" d="M361.6,269.8c-3.1-1.8-7.9-3.3-13.6-4.6c-0.5-0.1-1-0.2-1.4-0.3c-0.5-0.1-0.9-0.2-1.4-0.3
		c-0.5-0.1-1-0.2-1.4-0.3c-1.9-0.4-3.8-0.7-5.8-1c-0.5-0.1-1-0.2-1.4-0.2c-0.5-0.1-1-0.2-1.4-0.2c-0.5-0.1-1-0.1-1.4-0.2
		c-24.3-3.6-54.3-4.7-59.1-4.9l-12-0.4l6.4,10.2c2.5,4.1,18.4,29.3,33.6,48.5c0.3,0.4,0.6,0.8,0.9,1.1c0.3,0.4,0.6,0.8,0.9,1.1
		c0.3,0.4,0.6,0.8,0.9,1.1c1.3,1.6,2.5,3.1,3.8,4.5c0.3,0.4,0.6,0.7,1,1.1c0.3,0.4,0.7,0.7,1,1.1s0.7,0.7,1,1.1
		c4.1,4.4,7.9,7.9,11.1,9.7c5.9,3.4,12.6,5.2,19.3,5.2c1.2,0,2.4-0.1,3.6-0.2h0.1l0,0l0,0l0,0c0.1,0,0.2,0,0.3,0
		c6.8-0.8,13.4-3.5,19-7.7l-10.4-5.6c-0.2-0.1-0.3-0.2-0.5-0.2l0,0c-7.6-4.4-10.1-14.1-5.8-21.7c2.9-5.1,8.3-8,13.8-8
		c2.7,0,5.4,0.7,7.9,2.1l10.2,5.8c0.7-7.2-0.7-14.4-3.8-20.8C373.4,279.2,368.1,273.6,361.6,269.8z M343,303.4
		c-6.2,10.7-2.5,24.4,8.2,30.5c0.2,0.1,0.4,0.2,0.6,0.3c-1.6,0.5-3.2,0.9-4.8,1.1c-1.6,0.2-3.3,0.4-4.9,0.4c-4.1,0-8.2-0.8-12.2-2.4
		c-1.3-0.5-2.6-1.2-3.9-1.9c-2.6-1.5-5.9-4.5-9.4-8.3c-0.3-0.4-0.7-0.7-1-1.1s-0.6-0.7-1-1.1c-0.3-0.4-0.6-0.7-1-1.1
		c-1.2-1.4-2.5-2.9-3.8-4.5c-0.3-0.4-0.6-0.8-0.9-1.1c-0.3-0.4-0.6-0.8-0.9-1.2c-0.3-0.4-0.6-0.8-0.9-1.2
		c-15.8-20.1-33-47.8-33-47.8s32.7,1.1,58.1,4.8c0.5,0.1,1,0.1,1.5,0.2s1,0.1,1.5,0.2s1,0.2,1.4,0.2c2,0.3,3.9,0.7,5.8,1
		c0.5,0.1,1,0.2,1.4,0.3c0.5,0.1,1,0.2,1.4,0.3c0.5,0.1,1,0.2,1.4,0.3c5,1.1,9.1,2.4,11.7,3.9c7.8,4.5,13,11.7,15.1,19.8
		c-3.5-2-7.3-3-11.1-3C354.6,292.2,347.1,296.2,343,303.4z"/>
	<path id="XMLID_1492_" fill="#231F20" d="M195.3,318.3c0.3-0.4,0.6-0.8,0.9-1.1c0.3-0.4,0.6-0.8,0.9-1.1
		c15.2-19.2,31.1-44.5,33.6-48.5l6.4-10.2l-12,0.4c-4.8,0.2-34.9,1.3-59.1,4.9c-0.5,0.1-1,0.1-1.4,0.2c-0.5,0.1-1,0.2-1.4,0.2
		c-0.5,0.1-1,0.2-1.4,0.2c-2,0.3-3.9,0.7-5.8,1c-0.5,0.1-1,0.2-1.4,0.3c-0.5,0.1-1,0.2-1.4,0.3c-0.5,0.1-1,0.2-1.4,0.3
		c-5.8,1.3-10.5,2.9-13.6,4.6c-7,4-12.5,10.1-15.8,17.4v0.1l0,0c0,0.1-0.1,0.2-0.1,0.3c-2.7,6.4-3.7,13.4-2.8,20.3l10-6.2
		c0.2-0.1,0.3-0.2,0.5-0.3l0,0c2.5-1.4,5.2-2.1,7.9-2.1c5.5,0,10.9,2.9,13.8,8c4.4,7.6,1.8,17.3-5.8,21.7l-10.2,5.9
		c5.9,4.2,12.8,6.6,19.9,7.1c0.7,0,1.4,0.1,2.1,0.1c6.7,0,13.3-1.7,19.3-5.2c3.1-1.8,6.9-5.3,11.1-9.7c0.3-0.4,0.7-0.7,1-1.1
		s0.7-0.7,1-1.1s0.6-0.7,1-1.1c1.2-1.4,2.5-2.9,3.8-4.5C194.7,319.1,195,318.7,195.3,318.3z M190.4,314.2c-0.3,0.4-0.6,0.8-0.9,1.1
		c-1.3,1.6-2.5,3.1-3.8,4.5c-0.3,0.4-0.6,0.7-1,1.1c-0.3,0.4-0.7,0.7-1,1.1s-0.7,0.7-1,1.1c-0.3,0.3-0.6,0.6-0.8,0.9
		c-1.3,1.4-2.5,2.6-3.7,3.7c-1.8,1.6-3.4,2.9-4.9,3.7c-1.2,0.7-2.5,1.3-3.8,1.9c-1.7,0.7-3.5,1.2-5.3,1.6c-0.4,0.1-0.7,0.2-1.1,0.2
		c-1.8,0.3-3.7,0.5-5.5,0.6c-0.2,0-0.3,0-0.5,0l0,0c-2.9,0-5.8-0.4-8.6-1.2c4-2.3,7-5.7,8.9-9.6c0.6-1.3,1.1-2.6,1.5-4
		c0.2-0.7,0.3-1.4,0.5-2.1c0.2-1.4,0.3-2.8,0.3-4.3c-0.1-3.6-1.1-7.2-3-10.6c-4.1-7.2-11.7-11.2-19.4-11.2c-3.8,0-7.6,1-11.2,3
		c-0.2,0.1-0.4,0.2-0.6,0.4c0.5-2.1,1.2-4.2,2.1-6.2c0.9-2,2-3.9,3.3-5.7c2.6-3.6,5.9-6.7,10-9c1.3-0.7,3-1.4,4.9-2.1
		c2-0.7,4.2-1.3,6.7-1.8c0.5-0.1,0.9-0.2,1.4-0.3c0.5-0.1,1-0.2,1.4-0.3c0.5-0.1,0.9-0.2,1.4-0.3c1.2-0.2,2.4-0.5,3.7-0.7
		c0.7-0.1,1.4-0.2,2.1-0.3c0.4-0.1,0.8-0.1,1.2-0.2c0.1,0,0.1,0,0.2,0c0.5-0.1,1-0.1,1.5-0.2s1-0.1,1.5-0.2c6.9-1,14.4-1.8,21.7-2.4
		c7.2-0.6,14.2-1.1,20-1.5c1.9-0.1,3.8-0.2,5.4-0.3c1.7-0.1,3.2-0.2,4.5-0.2c1.3-0.1,2.5-0.1,3.5-0.2c1.9-0.1,3-0.1,3-0.1
		s-7,11.2-16.1,24.5c-2,2.9-4,5.8-6.1,8.8c-0.7,1-1.4,2-2.1,3c-2.1,3-4.3,5.9-6.5,8.7c-0.7,1-1.5,1.9-2.2,2.8
		c-0.3,0.4-0.6,0.8-0.9,1.2C191,313.4,190.7,313.8,190.4,314.2z"/>
</g>
</svg>
