<?xml version="1.0" encoding="utf-8"?>
<!-- Generator: Adobe Illustrator 19.0.0, SVG Export Plug-In . SVG Version: 6.00 Build 0)  -->
<svg version="1.2" baseProfile="tiny" id="Layer_1" xmlns="http://www.w3.org/2000/svg" xmlns:xlink="http://www.w3.org/1999/xlink"
	 x="0px" y="0px" viewBox="75 75 350 350" xml:space="preserve">
<path id="XMLID_587_" fill="#231F20" d="M103.5,217.4c1.5-2.6,4.9-3.5,7.5-2c2.1,1.2,4.2,2.3,6.4,3.4c0.6,0.3,1.3,0.6,1.9,0.9
	c1.6,0.8,3.2,1.5,4.8,2.2c0.7,0.3,1.3,0.6,2,0.8c1.8,0.7,3.5,1.4,5.3,2c0.5,0.2,0.9,0.3,1.4,0.5c4.4,1.5,9,2.6,13.5,3.6
	c2.8,0.6,5.7,1.1,8.5,1.5h0.1c12.5,1.6,25.3,1.2,37.9-1.2c0.2,0,0.5-0.1,0.7-0.1c2.2-0.4,4.4-1,6.6-1.5c0.3-0.1,0.5-0.1,0.8-0.2
	c1-0.3,2-0.6,2.9-0.8c0.8,3.6,1.3,7.3,1.8,10.9c0,0,0,0,0,0.1c-0.7,0.2-1.4,0.4-2.1,0.6h-0.1c-11,2.9-22.2,4.4-33.4,4.4
	c-22.5,0-44.8-5.8-64.7-17.3C102.9,223.4,102,220.1,103.5,217.4z M296.9,331.3c0,0,19.4,48.9,21.5,52.6s6.8,5,10.5,2.8
	c3.7-2.1,5-6.8,2.8-10.5C329.6,372.5,296.9,331.3,296.9,331.3z M168.3,376.2c-2.1,3.7-0.9,8.4,2.8,10.5s8.4,0.9,10.5-2.8
	c2.1-3.7,21.5-52.6,21.5-52.6S170.4,372.5,168.3,376.2z M400.1,242.4c-4.3,0-56.3,7.7-56.3,7.7s52.1,7.7,56.3,7.7
	c4.3,0,7.7-3.5,7.7-7.7C407.8,245.8,404.3,242.4,400.1,242.4z M99.9,242.4c-4.3,0-7.7,3.5-7.7,7.7c0,4.3,3.5,7.7,7.7,7.7
	c4.3,0,56.3-7.7,56.3-7.7S104.2,242.4,99.9,242.4z M331.7,124c2.1-3.7,0.9-8.4-2.8-10.5c-3.7-2.1-8.4-0.9-10.5,2.8
	c-2.1,3.7-21.5,52.6-21.5,52.6S329.6,127.7,331.7,124z M203.1,168.9c0,0-19.4-48.9-21.5-52.6s-6.8-5-10.5-2.8
	c-3.7,2.1-5,6.8-2.8,10.5C170.4,127.7,203.1,168.9,203.1,168.9z M203,314.8c6-10.5,10.5-21.7,13.4-33.3c-3.4-1.5-6.9-2.8-10.4-4
	c-2.6,11.1-6.8,21.8-12.6,31.8c-10.4,18-25.4,33-43.3,43.3c-2.6,1.5-3.6,4.9-2,7.5c1,1.8,2.9,2.8,4.8,2.8c0.9,0,1.9-0.2,2.8-0.7
	C175.3,350.8,191.7,334.5,203,314.8z M150.2,147.7c28.4,16.4,48.4,43.9,55.9,75.1l0,0c0.2,0.9,0.4,1.8,0.6,2.7l0,0
	c0.8,3.6,1.4,7.3,1.8,11c0,0,0,0,0,0.1c0.1,0.9,0.2,1.8,0.3,2.7c0,0,0,0,0,0.1c0.3,3.7,0.6,7.4,0.6,11.2c0,3.5-0.2,7-0.6,10.5
	c3.6,1.1,7.2,2.3,10.7,3.7c0.5-4.7,0.9-9.5,0.9-14.2c0-5-0.3-10.1-0.9-15c-0.1-0.9-0.2-1.9-0.3-2.8c-0.5-3.8-1.2-7.5-2.1-11.1
	c-0.2-0.9-0.4-1.8-0.6-2.7c-8.4-33.6-30.1-63-60.7-80.7c-2.6-1.5-6-0.6-7.5,2C146.6,142.8,147.5,146.1,150.2,147.7z M260,294.2
	c-3,2.2-5.9,4.6-8.6,7c8.3,7.8,15.5,16.8,21.2,26.8c10.4,18,15.9,38.5,15.9,59.1c0,3,2.5,5.5,5.5,5.5l0,0c3,0,5.5-2.5,5.5-5.5
	c0-22.6-6-45-17.3-64.7C276.1,312.1,268.6,302.6,260,294.2z M204,274c0.9,0.3,1.8,0.5,2.6,0.8c3.5,1.1,7,2.4,10.4,3.9
	c0.9,0.4,1.7,0.8,2.6,1.2c3.4,1.6,6.7,3.2,10,5.1c3,1.8,6,3.7,8.8,5.7c2.8-2.6,5.6-5.1,8.6-7.4c-3.8-2.8-7.7-5.5-11.9-7.9
	c-4.4-2.5-8.8-4.7-13.4-6.7c-0.9-0.4-1.7-0.8-2.6-1.1c-3.5-1.4-7.1-2.7-10.7-3.8c-0.9-0.3-1.8-0.6-2.7-0.8
	c-33.3-9.5-69.6-5.4-100.3,12.2c-2.6,1.5-3.5,4.9-2,7.5s4.9,3.5,7.5,2C139.5,268.4,173.2,264.8,204,274z M393.2,275.2
	c-19.6-11.3-41.9-17.3-64.7-17.3c-12.1,0-24.1,1.7-35.6,5c0.4,3.7,1,7.4,1.8,11c10.9-3.3,22.3-5,33.9-5c20.8,0,41.3,5.5,59.2,15.8
	c2.6,1.5,6,0.6,7.5-2C396.7,280.1,395.8,276.7,393.2,275.2z M260.3,290.7c3-2.2,6.2-4.2,9.4-6.1c3-1.7,6.2-3.3,9.3-4.8
	c-0.9-3.7-1.6-7.4-2.1-11.2c-4.3,1.9-8.6,4-12.7,6.3c-4.4,2.5-8.5,5.3-12.5,8.3c-0.8,0.6-1.5,1.1-2.3,1.7c-3,2.3-5.8,4.8-8.6,7.4
	c-0.7,0.6-1.4,1.3-2,1.9c-24.9,24.1-39.5,57.6-39.5,93c0,3,2.5,5.5,5.5,5.5s5.5-2.5,5.5-5.5c0-32.8,13.8-63.8,37.1-86
	c0.7-0.6,1.3-1.3,2-1.9c2.7-2.5,5.6-4.8,8.6-7.1C258.7,291.8,259.5,291.2,260.3,290.7z M282.3,218.8c3.4,1.5,6.9,2.8,10.4,4
	c7.5-31.3,27.4-58.7,55.9-75.1c2.6-1.5,3.5-4.9,2-7.5s-4.9-3.6-7.5-2C312.4,155.8,290.7,185.2,282.3,218.8z M348.5,352.6
	c-17.9-10.3-32.9-25.3-43.3-43.3c-5.8-10-10-20.7-12.6-31.8c-0.2-0.9-0.4-1.8-0.6-2.7c-0.8-3.6-1.4-7.3-1.8-11
	c-0.1-0.9-0.2-1.9-0.3-2.8c-0.3-3.5-0.5-7-0.6-10.5c0-3.8,0.2-7.5,0.6-11.2c-3.6-1.1-7.2-2.3-10.7-3.7c-0.6,4.9-0.9,9.9-0.9,15
	c0,4.7,0.3,9.5,0.9,14.2c0.1,0.9,0.2,1.9,0.3,2.8c0.5,3.7,1.2,7.5,2.1,11.2c0.2,0.9,0.4,1.8,0.6,2.7c2.9,11.6,7.4,22.9,13.4,33.4
	c11.4,19.7,27.7,36.1,47.3,47.4c0.9,0.5,1.8,0.7,2.8,0.7c1.9,0,3.8-1,4.8-2.8C352.1,357.5,351.2,354.1,348.5,352.6z M294.7,226.3
	c-0.9-0.3-1.8-0.5-2.6-0.8c-3.5-1.1-7-2.5-10.4-3.9c-0.9-0.4-1.7-0.8-2.6-1.2c-3.2-1.5-6.3-3-9.4-4.8c-3.3-1.9-6.4-3.9-9.4-6.1
	c-2.8,2.6-5.6,5.1-8.6,7.4c4,3,8.1,5.7,12.5,8.3c4.1,2.4,8.4,4.4,12.7,6.3c0.9,0.4,1.7,0.8,2.6,1.2c3.5,1.4,7.1,2.6,10.7,3.8
	c0.9,0.3,1.8,0.6,2.7,0.8c11.5,3.3,23.5,5,35.6,5c22.7,0,45.1-6,64.7-17.3c2.6-1.5,3.5-4.9,2-7.5s-4.9-3.5-7.5-2
	c-17.9,10.4-38.4,15.8-59.2,15.8C317,231.3,305.6,229.4,294.7,226.3z M247.4,198.9c-23.3-22.1-37.1-53.1-37.1-86
	c0-3-2.5-5.5-5.5-5.5s-5.5,2.5-5.5,5.5c0,35.4,14.7,68.9,39.5,93C241.7,203.8,244.6,201.4,247.4,198.9z M238.5,209.4
	c-2.8,2-5.6,3.8-8.5,5.6c-0.1,0.1-0.2,0.1-0.3,0.2c-3.3,1.9-6.6,3.6-10,5.1c0.9,3.7,1.6,7.4,2.1,11.2c4.6-2,9.1-4.2,13.4-6.7l0,0
	c4.1-2.4,8-5,11.8-7.9c0.8-0.6,1.6-1.1,2.3-1.7c3-2.3,5.8-4.8,8.6-7.4c0.7-0.6,1.4-1.3,2-1.9c4.6-4.4,8.9-9.2,12.8-14.3
	c1-1.3,1.9-2.6,2.8-3.9c0.7-1,1.4-1.9,2.1-3c1.6-2.3,3.1-4.7,4.5-7.2c11.4-19.7,17.4-42.1,17.3-64.7c0-1.1-0.3-2.2-0.9-3.1
	c-1-1.5-2.7-2.4-4.6-2.4l0,0l0,0c-3,0-5.5,2.5-5.5,5.5c0,20.7-5.5,41.1-15.9,59.1c-1.3,2.2-2.6,4.4-4.1,6.5
	c-0.8,1.3-1.8,2.5-2.7,3.7c-0.6,0.8-1.2,1.7-1.8,2.5c-1.3,1.7-2.7,3.4-4.1,5c-0.3,0.3-0.5,0.6-0.8,0.9c-1.7,1.9-3.4,3.7-5.1,5.5
	c0,0,0,0.1-0.1,0.1c-0.9,0.9-1.8,1.7-2.7,2.5c-0.7,0.6-1.3,1.3-2,1.9c-2.8,2.5-5.6,4.8-8.6,7C240,208.4,239.2,208.9,238.5,209.4z"/>
</svg>
