<?xml version="1.0" encoding="utf-8"?>
<!-- Generator: Adobe Illustrator 19.0.0, SVG Export Plug-In . SVG Version: 6.00 Build 0)  -->
<svg version="1.2" baseProfile="tiny" id="Layer_1" xmlns="http://www.w3.org/2000/svg" xmlns:xlink="http://www.w3.org/1999/xlink"
	 x="0px" y="0px" viewBox="75 75 350 350" xml:space="preserve">
<g id="XMLID_876_">
	<path id="XMLID_894_" fill="#231F20" d="M357.8,178.9l9.7-5.6c0.5-0.3,1-0.5,1.6-0.7l-109-62.9l11.1,19.2L357.8,178.9z"/>
	<polygon id="XMLID_893_" fill="#231F20" points="242.9,245.3 242.9,238.9 206.5,217.9 201.3,220.9 201.3,227.7 237.3,248.4 	"/>
	<polygon id="XMLID_892_" fill="#231F20" points="193.3,293.1 190.3,294.8 232.6,368.1 242.9,374 242.9,363.6 206.6,300.9 	"/>
	<path id="XMLID_891_" fill="#231F20" d="M339.5,252.8l-6.4,11.1l23.4,40.5l-91.4-52.8l-5.5,3.2v6.4l100.4,58l-103.2,59.6v-55.4
		l-1.4,0.8c-1.3,0.7-2.7,1.1-4.2,1.1s-2.9-0.4-4.2-1.1l-1.4-0.8v55.4l-100.4-58c0,0-10.9,6.2-11.2,6.4l112.2,64.8l0.1-0.1l0,0l0,0
		c0,0.1,0.1,0.1,0.1,0.2c0.7,1.1,1.8,2,3.2,2.4c0.5,0.1,1,0.2,1.4,0.2c1.9,0,3.6-1,4.6-2.6l116.1-67c1.3-0.1,2.6-0.6,3.6-1.6
		c1.5-1.5,1.9-3.6,1.3-5.6C376.8,317.6,339.5,252.8,339.5,252.8z"/>
	<path id="XMLID_890_" fill="#231F20" d="M317.8,237.4l5.7,9.9l6.4-11.1l-12.3-21.2C317.7,215.3,317.8,237.4,317.8,237.4z"/>
	<polygon id="XMLID_889_" fill="#231F20" points="259.5,363.6 259.5,374 269.8,368.1 312.1,294.8 309.1,293.1 295.8,300.9 	"/>
	<polygon id="XMLID_888_" fill="#231F20" points="259.5,238.9 259.5,251.7 301.1,227.7 301.1,220.9 295.9,217.9 	"/>
	<path id="XMLID_887_" fill="#231F20" d="M184.6,216.1c0-0.4,0.1-0.7,0.1-1.1l-12.3,21.2l6.4,11.1l5.7-9.9v-21.3H184.6z"/>
	<path id="XMLID_886_" fill="#231F20" d="M252.6,105.6c0.4,0.1,0.8,0.3,1.2,0.5C253.5,105.9,253.1,105.7,252.6,105.6L252.6,105.6z"
		/>
	<path id="XMLID_885_" fill="#231F20" d="M188.9,207.7l-1,1.8c0.3-0.2,0.6-0.5,0.9-0.7l18.5-10.7l38.4-66.5v172.5l5.5,3.2l5.5-3.2
		V131.7l38.4,66.5c0,0,19.1,11.1,19.4,11.3l-58.5-101.3l0,0l0,0c-0.5-0.9-1.3-1.6-2.2-2.1c-0.4-0.2-0.8-0.4-1.2-0.5l0,0
		c-0.4-0.1-0.8-0.2-1.3-0.2c-0.1,0-0.2,0-0.3,0c-0.4,0-0.9,0.1-1.3,0.2h-0.1c-0.4,0.1-0.8,0.3-1.2,0.5c-0.9,0.5-1.6,1.2-2.1,2.1
		L188.9,207.7z"/>
	<path id="XMLID_884_" fill="#231F20" d="M242.9,261.3v-12.8l-97,56l23.4-40.5l-6.4-11.1l-26.3,45.5V190.4l44.4,25.5l5.5-9.6
		l-44.8-25.7l0,0l0.2-0.1l89.4-51.6l11.1-19.2l-114,65.8c-0.1,0.1-0.2,0.2-0.3,0.3c-0.4,0.2-0.8,0.5-1.1,0.8
		c-1.5,1.5-1.9,3.6-1.3,5.6v135.8c-0.6,1.9-0.2,4.1,1.3,5.6c1,1,2.3,1.5,3.6,1.6c1.1,0.1,2.1-0.1,3.1-0.7L242.9,261.3z"/>
	<path id="XMLID_883_" fill="#231F20" d="M315.9,206.3l5.5,9.6l35.1-20.3l-38.7,67v16.2l2.6,1.5l45.4-78.6v91l11.1,19.2V182.2
		c0.6-1.9,0.2-4.1-1.3-5.6c-0.3-0.3-0.7-0.6-1.1-0.8c-1.7-1-3.8-1.1-5.6-0.1L315.9,206.3z"/>
	<polygon id="XMLID_882_" fill="#231F20" points="148.8,200.6 139.4,195.3 139.4,206.6 182,280.4 184.6,278.9 184.6,262.7 	"/>
	<path id="XMLID_881_" fill="#231F20" d="M242.9,193.6v-12.8l-50.3,29l-2.5,1.4c-1.7,1-2.8,2.8-2.8,4.8v61.2l11.1-6.4v-51.6
		L242.9,193.6z"/>
	<path id="XMLID_880_" fill="#231F20" d="M303.9,270.9l11.1,6.4v-61.2c0-2-1.1-3.8-2.8-4.8l-52.7-30.4v12.8l44.4,25.6V270.9z"/>
	<path id="XMLID_879_" fill="#231F20" d="M295.3,285.1l-44.1,25.5l-44.1-25.5l-11.1,6.4l49.6,28.6l2.8,1.6c0.9,0.5,1.8,0.7,2.8,0.7
		s1.9-0.2,2.8-0.7l2.8-1.6l49.6-28.6L295.3,285.1z"/>
</g>
</svg>
